<?xml version="1.0" encoding="UTF-8"?>
<svg width="129px" height="77px" viewBox="0 0 129 77" version="1.1" xmlns="http://www.w3.org/2000/svg" xmlns:xlink="http://www.w3.org/1999/xlink">
    <!-- Generator: sketchtool 50.2 (55047) - http://www.bohemiancoding.com/sketch -->
    <title>A652125B-DAF5-4B41-88B7-16EE21A9A9F0</title>
    <desc>Created with sketchtool.</desc>
    <defs>
        <polygon id="path-1" points="0.374844334 0.862709285 120.675231 0.862709285 120.675231 70.8128358 0.374844334 70.8128358"></polygon>
        <linearGradient x1="46.9383215%" y1="0%" x2="76.1521859%" y2="78.2576358%" id="linearGradient-3">
            <stop stop-color="#FFFFFF" offset="0%"></stop>
            <stop stop-color="#FFFFFF" offset="22.5121063%"></stop>
            <stop stop-color="#F6F6F6" offset="48.2826095%"></stop>
            <stop stop-color="#FFFFFF" offset="69.4087599%"></stop>
            <stop stop-color="#FFFFFF" offset="100%"></stop>
        </linearGradient>
    </defs>
    <g id="Illustration" stroke="none" stroke-width="1" fill="none" fill-rule="evenodd">
        <g id="ill" transform="translate(-680.000000, -502.000000)">
            <g id="Group-2" transform="translate(109.000000, 90.000000)">
                <g id="Group-14" transform="translate(571.000000, 411.000000)">
                    <g id="Group-10">
                        <path d="M71.9706476,76.9588373 L1.06080946,36.0781814 L1.06081052,36.0778938 C0.353126319,35.669813 -0.00160527723,35.1336548 0.000178497302,34.5992767 L0.00374844334,33.1465741 C0.00196347032,33.6813112 0.357173101,34.2160484 1.06580739,34.6260136 L1.06509734,34.9149499 L1.06616438,34.6254788 L71.9742175,75.5061347 L71.9742168,75.5064431 C73.3772422,76.3153703 75.6259137,76.3152675 77.0180158,75.5061347 L77.0144458,76.9588373 C75.6223147,77.767987 73.3735784,77.7680729 71.9705589,76.959095 Z M128.381328,44.850901 L128.377758,46.3036037 C128.375973,46.8294285 128.029689,47.3534709 127.342474,47.7527414 L127.346044,46.3000387 C128.033259,45.9007683 128.381328,45.3767259 128.381328,44.850901 Z M127.345866,46.3000387 L127.342296,47.7527414 L77.0149813,76.960085 L77.0185513,75.5056 L127.345866,46.3000387 Z" id="Combined-Shape" fill="#60A510"></path>
                        <path d="M127.330158,43.382691 C128.731362,44.1919266 128.727792,45.4984677 127.346222,46.3005735 L77.0171233,75.5061347 C75.6248443,76.3153703 73.3757783,76.3153703 71.9745745,75.5061347 L1.06652138,34.6254788 C-0.334682441,33.8162433 -0.354317144,32.5097021 1.03796181,31.7004666 L51.365276,2.49490534 C52.7468452,1.6927996 55.0191158,1.6927996 56.4203196,2.50025271 L127.330158,43.382691 Z" id="Fill-10" fill="#7BBD2D"></path>
                        <path d="M72.1519996,71.4323827 C72.848201,71.8330251 73.9829049,71.8328883 74.6734537,71.4319723 L74.6663138,74.3373775 C73.9737443,74.7384304 72.8385015,74.7384304 72.1441469,74.3373775 L72.1484309,72.5941344 L72.1519996,71.4323827 Z M72.1484309,72.5941344 L72.143076,74.3373775 C67.2736696,70.6904701 62.1864965,67.3537102 56.7512536,64.2201504 C50.8483479,60.8156572 44.5152636,57.6500132 37.7734205,54.7321308 L37.7823454,51.8249431 C44.5224035,54.7428255 50.8554878,57.910252 56.7601785,61.3129628 C62.1954213,64.448305 67.2808095,67.7850648 72.1520008,71.4319723 Z M124.244832,42.2417402 L124.235907,45.1471454 C124.235907,45.4109491 124.059195,45.6747528 123.714695,45.874388 L123.721835,42.9689827 C124.06812,42.7675651 124.244832,42.5055439 124.244832,42.2417402 Z M37.7818099,51.8258343 L37.772885,54.7312395 C32.6964218,50.8347881 27.2129846,47.1878807 21.2975841,43.7780401 C15.8730511,40.6516101 10.0843836,37.7212505 3.93693649,35.0012208 L3.94407638,32.0958156 C10.0933084,34.8158453 15.880191,37.7462049 21.3065089,40.8726348 C27.2201245,44.2824754 32.7053466,47.9293829 37.7818099,51.8258343 Z M123.721835,42.968448 L123.714695,45.8738532 L74.6654213,74.3379122 L74.6725612,71.432507 L123.721835,42.968448 Z" id="Combined-Shape" fill="#E6E6E6"></path>
                        <g id="Group-25" transform="translate(3.569946, 0.919926)">
                            <mask id="mask-2" fill="white">
                                <use xlink:href="#path-1"></use>
                            </mask>
                            <g id="Clip-24"></g>
                            <path d="M120.303611,40.6951021 C120.851598,41.1032848 120.787339,41.6808009 120.151889,42.0479871 L71.1044002,70.5120461 C70.4136156,70.913099 69.2783728,70.913099 68.5822333,70.5120461 C63.7110419,66.8651387 58.6256538,63.5283788 53.190411,60.3930366 C47.2857202,56.9903258 40.9526359,53.8228994 34.2125778,50.9067994 C29.1343296,47.0085655 23.6508925,43.3634405 17.7354919,39.9518174 C12.3109589,36.8253875 6.52407638,33.8950279 0.374844334,31.1749982 L49.2438356,1.16733122 C49.877501,0.800145037 50.8770859,0.759148521 51.5821503,1.07464345 C57.8581154,3.84101702 63.7806559,6.82485037 69.3212121,10.0172312 C75.2348277,13.4270718 80.7200498,17.0739793 85.7965131,20.9704307 C92.5365712,23.8883131 98.8714404,27.0557396 104.774346,30.4584504 C110.325612,33.6579611 115.489539,37.0678017 120.303611,40.6951021" id="Fill-23" fill="url(#linearGradient-3)" mask="url(#mask-2)"></path>
                        </g>
                    </g>
                    <g id="Group-13" transform="translate(13.030303, 6.505969)">
                        <path d="M31.510418,5.38057976 C31.2099122,5.20666848 31.2064974,4.92875145 31.5223699,4.74461009 C31.8587315,4.55023867 32.4238871,4.53830358 32.7722006,4.71391987 C37.5239478,7.07536219 40.8448777,8.81106493 44.1897116,10.7394341 C46.7047398,12.1886947 49.2334274,13.7487811 52.39386,15.7624009 C52.699488,15.9652974 52.6892435,16.2858398 52.3545893,16.4802112 C52.0421317,16.6609425 51.5367356,16.6626475 51.2276928,16.4836212 C48.0314044,14.4444262 45.5027168,12.8860448 42.9876886,11.4367842 C39.6428548,9.50841504 36.3202173,7.7710073 31.5701776,5.412975 C31.5496886,5.40274492 31.5291996,5.39080984 31.510418,5.38057976 Z M27.9530104,7.51099289 C27.6029896,7.31150642 27.5944525,7.02506432 27.9171546,6.83751295 C28.2415643,6.64996157 28.80672,6.63802648 29.1550334,6.81364277 C34.0399592,9.23817056 37.5794389,11.0829941 41.0011066,13.0556936 C44.1342205,14.8630068 47.1717189,16.7777359 51.0560972,19.3386647 C51.3600178,19.5398561 51.3514807,19.8603985 51.0151191,20.0547699 C50.6941243,20.2423213 50.2006803,20.2389113 49.8916374,20.0598849 C45.9679885,17.473381 42.9321975,15.5603569 39.7973762,13.7530437 C36.3774159,11.7803442 32.8379363,9.93552067 27.9530104,7.51099289 Z M19.5374836,12.3944897 C19.5169946,12.3842596 19.4965055,12.3740296 19.4777239,12.3620945 C19.1772182,12.1898882 19.1755108,11.9119712 19.4913833,11.7278298 C19.8260374,11.5334584 20.3809486,11.5266383 20.7395066,11.6971396 C25.3392934,13.9818564 28.3084951,15.5351228 31.6686957,17.473722 C33.2446435,18.3824936 34.9059622,19.3731059 36.8609569,20.5649096 C37.187074,20.7661011 37.1785369,21.0866435 36.8541273,21.2741949 C36.5245954,21.4651563 36.0072474,21.4634512 35.6777156,21.2741949 C33.7022318,20.070456 32.0426205,19.0798438 30.4666727,18.1710721 C27.1064721,16.2341779 24.1372704,14.6792065 19.5374836,12.3944897 Z M47.3697795,22.8777591 C47.6754075,23.0789506 47.6549185,23.406313 47.3202644,23.6006844 C47.0078067,23.7814157 46.51607,23.7780057 46.2053197,23.5989794 C41.9077461,20.7260333 38.6226719,18.633983 35.1685632,16.6408234 C31.7127471,14.6493688 28.0861891,12.7550999 23.1449185,10.3015869 C22.7931902,10.1003954 22.7863605,9.81565829 23.0971108,9.63492697 C23.4317649,9.44055554 23.998628,9.42862046 24.3469415,9.60423674 C29.2882121,12.0577497 32.9147701,13.9520186 36.3705862,15.9434732 C39.8264023,17.9366329 43.1097691,20.0286832 47.3697795,22.8777591 Z M15.9201457,14.4933601 C15.5701248,14.2938736 15.5615877,14.0074315 15.8842899,13.8215852 C16.2086995,13.6323288 16.7738552,13.6203937 17.1221687,13.79601 C21.8892825,16.1642724 25.2204571,17.9016801 28.5772428,19.8368693 C31.0820265,21.2810149 33.602177,22.8359863 36.743828,24.844491 C37.0597005,25.0405675 37.049456,25.3611098 36.7148019,25.5554813 C36.38527,25.7464427 35.8781666,25.7379176 35.5605866,25.5554813 C32.400154,23.5333364 29.8800036,21.978365 27.3735124,20.5342194 C24.0184341,18.5990302 20.6872596,16.8616225 15.9201457,14.4933601 Z M12.3135645,16.586263 C11.9635436,16.3867765 11.9550065,16.1003344 12.2674642,15.9196031 C12.6021183,15.7252316 13.167274,15.7132966 13.5155875,15.8889128 C18.3834391,18.3032106 21.9092594,20.1463291 25.3172677,22.1105035 C28.464041,23.9246368 31.5100765,25.8444809 35.4166512,28.4139347 C35.7205718,28.6168312 35.7017902,28.9424886 35.3773806,29.131745 C35.0546784,29.3192964 34.5612343,29.3141813 34.2521914,29.135155 C30.3080535,26.541831 27.262018,24.6236919 24.1152447,22.8078536 C20.7072364,20.8436792 17.1797087,19.0022657 12.3135645,16.586263 Z M17.604173,31.7399026 C17.9302901,31.9410941 17.921753,32.2616365 17.5973434,32.4508928 C17.2678115,32.6401492 16.7504635,32.6384442 16.4226391,32.4491878 C14.4454479,31.245449 12.7858366,30.2548367 11.2115962,29.3460651 C7.85139561,27.4091709 4.88048652,25.8541994 0.280699687,23.5694827 C0.267040334,23.5626626 0.251673563,23.5541376 0.23972163,23.5456125 C-0.0693212121,23.3682912 -0.0881028213,23.0903742 0.234599373,22.9028228 C0.569253501,22.7084514 1.1344092,22.6948113 1.48443009,22.8721326 C6.08421693,25.1568493 9.05171118,26.7101157 12.4136192,28.6487149 C13.9878596,29.5557816 15.6491783,30.5480989 17.604173,31.7399026 Z M28.1138493,34.0527521 C28.4194773,34.2539436 28.3989883,34.581306 28.0626268,34.7756774 C27.7518765,34.9564087 27.2584324,34.9512937 26.9493896,34.7739724 C22.6518159,31.8993213 19.3667417,29.808976 15.9109256,27.8158163 C12.4551095,25.8243617 8.83025893,23.9300928 3.88728088,21.4765798 C3.53725998,21.2753884 3.52872288,20.9906513 3.84118056,20.8099199 C4.17583469,20.6155485 4.74099039,20.6036134 5.08930387,20.7792297 C10.0322819,23.2327427 13.6571325,25.1270116 17.1129486,27.1184662 C20.5687647,29.1116258 23.8538389,31.2019712 28.1138493,34.0527521 Z M38.7835108,1.22614628 C38.4334899,1.02495481 38.4249528,0.74021772 38.747655,0.552666344 C39.0720646,0.365114968 39.6372203,0.351474868 39.9855338,0.528796169 C44.9268044,2.98230917 48.5533624,4.87657806 52.0091785,6.86803267 C55.4649946,8.86119229 58.7500688,10.9515376 63.0083718,13.8023185 C63.3139998,14.00351 63.2935108,14.3308724 62.9708086,14.5184238 C62.6481064,14.7059752 62.1546623,14.7008601 61.8456194,14.5235388 C57.5480458,11.6488877 54.2629716,9.55854241 50.8071555,7.56538279 C47.3513394,5.57392818 43.7247814,3.67965928 38.7835108,1.22614628 Z M35.1361223,3.29671347 C34.8270794,3.11939217 34.8168349,2.83465508 35.1292926,2.65221875 C35.4656541,2.45784732 36.0308098,2.44420722 36.3791233,2.62152852 C40.9789101,4.90624528 43.9481118,6.45951167 47.3083124,8.3981109 C48.8842602,9.30517755 50.5438715,10.2974948 52.4988662,11.4892986 C52.8266907,11.69049 52.8283981,12.0042123 52.493744,12.2002888 C52.1642121,12.3895452 51.6451567,12.3878402 51.3173323,12.1985838 C49.3418485,10.99655 47.6822372,10.0042327 46.1062894,9.09546101 C42.7460888,7.1585668 39.7768871,5.60530041 35.1771003,3.31887864 C35.163441,3.31205859 35.1497816,3.30353352 35.1361223,3.29671347 Z M58.2788211,30.5578175 C58.2651618,30.5509974 58.249795,30.5424723 58.2378431,30.5356523 C57.9185557,30.3515109 57.9100186,30.0667739 58.2207689,29.8860425 C58.5571304,29.6916711 59.1222861,29.678031 59.4808441,29.8604673 C64.0806309,32.1451841 67.0447103,33.6967455 70.4066184,35.6353447 C71.9808587,36.5424114 73.6438848,37.5347286 75.6022945,38.7282374 C75.918167,38.9243138 75.9198744,39.2380361 75.5835129,39.4324076 C75.2556884,39.623369 74.736633,39.6216639 74.4190531,39.4375226 C72.4418619,38.2320787 70.7788357,37.2397615 69.2045954,36.3326948 C65.8426874,34.3940956 62.8786079,32.8442392 58.2788211,30.5578175 Z M54.6106021,32.6190071 C54.2998518,32.4399808 54.2981444,32.1620637 54.6140169,31.9796274 C54.9503785,31.7835509 55.5035822,31.7767309 55.8740922,31.9523472 C60.6190096,34.3103795 63.9382322,36.0443772 67.2813586,37.9727463 C69.7963868,39.422007 72.3250744,40.9803884 75.485507,42.9957132 C75.8013795,43.2037247 75.7808905,43.517447 75.4462364,43.7118184 C75.1235342,43.8993698 74.6403346,43.9010748 74.3210472,43.7186385 C71.1230514,41.6777385 68.5943638,40.1193571 66.0793356,38.6700965 C62.7362092,36.7417273 59.4169866,35.0077296 54.6720692,32.6514023 C54.6498727,32.6411722 54.6310911,32.6292371 54.6106021,32.6190071 Z M51.0547312,34.7502727 C50.6944658,34.5439662 50.6859287,34.2575241 51.0086309,34.0716777 C51.3330405,33.8824213 51.8981962,33.8704863 52.2567542,34.0529226 C57.14168,36.4774504 60.6777448,38.3205689 64.0959977,40.2915634 C67.2291116,42.0971716 70.2614878,44.0084906 74.145866,46.5728294 C74.4617386,46.7791359 74.4429569,47.0945633 74.1065954,47.2889347 C73.7856006,47.4747811 73.302401,47.4764861 72.9831137,47.2940497 C69.0594648,44.7075458 66.0253812,42.7945217 62.8956821,40.9889135 C59.4757218,39.017919 55.9413645,37.1748005 51.0547312,34.7502727 Z M40.2250846,41.0351193 C40.2097179,41.0282993 40.1960585,41.0197742 40.1823992,41.0129541 C39.8648192,40.8288128 39.8562821,40.5440757 40.1772769,40.3565243 C40.5033939,40.168973 41.0668422,40.1553329 41.4271076,40.3377692 C45.9927461,42.5986158 48.9414587,44.1433571 52.2640961,46.0580862 C53.8639478,46.9804979 55.5508777,47.9898653 57.548558,49.2055392 C57.874675,49.3947956 57.8661379,49.715338 57.5297764,49.9097094 C57.210489,50.0938508 56.6828966,50.0972608 56.3636092,49.9148245 C54.386418,48.7093806 52.7250993,47.7170633 51.1491515,46.8099967 C47.7889509,44.8713975 44.8248715,43.3215411 40.2250846,41.0351193 Z M68.0572098,51.5057716 C68.3628378,51.7188982 68.3423488,52.0343255 68.0059873,52.2286969 C67.6901147,52.4128383 67.2188671,52.4179533 66.9115317,52.238927 C66.8910426,52.2286969 66.872261,52.2167618 66.8551868,52.2031217 C62.6002986,49.3574559 59.3152245,47.2654055 55.8594084,45.2722459 C52.4052997,43.2807913 48.7770343,41.3865224 43.8425933,38.9364194 C43.8203969,38.9261893 43.7999078,38.9142543 43.7794188,38.9040242 C43.470376,38.7249979 43.4686685,38.4470808 43.7845411,38.2629395 C44.1191952,38.0685681 44.6741064,38.061748 45.0446163,38.2390693 C49.9807647,40.6891723 53.6073227,42.5834412 57.0631388,44.5748958 C60.5172474,46.5680554 63.8023216,48.6601057 68.0572098,51.5057716 Z M57.4300631,53.4730151 C57.7476431,53.6810266 57.727154,53.9947489 57.401037,54.1840053 C57.0783348,54.3715566 56.5848907,54.3783767 56.2656033,54.1942353 C53.0676075,52.1567454 50.53892,50.596659 48.0255992,49.1473983 C44.6824727,47.2190292 41.3632502,45.4850315 36.6183327,43.1287042 C36.2580673,42.9223977 36.2478228,42.6376606 36.5602805,42.4552242 C36.896642,42.2608528 37.4600903,42.2489177 37.8203557,42.429649 C42.5652731,44.7876813 45.8844957,46.5216791 49.2276222,48.4500482 C51.7426504,49.8993088 54.2696305,51.4576903 57.4300631,53.4730151 Z" id="Combined-Shape" fill="#CACACA"></path>
                        <path d="M98.1330543,34.0527521 C98.4489269,34.2607636 98.4181933,34.581306 98.0937837,34.7688573 C93.7603542,37.2837508 91.5953469,38.540345 87.2636249,41.0535334 C86.9409227,41.2410848 86.4577231,41.2427898 86.1401432,41.0586485 C81.8459843,38.1874074 78.5626176,36.0970621 75.1068015,34.1039025 C71.649278,32.1124479 68.0244274,30.218179 63.088279,27.766371 C62.7263062,27.5600645 62.7177691,27.2753274 63.0404713,27.089481 C67.3721933,24.5745876 69.538908,23.3179933 73.8706301,20.8030999 C74.1950397,20.6155485 74.7619028,20.6019084 75.1204608,20.7843448 C80.0566092,23.2361527 83.6831672,25.1304216 87.1389833,27.1218762 C90.593092,29.1150359 93.8798736,31.2053812 98.1330543,34.0527521" id="Fill-24" fill="#E7E7E7"></path>
                    </g>
                </g>
            </g>
        </g>
    </g>
</svg>