<svg xmlns="http://www.w3.org/2000/svg" width="70" height="44" xmlns:xlink="http://www.w3.org/1999/xlink"><title>8152A30C-88C3-4EF5-ADB3-EA0716BDA8B3</title><desc>Created with sketchtool.</desc><defs><path id="a" d="M16.05 0L.57 9l28.38 16.38 15.47-9z"/><path id="c" d="M.98 2.34V5.6C3.04 4.1 6.5 3.53 9.64 4.14V.87C8.84.7 8 .63 7.14.63c-2.34 0-4.62.6-6.15 1.7"/><path id="e" d="M.08 4.1c.06.25.46.4.88.4.1 0 .22 0 .32-.02V1.2C.8 1.33.17 1.16.1.85"/><path id="f" d="M.08 4.1c.06.25.46.4.88.4.1 0 .22 0 .32-.02V1.2C.8 1.33.17 1.16.1.85"/><path id="g" d="M.08 4.1c.06.25.46.4.88.4.1 0 .22 0 .32-.02V1.2C.8 1.33.17 1.16.1.85"/><path id="h" d="M.08 4.1c.06.25.46.4.88.4.1 0 .22 0 .32-.02V1.2C.8 1.33.17 1.16.1.85"/><path id="i" d="M.08 4.1c.06.25.46.4.88.4.1 0 .22 0 .32-.02V1.2C.8 1.33.17 1.16.1.85"/><path id="j" d="M.95 9.38v3.26l15.46-9 .02-2.96v-.3z"/></defs><g fill="none"><g><g><g><g transform="translate(25 0)"><mask id="b"><use xlink:href="#a"/></mask><use id="Mask" fill="#F4F4F4" xlink:href="#a"/><path fill="#FFE074" d="M12 2c0 2 4 4 5 4s6.5.5 6.5 3.5 1 7.5 5.5 6.5 8-3 9-1c.67 1.33 1 2.83 1 4.5l3 3.5 7.5-6L17-4c-3.33 2.67-5 4.67-5 6z" mask="url(#b)"/></g><path fill="#9EA6BA" d="M22.74 10.64L25.56 9l28.37 16.4L51.1 27z"/><path fill="#7A7F91" d="M53.93 25.4v3.25l-2.83 1.63v-3.26z"/><path id="Combined-Shape" fill="#70757A" d="M19.9 14.03v3.26c-.12-.24-.17-.48-.17-.7v-3.27c0 .23.06.47.18.7zm3.45 6.43v3.26L19.9 17.3v-3.27l3.45 6.43zm.37 1.4v3.25c0-.45-.13-.92-.37-1.38v-3.26c.25.46.37.93.37 1.4z"/><g transform="translate(24 25.507)"><mask id="d"><use xlink:href="#c"/></mask><path fill="#9499A0" d="M5.8.7v3.26c-.36.03-.7.08-1.03.14V.84C5.12.78 5.46.74 5.8.7" mask="url(#d)"/></g><path fill="#C4CCD8" d="M.08 43.1c-.05-.06-.08-.12-.08-.18v-3.26c0 .06.04.12.1.18.06.3.68.48 1.2.37l-.02 3.28c-.1.02-.2.03-.32.03-.42 0-.82-.15-.88-.4zm6.04-3.34v2.94l-4.84.77v-3.26l4.84-.76c2.15-.36 4.1-1.1 5.5-2.08v3.26c-1.42.97-3.36 1.72-5.5 2.08v-2.94zm18.86-10.6v1.95L11.6 40.63l.02-3.26 13.36-9.5c1.53-1.1 3.8-1.72 6.16-1.72.84 0 1.7.08 2.52.24l11.56 2.24v3.26l-11.57-2.24c-3.13-.6-6.6-.03-8.67 1.47v-1.94zm24.33 2.17c-1.06.62-2.63.83-4.1.55l.02-3.26c1.46.28 3.03.07 4.1-.55l1.8-1.05-.02 3.26-1.8 1.05z"/><path d="M.08 43.1c.06.25.46.4.88.4.1 0 .22 0 .32-.02V40.2c-.5.12-1.12-.05-1.2-.36"/><path d="M.08 43.1c.06.25.46.4.88.4.1 0 .22 0 .32-.02V40.2c-.5.12-1.12-.05-1.2-.36"/><g transform="translate(0 39)"><mask><use xlink:href="#e"/></mask><mask><use xlink:href="#f"/></mask><mask><use xlink:href="#g"/></mask><mask><use xlink:href="#h"/></mask><mask><use xlink:href="#i"/></mask></g><path fill="#DBE2EA" d="M22.74 10.64L51.1 27.02l-1.78 1.05c-1.07.62-2.64.83-4.1.55l-11.56-2.24c-3.13-.6-6.6-.03-8.68 1.47l-13.36 9.5c-1.4.98-3.36 1.73-5.5 2.1l-4.83.76c-.52.12-1.14-.05-1.2-.36-.1-.12-.13-.22 0-.32l1.4-2.92c.1-.26.3-.72.5-.98.63-.85 1.56-1.44 2.78-2.07l16.25-8.23c2.35-1.2 3.27-3.1 2.32-4.86l-3.44-6.43c-.42-.84-.04-1.72 1-2.32l1.84-1.06z"/><path fill="#999DA4" d="M5.9 35.62c-.58.34-.6.9 0 1.24.56.33 1.55.33 2.12 0 .6-.35.57-.9 0-1.24-.6-.34-1.54-.34-2.13 0z"/><g transform="translate(53 16)"><mask id="k"><use xlink:href="#j"/></mask><use fill="#EAEAEA" xlink:href="#j"/><path fill="#FEC502" d="M11 3.5c0 1.5-.5 4 1 4 1 0 3.5-2.17 7.5-6.5L17-1c-4 2-6 3.5-6 4.5z" mask="url(#k)"/></g></g></g></g></g></svg>