<svg xmlns="http://www.w3.org/2000/svg" width="71" height="51"><title>056D392B-36C3-46B7-9DCE-4CB2A5AEB57F</title><desc>Created with sketchtool.</desc><g fill="none"><g><g><g><path fill="#D6A500" d="M66.9 21.07l-.04 11.18c0-4.73-3.1-9.47-9.36-13.08C45.06 12 25 12 12.64 19.17c-6.13 3.57-9.2 8.23-9.22 12.9l.04-11.18c0-4.68 3.08-9.34 9.2-12.9C25.03.82 45.1.82 57.54 8c6.25 3.6 9.37 8.34 9.36 13.07"/><path fill="#EB9B00" d="M70.28 30.26c-.02 5.18-3.42 10.34-10.22 14.3-13.68 7.94-35.9 7.94-49.68 0-6.93-4-10.4-9.26-10.38-14.5l.03-9.18c0 5.24 3.45 10.5 10.38 14.5 13.78 7.95 36 7.95 49.7 0 6.8-3.95 10.2-9.13 10.2-14.3l-.02 9.18z"/><path fill="#FEC502" d="M12.83 33.97c12.42 7.18 32.5 7.18 44.83 0 12.36-7.18 12.3-18.8-.13-25.97C45.1.82 25.03.82 12.67 8 .33 15.17.4 26.8 12.83 33.97M59.93 6.6c13.78 7.94 13.84 20.83.16 28.78-13.7 7.95-35.92 7.95-49.7 0-13.76-7.95-13.84-20.84-.16-28.8 13.68-7.94 35.93-7.94 49.7 0"/><path fill="#fff" d="M3.52 22.12c.5-4.27 3.54-8.45 9.15-11.7 12.35-7.2 32.42-7.2 44.86 0 5.7 3.28 8.8 7.52 9.3 11.83-.5 4.27-3.54 8.46-9.17 11.72-12.34 7.18-32.4 7.18-44.83 0-5.72-3.3-8.82-7.54-9.3-11.85z"/><path fill="#707070" d="M34.3 33.56c-.1 0-.15.02-.2.03-.07 0-.13 0-.2 0-.1 0-.15 0-.2 0-.1 0-.14 0-.18-.02-.1 0-.15-.02-.2-.03-.1-.02-.15-.03-.2-.04-.07 0-.12-.03-.17-.05-.1-.03-.12-.04-.16-.06-.1-.05-.12-.06-.15-.08-.1-.07-.14-.08-.16-.1-.07-.04-.1-.07-.12-.1-.03-.02-.06-.05-.08-.07-.03-.05-.05-.06-.06-.08-.03-.05-.04-.08-.05-.1-.04-.05-.05-.08-.06-.1L29.3 22.13c-.1-.3.08-.62.47-.85l18.55-10.8c.67-.38 1.76-.38 2.43 0 .66.4.67 1.02 0 1.4L32.8 22.35l2.72 10.1c0 .05.02.1.02.13 0 .06 0 .08 0 .1 0 .07-.02.1-.03.12 0 .05-.02.07-.03.1-.03.05-.05.08-.07.1-.04.06-.07.1-.1.12-.05.04-.08.06-.1.1-.07.03-.1.05-.12.07-.13.06-.16.07-.2.08-.06.04-.1.05-.14.07-.06.02-.1.03-.14.04-.08 0-.1.02-.14.03-.1.02-.12.02-.16.03"/></g></g></g></g></svg>