<?xml version="1.0" encoding="UTF-8"?>
<svg width="80px" height="93px" viewBox="0 0 80 93" version="1.1" xmlns="http://www.w3.org/2000/svg" xmlns:xlink="http://www.w3.org/1999/xlink">
    <!-- Generator: sketchtool 50.2 (55047) - http://www.bohemiancoding.com/sketch -->
    <title>DFE4A515-A943-46DD-A8AC-3A708C22E155</title>
    <desc>Created with sketchtool.</desc>
    <defs>
        <polygon id="path-1" points="0.706478873 23.1494648 0.836619718 69.0739718 40.8033803 45.9996056 40.6732394 0.0750985915"></polygon>
        <polygon id="path-3" points="0.130309859 68.9988169 39.8367887 92.0737465 39.7066479 46.1492394 39.8367887 -2.27373675e-13 0.000169014085 23.0743099"></polygon>
        <polygon id="path-5" points="39.9660845 0 -0.000112676056 23.0743662 39.7063662 46.1492958 79.6731268 23.0749296"></polygon>
        <polygon id="path-7" points="39.5014792 18.9998708 18.2910208 24.4752458 26.2967708 25.6907042 22.5315625 29.9428708 33.8142708 27.0249958 37.3766875 19.7477458 40.4818542 20.2644125"></polygon>
        <filter x="-9.0%" y="-9.1%" width="118.0%" height="136.6%" filterUnits="objectBoundingBox" id="filter-8">
            <feOffset dx="0" dy="1" in="SourceAlpha" result="shadowOffsetOuter1"></feOffset>
            <feGaussianBlur stdDeviation="0.5" in="shadowOffsetOuter1" result="shadowBlurOuter1"></feGaussianBlur>
            <feColorMatrix values="0 0 0 0 0.82745098   0 0 0 0 0.160784314   0 0 0 0 0.57254902  0 0 0 0.160722373 0" type="matrix" in="shadowBlurOuter1"></feColorMatrix>
        </filter>
        <polygon id="path-9" points="29.0373167 35.6987708 35.770775 32.9229792 38.9857333 37.3508125 45.3161917 24.4044375 38.4819833 23.2651875 35.3768167 22.7472292"></polygon>
        <filter x="-12.3%" y="-20.5%" width="124.6%" height="127.4%" filterUnits="objectBoundingBox" id="filter-10">
            <feOffset dx="0" dy="-1" in="SourceAlpha" result="shadowOffsetOuter1"></feOffset>
            <feGaussianBlur stdDeviation="0.5" in="shadowOffsetOuter1" result="shadowBlurOuter1"></feGaussianBlur>
            <feColorMatrix values="0 0 0 0 0.82745098   0 0 0 0 0.160784314   0 0 0 0 0.57254902  0 0 0 0.160722373 0" type="matrix" in="shadowBlurOuter1"></feColorMatrix>
        </filter>
        <linearGradient x1="47.9144775%" y1="2.74905916%" x2="81.3005193%" y2="59.2590023%" id="linearGradient-11">
            <stop stop-color="#FFF2FA" offset="0%"></stop>
            <stop stop-color="#ECC4DC" offset="62.817346%"></stop>
            <stop stop-color="#FDE1F2" offset="100%"></stop>
        </linearGradient>
    </defs>
    <g id="Illustration" stroke="none" stroke-width="1" fill="none" fill-rule="evenodd">
        <g id="ill-copy-C-картинкой" transform="translate(-975.000000, -335.000000)">
            <g id="Group-2" transform="translate(109.000000, 90.000000)">
                <g id="Group-7" transform="translate(866.000000, 245.000000)">
                    <g id="Rectangle" transform="translate(39.000000, 23.000000)">
                        <mask id="mask-2" fill="white">
                            <use xlink:href="#path-1"></use>
                        </mask>
                        <use id="Mask" fill="#D32992" xlink:href="#path-1"></use>
                        <rect fill="#FFFFFF" opacity="0.800000012" mask="url(#mask-2)" x="18" y="3" width="8" height="67" rx="4"></rect>
                    </g>
                    <g id="Path-8">
                        <mask id="mask-4" fill="white">
                            <use xlink:href="#path-3"></use>
                        </mask>
                        <use id="Mask" fill="#E54CAA" xlink:href="#path-3"></use>
                        <polygon fill="#FFFFFF" opacity="0.800000012" mask="url(#mask-4)" points="16 30 16 82 24 87.5 24 35.5"></polygon>
                    </g>
                    <g id="Path-7">
                        <mask id="mask-6" fill="white">
                            <use xlink:href="#path-5"></use>
                        </mask>
                        <use id="Mask" fill="#F869C1" xlink:href="#path-5"></use>
                        <path d="M9,41 L79.5,0.5" stroke="#FFFFFF" stroke-width="8" opacity="0.800000012" mask="url(#mask-6)"></path>
                        <path d="M5.08798557,1.34760452 L75.4120144,42.1523955" stroke="#FFFFFF" stroke-width="8" opacity="0.800000012" mask="url(#mask-6)"></path>
                        <g id="Fill-1" mask="url(#mask-6)">
                            <use fill="black" fill-opacity="1" filter="url(#filter-8)" xlink:href="#path-7"></use>
                            <use fill="#FDE1F2" fill-rule="evenodd" xlink:href="#path-7"></use>
                        </g>
                        <g id="Fill-2" mask="url(#mask-6)">
                            <use fill="black" fill-opacity="1" filter="url(#filter-10)" xlink:href="#path-9"></use>
                            <use fill="#FDE1F2" fill-rule="evenodd" xlink:href="#path-9"></use>
                        </g>
                    </g>
                    <g id="Group-6" transform="translate(26.000000, 7.000000)">
                        <path d="M27.54175,16.00815 C28.12975,16.34715 28.66525,16.37715 29.05225,16.15215 L20.59525,21.06765 C20.2082784,21.2926335 19.6728286,21.2626544 19.0833797,20.9237246 L14.48725,18.2688 L22.94425,13.3533 L27.5416205,16.0082252 Z M4.65497067,12.04455 L12.6406,7.40385 L17.2366,10.05885 L8.7781,14.97435 L4.1821,12.31935 C3.01417711,11.6455103 2.06020004,9.99103389 2.0632,8.64855 L10.5202,3.73455 C10.5172,5.07705 11.4712,6.73005 12.6397,7.40355 L4.65497067,12.04455 Z M2.53997068,6.7458 L2.0671,7.0206 C2.0686,6.6921 2.1856,6.4611 2.3731,6.3516 L10.8301,1.4376 C10.6426,1.5456 10.5271,1.7766 10.5256,2.1051 L10.5246977,2.10562434 L10.5202,3.7338 L2.0632,8.6478 L2.0677,7.0203 L2.53997068,6.7458 Z" id="Combined-Shape" fill="#E77DBE"></path>
                        <path d="M24.9408397,14.9787897 L30.23995,11.90025 C30.56245,12.52875 30.74395,13.19325 30.74245,13.77825 L30.7372,15.40575 L22.2802,20.32125 L22.2847,18.69225 L26.5132,16.23525 L22.28395,18.69225 C22.28545,18.10875 22.10545,17.44275 21.78145,16.81425 C21.3633649,16.0238461 20.7770316,15.4046027 20.1877,15.0642 C19.7005499,14.7832668 19.2133999,14.6928837 18.8181983,14.8568213 L18.81445,14.859 L13.72345,16.968 L15.63205,15.8586559 L13.7239,16.9674 C13.1224,17.2224 12.3784,17.0919 11.6329,16.6629 C10.8889,16.2324 10.1449,15.5019 9.5479,14.5569 L18.0049,9.6429 C18.6019,10.5879 19.3459,11.3169 20.0899,11.7474 C20.8324274,12.1761834 21.5749548,12.3058665 22.1737158,12.0564142 L22.18045,12.0525 L27.2670426,9.94532582 L27.2707,9.9432 C27.6667,9.7782 28.1572,9.8667 28.6447,10.1487 C29.2342,10.4892 29.8222,11.1102 30.2392,11.8992 L24.9408397,14.9787897 Z M1.62085,5.05815 L10.07935,0.14265 C10.46185,-0.07935 10.99285,-0.04935 11.57635,0.28665 C12.07435,0.57465 12.56185,1.06515 12.94435,1.67115 L4.48585,6.58665 C4.10485,5.98065 3.61735,5.49015 3.11935,5.20215 C2.53435,4.86465 2.00485,4.83465 1.62085,5.05815 Z M4.48615,6.58665 L12.94465,1.67115 L18.00565,9.64215 L9.54865,14.55615 L4.48615,6.58665 Z M29.80735,17.4522 L21.35035,22.3677 C21.92185,22.0347 22.27735,21.3267 22.28035,20.3217 L30.73735,15.4062 C30.73435,16.4127 30.38035,17.1192 29.80735,17.4522 Z" id="Combined-Shape" fill="url(#linearGradient-11)"></path>
                        <path d="M4.1821,12.31935 L8.7781,14.97435 L3.7936,7.11285 C3.6031,6.81585 3.3541,6.56085 3.1156,6.42285 C2.5396,6.09135 2.0701,6.35985 2.0671,7.01985 L2.0626,8.64885 C2.0596,9.99135 3.0136,11.64435 4.1821,12.31935 M21.2161,19.70685 L21.2221,18.07785 C21.2221,17.79285 21.1366,17.46735 20.9656,17.14785 C20.7841,16.80135 20.5351,16.51335 20.2576,16.31985 C20.2351,16.30485 20.2111,16.28985 20.1871,16.27785 C19.9351,16.13235 19.6936,16.10085 19.5001,16.18035 L14.4871,18.26835 L19.0846,20.92335 C20.2516,21.59835 21.2131,21.04935 21.2161,19.70685 M21.7816,16.81485 C22.1056,17.44335 22.2856,18.10935 22.2841,18.69285 L22.2796,20.32035 C22.2751,22.34685 20.8426,23.16135 19.0801,22.14435 L4.1791,13.54035 C2.4166,12.52335 0.9946,10.06035 0.9991,8.03535 L1.0051,6.40635 C1.0081,5.07435 1.9606,4.53285 3.1186,5.20185 C3.6166,5.48985 4.1041,5.98035 4.4866,6.58635 L9.5476,14.55735 C10.1446,15.50235 10.8886,16.23285 11.6326,16.66335 C12.3781,17.09235 13.1221,17.22285 13.7236,16.96785 L18.8131,14.85885 C19.2091,14.69235 19.6996,14.78235 20.1871,15.06435 C20.7766,15.40485 21.3646,16.02435 21.7816,16.81485" id="Fill-30" fill="#F5C3E1"></path>
                    </g>
                </g>
            </g>
        </g>
    </g>
</svg>