<?xml version="1.0" encoding="UTF-8"?>
<svg width="271px" height="207px" viewBox="0 0 271 207" version="1.1" xmlns="http://www.w3.org/2000/svg" xmlns:xlink="http://www.w3.org/1999/xlink">
    <!-- Generator: sketchtool 50.2 (55047) - http://www.bohemiancoding.com/sketch -->
    <title>94B5C07E-AA0E-4948-ACCF-E9EAFAD6D523</title>
    <desc>Created with sketchtool.</desc>
    <defs>
        <linearGradient x1="-1.11022302e-14%" y1="50%" x2="100%" y2="50%" id="linearGradient-1">
            <stop stop-color="#FFE074" offset="0%"></stop>
            <stop stop-color="#FEC502" offset="100%"></stop>
        </linearGradient>
    </defs>
    <g id="Illustration" stroke="none" stroke-width="1" fill="none" fill-rule="evenodd">
        <g id="ill" transform="translate(-720.000000, -148.000000)">
            <g id="Group-2" transform="translate(109.000000, 90.000000)">
                <g id="Group-16" transform="translate(611.000000, 58.000000)">
                    <path d="M0.00588908734,59.708874 C-0.00196302911,92.6833215 -0.00196302911,109.469267 0.00588908734,110.06671 C0.0175330071,110.95266 0.607925784,111.837406 1.7760846,112.512137 L163.503394,205.980568 C165.85818,207.341812 169.657835,207.337808 171.991623,205.980568 L269.24279,149.40786 C270.380243,148.745873 270.962131,147.883216 270.986949,147.015149 C271.00435,146.406479 271.00435,129.649004 270.986949,96.7427233 L107.487482,51.0179304 C106.311589,50.3393101 104.773729,50 103.236869,50 C101.700008,50 100.165148,50.3393101 98.9982536,51.0179304 L0.00588908734,59.708874 Z" id="Clip-11" fill="url(#linearGradient-1)"></path>
                    <path d="M98.9990922,1.0179304 L1.74248908,57.5906384 C-0.5914534,58.9478789 -0.579453696,61.1548961 1.77048839,62.5121367 L163.508502,155.980568 C165.863444,157.341812 169.663351,157.337808 171.997293,155.980568 L269.254896,99.4078597 C271.588839,98.0496183 271.583839,95.8466047 269.226897,94.4853605 L107.488883,1.0179304 C106.312912,0.339310133 104.77495,0 103.237988,0 C101.701026,0 100.166063,0.339310133 98.9990922,1.0179304" id="Clip-11" fill="#FFE074"></path>
                    <path d="M99.856047,16.6798415 C100.635362,16.2266138 101.656156,16 102.678945,16 C103.700736,16 104.724523,16.2266138 105.508827,16.6798415 L163.553353,50.2067092 C165.113979,51.1081731 165.12296,52.5736757 163.565327,53.4781345 L98.8661868,91.0950325 C97.314541,91.9974946 94.7880026,91.9974946 93.2263783,91.0950325 L35.1818529,57.5681648 C33.6142416,56.6617094 33.6062588,55.1972051 35.1569068,54.2957412 L99.856047,16.6798415 Z M170.676954,62.4728069 C171.840439,61.7959603 173.368136,61.4585353 174.89783,61.4585353 C176.431514,61.4585353 177.968192,61.7979569 179.142654,62.4758018 L232.229895,93.1395485 C234.574826,94.4952383 234.593785,96.6914957 232.263822,98.0451889 L230.85387,98.8657905 C228.523906,100.220482 224.733101,100.217487 222.38817,98.8627956 L169.300928,68.1980506 C166.955997,66.8433591 166.937038,64.6471017 169.266004,63.2924102 L170.676954,62.4728069 Z M113.712094,95.5923687 C114.875579,94.9165204 116.403277,94.5780971 117.931972,94.5780971 C119.467653,94.5780971 121.003333,94.9175187 122.177794,95.5953636 L175.265036,126.260109 C177.609967,127.613802 177.628926,129.811058 175.29996,131.165749 L173.888013,131.986351 C171.559047,133.340044 167.767244,133.337049 165.422313,131.982357 L112.335071,101.317612 C109.99014,99.9639192 109.971181,97.7666635 112.301145,96.411972 L113.712094,95.5923687 Z M150.986519,73.9212978 C152.149006,73.2444512 153.677701,72.9060279 155.208392,72.9060279 C156.742077,72.9060279 158.277757,73.2464478 159.45122,73.9242927 L198.38406,96.411972 C200.727993,97.7656652 200.746952,99.9629209 198.417986,101.316614 L197.006038,102.138214 C194.677073,103.491907 190.886268,103.488912 188.541337,102.134221 L149.609495,79.6465416 C147.264564,78.2928484 147.244607,76.0955926 149.575569,74.7409011 L150.986519,73.9212978 Z" id="Combined-Shape" fill="#FEC502"></path>
                </g>
            </g>
        </g>
    </g>
</svg>