<?xml version="1.0" encoding="UTF-8"?>
<svg width="149px" height="141px" viewBox="0 0 149 141" version="1.1" xmlns="http://www.w3.org/2000/svg" xmlns:xlink="http://www.w3.org/1999/xlink">
    <!-- Generator: sketchtool 50.2 (55047) - http://www.bohemiancoding.com/sketch -->
    <title>DC47AB09-6394-49C9-953F-ACF477A746E8</title>
    <desc>Created with sketchtool.</desc>
    <defs>
        <polygon id="path-1" points="14.0960465 8.19156788 148.883 8.19156788 148.883 126.242814 14.0960465 126.242814"></polygon>
        <path d="M87.0380295,60.16 C87.9530295,59.632 88.8180295,59.382 89.5850295,59.382 C91.4440295,59.382 92.7250295,60.855 92.7320295,63.406 C92.7420295,67.007 90.2110295,71.395 87.0740295,73.205 C83.9390295,75.014 81.3910295,73.562 81.3800295,69.959 C81.3700295,66.358 83.9020295,61.97 87.0380295,60.16 Z M58.6580295,76.546 C59.5730295,76.017 60.4380295,75.767 61.2050295,75.767 C63.0650295,75.767 64.3450295,77.24 64.3530295,79.79 C64.3630295,83.393 61.8300295,87.779 58.6940295,89.589 C55.5600295,91.4 53.0110295,89.947 53.0000295,86.344 C52.9900295,82.743 55.5240295,78.356 58.6580295,76.546 Z M115.411029,43.778 C116.326029,43.25 117.191029,43 117.958029,43 C119.818029,43 121.099029,44.473 121.106029,47.024 C121.116029,50.626 118.583029,55.013 115.448029,56.824 C112.314029,58.633 109.764029,57.18 109.754029,53.578 C109.743029,49.976 112.277029,45.589 115.411029,43.778 Z" id="path-3"></path>
    </defs>
    <g id="Illustration" stroke="none" stroke-width="1" fill="none" fill-rule="evenodd">
        <g id="ill" transform="translate(-548.000000, -113.000000)">
            <g id="Group-2" transform="translate(109.000000, 90.000000)">
                <g id="Group-8" transform="translate(439.000000, 23.000000)">
                    <path d="M143.962044,78.1729228 C146.488273,79.6313011 147.731861,81.5082768 147.75993,83.4157625 C147.770913,85.313485 146.530987,87.2209707 144.037709,88.6695859 L58.9025826,138.145835 C53.9001617,141.051608 45.7808383,141.043066 40.7454666,138.134852 C38.2546296,136.696 37.0110417,134.798277 37.0000581,132.901775 C36.9902949,131.004053 38.2119156,129.10633 40.7051934,127.658935 L125.857405,78.1729228 C130.842741,75.2756924 138.944978,75.2756924 143.962044,78.1729228" id="Fill-1" fill-opacity="0.05" fill="#000000"></path>
                    <path d="M28.2877547,48.9427643 L106.321,3.8902 C114.204156,-0.660509263 121.348057,-1.08346717 126.508,1.9145 L140.604,10.1065 C135.445,7.1075 128.3,7.5305 120.417,12.0825 L42.383,57.1342 L40.6118,56.104979 L42.3833,57.1345 C26.7093,66.1835 28.2363,86.989 28.2873,105 C28.3383,123.011 17.2783,121.3685 22.3713,124.3285 L8.2753,116.1365 C3.1833,113.1775 0.0253,106.8845 0.0003,97.9385 C-0.0507,79.9275 12.6133,57.9925 28.2873,48.9425 Z" id="Combined-Shape" fill="#83B5E3"></path>
                    <mask id="mask-2" fill="white">
                        <use xlink:href="#path-1"></use>
                    </mask>
                    <g id="Clip-9"></g>
                    <path d="M120.4172,12.0824 C136.0842,3.0364 148.8312,10.3004 148.8832,28.3114 C148.9342,46.3214 136.2702,68.2504 120.6022,77.2954 L116.3432,79.7544 L116.3952,98.0954 L96.4802,91.2224 L42.5682,122.3484 C26.8942,131.3974 14.1462,124.1414 14.0962,106.1304 C14.0452,88.1194 26.7092,66.1844 42.3832,57.1344 L120.4172,12.0824 Z" id="Fill-8" fill="#71A5D5" mask="url(#mask-2)"></path>
                    <mask id="mask-4" fill="white">
                        <use xlink:href="#path-3"></use>
                    </mask>
                    <use id="Combined-Shape" fill="#FFFFFF" xlink:href="#path-3"></use>
                </g>
            </g>
        </g>
    </g>
</svg>