<svg xmlns="http://www.w3.org/2000/svg" width="60" height="98"><title>2D66C9EA-3A90-433C-98B8-5E85F227A6E4</title><desc>Created with sketchtool.</desc><g fill="none"><g><g><g transform="translate(0 0)"><g><path fill="#9c3" d="M26 7.5C39.53 15.3 53.54 35.45 53.5 51c-.02 7.2-6.87 13.84-10.74 16.6-4.5 3.2-11.05 3.06-18.33-1.14C10.9 58.64-.04 39.7 0 24.16c.02-8.13 3.03-13.72 7.83-16.1C12.23 5.9 20.53 2.76 27 6.5l-1 1z"/><path id="Combined-Shape" fill="#86B626" d="M59.26 46.5c-.02 7.7-2.75 13.15-7.14 15.7l-10.26 5.96c4.4-2.55 7.13-8 7.15-15.7.06-15.57-10.88-34.5-24.42-42.32-6.8-3.93-12.98-4.3-17.43-1.7L17.4 2.46c4.46-2.6 10.63-2.22 17.44 1.7C48.37 12 59.3 30.94 59.26 46.5z"/><path fill="#89BA28" d="M25.96 26.15L25 25.6v-4.17l2.57-1.5v4.17l-2.24 1.3 2.24-1.3.96.56c3.74 2.16 6.75 7.5 6.74 11.94 0 .54-.2.93-.5 1.1l-2.55 1.5c.3-.18.5-.57.5-1.1 0-4.44-3.02-9.8-6.76-11.95zM21.13 23l2.24-1.32.97.56-2.57 1.5-.96-.57c-1.83-1.06-3.5-1.15-4.74-.44l2.57-1.5c1.22-.7 2.9-.6 4.74.45l-2.24 1.3zm6.67 26.43l.66-.4c.97.58 1.86.62 2.5.25l-2.56 1.5c-.65.36-1.53.32-2.5-.25l-5.16-2.97 2.56-1.5 5.16 2.98-.66.4zm-.82 8.2l-2.57 1.5c.32-.18.5-.57.5-1.1l2.57-1.5c0 .54-.2.93-.5 1.1zm-2.06-3.77l2.56-1.5v4.17l-2.57 1.5.02-4.17zM14.47 38.38l2.56-1.5c.3-.16.7-.14 1.13.1.9.53 1.6 1.8 1.6 2.87 0 2.3 1.58 5.08 3.54 6.22l-2.56 1.5c-1.96-1.15-3.55-3.93-3.54-6.23 0-1.06-.7-2.35-1.6-2.86-.44-.25-.84-.27-1.13-.1zM18.3 26.8l2.56-1.48c-.65.37-1.06 1.2-1.06 2.34 0 2.3 1.58 5.08 3.54 6.22l-2.56 1.48c-1.97-1.13-3.55-3.9-3.54-6.2 0-1.16.4-1.98 1.06-2.36zm2.48 8.57l2.56-1.5 5.15 2.98-2.57 1.5-5.15-2.98zm12.4 18l-2.56 1.5c1.26-.75 2.05-2.34 2.06-4.6 0-4.42-3-9.77-6.75-11.93l2.56-1.5c3.73 2.17 6.75 7.52 6.74 11.95 0 2.25-.8 3.83-2.06 4.57zm-10.9-34.9l2.56-1.5c.3-.17.7-.15 1.13.1l-2.56 1.5c-.43-.26-.83-.28-1.12-.1zm1.13.1l2.57-1.5c.88.5 1.6 1.8 1.6 2.87L25 21.44c.02-1.08-.7-2.37-1.6-2.88z"/><path fill="#CEF978" d="M23.4 18.56c.9.5 1.62 1.8 1.6 2.87v4.16l.97.55c3.73 2.16 6.75 7.5 6.74 11.94 0 1.05-.72 1.5-1.6 1-.9-.52-1.6-1.8-1.6-2.87 0-2.3-1.58-5.08-3.55-6.2l-5.15-3c-1.96-1.12-3.56-.17-3.57 2.12 0 2.3 1.58 5.08 3.55 6.2l5.15 3c3.74 2.15 6.76 7.5 6.74 11.93 0 4.44-3.05 6.3-6.78 4.13l-.98-.54v4.16c0 1.07-.75 1.5-1.63 1-.9-.5-1.62-1.8-1.62-2.86V52l-.95-.56c-3.74-2.16-6.77-7.52-6.76-11.96 0-1.07.74-1.5 1.62-1 .9.5 1.6 1.8 1.6 2.86 0 2.3 1.58 5.08 3.54 6.22l5.16 2.97c1.96 1.14 3.55.2 3.56-2.1 0-2.3-1.58-5.1-3.54-6.22l-5.15-2.97C17.03 37.08 14 31.73 14 27.3c.02-4.44 3.07-6.28 6.8-4.13l.97.56.02-4.16c0-1.07.7-1.52 1.6-1"/></g><ellipse cx="32" cy="90" fill="#000" fill-opacity=".05" transform="rotate(14 32 90)" rx="18" ry="6"/></g></g></g></g></svg>