<svg xmlns="http://www.w3.org/2000/svg" width="64" height="80" xmlns:xlink="http://www.w3.org/1999/xlink"><title>D1EAC14D-9A1A-4AFB-A43F-2BF09581E8F4</title><desc>Created with sketchtool.</desc><defs><linearGradient id="b" x1="0%" y1="50%" y2="50%"><stop stop-color="#DBE2EA" offset="0%"/><stop stop-color="#D3D9E1" offset="100%"/></linearGradient><path id="a" d="M59.08 50.46C59.08 57.94 45.85 64 29.54 64 13.22 64 0 57.94 0 50.46V0h59.08v50.46z"/></defs><g fill="none"><g><g><g transform="translate(0 0)"><g id="Oval-3" transform="translate(1.231 16)"><mask id="c"><use xlink:href="#a"/></mask><use fill="url(#b)" xlink:href="#a"/><path fill="#ACB2C7" d="M29.54 22.15c17 0 30.77-7.16 30.77-16 0-.77 0-2.4 0-4.92C49.64-6.15 39.4-9.85 29.55-9.85c-9.36 0-19.62 3.7-30.77 11.08 0 2.26 0 3.9 0 4.92 0 8.84 13.78 16 30.77 16z" mask="url(#c)"/></g><path id="Oval-3" fill="#C4CCD8" d="M30.77 36.92c17 0 30.77-7.16 30.77-16 0-.77 0-2.4 0-4.92C50.86 8.62 40.6 4.92 30.77 4.92 21.4 4.92 11.15 8.62 0 16c0 2.26 0 3.9 0 4.92 0 8.84 13.78 16 30.77 16z"/><ellipse id="Oval-3" cx="30.769" cy="16" fill="#DBE2EA" rx="30.769" ry="16"/><ellipse cx="30.769" cy="15.385" fill="#9EA6BA" rx="28.308" ry="12.923"/><path fill="#FEC502" d="M4.6 20.3c4.23-4.7 14.35-8 26.17-8 11.8 0 21.94 3.3 26.18 8-4.24 4.7-14.37 8-26.18 8-11.82 0-21.94-3.3-26.18-8zM24.04 72.26c-13.07-1.4-22.8-6.77-22.8-13.18v-28.3C1.88 36.6 11.38 41.43 24 42.73c0 .76.04 28.76.04 29.52z"/><path stroke="#969696" d="M16 33.23C35.25 51.5 49.82 57.86 59.7 52.3c4.3-2.42 4.37-7.05.2-13.9"/></g></g></g></g></svg>