<?xml version="1.0" encoding="UTF-8"?>
<svg width="636px" height="383px" viewBox="0 0 636 383" version="1.1" xmlns="http://www.w3.org/2000/svg" xmlns:xlink="http://www.w3.org/1999/xlink">
    <!-- Generator: sketchtool 50.2 (55047) - http://www.bohemiancoding.com/sketch -->
    <title>4C72D064-14C2-4B10-B06B-354E7B031635</title>
    <desc>Created with sketchtool.</desc>
    <defs>
        <linearGradient x1="-1.11022302e-14%" y1="50%" x2="100%" y2="50%" id="linearGradient-1">
            <stop stop-color="#7C7B7B" offset="0%"></stop>
            <stop stop-color="#464545" offset="100%"></stop>
        </linearGradient>
        <linearGradient x1="50%" y1="0%" x2="61.4656451%" y2="47.418232%" id="linearGradient-2">
            <stop stop-color="#979696" offset="0%"></stop>
            <stop stop-color="#5E5D5D" offset="100%"></stop>
        </linearGradient>
        <path d="M394.446,2.477 L3.283,229.796 C-0.606,232.056 -0.585,235.727 3.329,237.987 L187.775,344.477 C191.695,346.74 198.027,346.737 201.915,344.477 L593.079,117.157 C596.974,114.894 596.952,111.231 593.033,108.966 L408.587,2.477 C406.629,1.347 404.066,0.781 401.505,0.781 C398.948,0.781 396.392,1.346 394.446,2.477" id="path-3"></path>
        <filter x="-15.0%" y="-23.8%" width="130.0%" height="147.6%" filterUnits="objectBoundingBox" id="filter-5">
            <feGaussianBlur stdDeviation="13.6551339" in="SourceGraphic"></feGaussianBlur>
        </filter>
    </defs>
    <g id="Illustration" stroke="none" stroke-width="1" fill="none" fill-rule="evenodd">
        <g id="ill" transform="translate(-408.000000, -166.000000)">
            <g id="Group-2" transform="translate(109.000000, 90.000000)">
                <g id="Group-9" transform="translate(299.000000, 76.000000)">
                    <path d="M414.4,19.286 L9.142,254.796 C6.8331795,256.137792 3.92793425,255.539125 0.426264238,253 C0.428958061,261.146571 0.428958061,265.813902 0.426264238,267.001994 C0.416231779,271.426739 3.3052317,275.857578 9.085,279.256 L48.435,301.974 L179.688,377.753 C191.453,384.453 210.333,384.425 221.961,377.668 L627.22,142.157 C632.993568,138.801735 635.897544,134.416272 635.937368,130.019352 C635.951268,128.484711 635.951268,123.811594 635.937368,116 C631.966948,118.172747 629.015158,118.701081 627.082,117.585 L456.822,19.286 C450.948,15.895 443.264,14.198 435.588,14.198 C427.906,14.198 420.238,15.893 414.4,19.286 Z" id="Mask" fill="url(#linearGradient-1)"></path>
                    <path d="M435.582,0.198 C427.906,0.198 420.238,1.893 414.4,5.286 L9.142,240.796 C-2.471,247.545 -2.468,258.463 9.085,265.256 L48.435,287.974 L179.688,363.753 C191.453,370.453 210.333,370.425 221.961,363.668 L627.22,128.157 C638.897,121.371 638.836,110.371 627.082,103.585 L456.822,5.286 C450.948,1.895 443.264,0.198 435.588,0.198 C435.585,0.198 435.584,0.198 435.582,0.198" id="Clip-2" fill="url(#linearGradient-2)"></path>
                    <g id="Group" transform="translate(20.000000, 11.000000)">
                        <mask id="mask-4" fill="white">
                            <use xlink:href="#path-3"></use>
                        </mask>
                        <use id="Clip-5" fill="#FEFFFB" xlink:href="#path-3"></use>
                        <path d="M200.013,131.904 C201.179,131.226 202.715,130.886 204.252,130.886 C205.788,130.886 207.327,131.226 208.503,131.904 L370.245,225.286 C372.6,226.647 372.606,228.847 370.272,230.204 L280.06,282.629 C277.726,283.986 273.926,283.99 271.571,282.629 L109.827,189.247 C107.478,187.891 107.466,185.687 109.8,184.329 L200.013,131.904 Z M87.244,197.438 C88.411,196.76 89.946,196.421 91.483,196.421 C93.02,196.421 94.559,196.76 95.733,197.438 L158.162,233.481 C160.512,234.838 160.524,237.042 158.19,238.399 L110.268,266.248 C107.933,267.606 104.128,267.606 101.778,266.248 L39.348,230.205 C36.999,228.849 36.987,226.644 39.321,225.288 L87.244,197.438 Z M165.284,242.495 C166.452,241.815 167.988,241.475 169.525,241.475 C171.059,241.475 172.593,241.813 173.767,242.491 L257.476,290.82 C259.831,292.18 259.838,294.381 257.504,295.738 L254.687,297.375 C252.352,298.731 248.553,298.734 246.198,297.375 L162.488,249.045 C160.139,247.688 160.133,245.488 162.467,244.132 L165.284,242.495 Z M151.199,252.124 C151.202,252.124 151.204,252.124 151.206,252.124 C152.737,252.124 154.268,252.463 155.441,253.141 L210.777,285.089 C213.127,286.445 213.146,288.645 210.805,290.006 L207.989,291.643 C205.654,292.999 201.848,292.999 199.499,291.643 L144.163,259.694 C141.813,258.337 141.807,256.138 144.142,254.781 L146.958,253.144 C148.129,252.464 149.664,252.124 151.199,252.124 Z M123,267.067 C125.724,265.484 129.302,264.692 132.883,264.692 C136.464,264.692 140.049,265.484 142.792,267.067 C148.276,270.233 148.311,275.368 142.863,278.535 C137.414,281.701 128.543,281.701 123.058,278.535 C117.574,275.368 117.551,270.233 123,267.067 Z M270.492,90.946 C271.658,90.269 273.194,89.929 274.731,89.929 C276.267,89.929 277.806,90.269 278.981,90.946 L341.41,126.99 C343.76,128.347 343.772,130.551 341.438,131.907 L293.516,159.757 C291.181,161.114 287.375,161.114 285.026,159.757 L222.596,123.714 C220.247,122.356 220.235,120.152 222.569,118.796 L270.492,90.946 Z M348.531,136.003 C349.699,135.324 351.235,134.983 352.773,134.983 C354.306,134.983 355.841,135.322 357.014,135.998 L440.723,184.328 C443.079,185.688 443.086,187.89 440.751,189.246 L437.934,190.882 C435.6,192.239 431.801,192.243 429.445,190.882 L345.736,142.553 C343.386,141.197 343.38,138.996 345.715,137.639 L348.531,136.003 Z M330.206,146.652 C331.374,145.973 332.91,145.633 334.448,145.633 C335.981,145.633 337.516,145.97 338.689,146.648 L394.025,178.596 C396.374,179.953 396.387,182.157 394.053,183.514 L391.236,185.151 C388.902,186.507 385.096,186.507 382.747,185.151 L327.41,153.202 C325.061,151.846 325.055,149.645 327.389,148.289 L330.206,146.652 Z M306.248,160.575 C308.971,158.992 312.549,158.201 316.13,158.201 C319.711,158.201 323.297,158.992 326.04,160.575 C331.524,163.741 331.559,168.876 326.11,172.043 C320.655,175.212 311.79,175.21 306.305,172.043 C300.821,168.876 300.793,163.746 306.248,160.575 Z" id="Combined-Shape" fill="#FFF3C8" mask="url(#mask-4)"></path>
                        <path d="M292.265263,108.708093 C291.069827,52.3058252 290.47606,24.4049853 290.483961,25.005573 C290.495678,25.8961857 291.089775,26.7855883 292.265263,27.4638699 L455.007267,121.42423 C457.376827,122.792638 461.200321,122.788613 463.548752,121.42423 L561.410082,64.5537769 C562.554672,63.8883064 563.14021,63.0211092 563.165184,62.1484729 C563.182695,61.5365999 563.182695,98.5217042 563.165184,173.103786 C511.286386,193.666356 473.094179,201.035023 448.588563,195.209787 C424.082947,189.38455 371.975181,160.550652 292.265263,108.708093 Z" id="Clip-11" fill="#FEC502" opacity="0.400000006" filter="url(#filter-5)" mask="url(#mask-4)"></path>
                    </g>
                </g>
            </g>
        </g>
    </g>
</svg>