<?xml version="1.0" encoding="UTF-8"?>
<svg width="636px" height="401px" viewBox="0 0 636 401" version="1.1" xmlns="http://www.w3.org/2000/svg" xmlns:xlink="http://www.w3.org/1999/xlink">
    <!-- Generator: sketchtool 50.2 (55047) - http://www.bohemiancoding.com/sketch -->
    <title>F6948419-06B0-4026-B09E-A549E7E45832</title>
    <desc>Created with sketchtool.</desc>
    <defs>
        <linearGradient x1="-1.11022302e-14%" y1="50%" x2="100%" y2="50%" id="linearGradient-1">
            <stop stop-color="#7C7B7B" offset="0%"></stop>
            <stop stop-color="#464545" offset="100%"></stop>
        </linearGradient>
        <linearGradient x1="50%" y1="0%" x2="61.4656451%" y2="47.418232%" id="linearGradient-2">
            <stop stop-color="#979696" offset="0%"></stop>
            <stop stop-color="#5E5D5D" offset="100%"></stop>
        </linearGradient>
        <path d="M394.446,2.477 L3.283,229.796 C-0.606,232.056 -0.585,235.727 3.329,237.987 L187.775,344.477 C191.695,346.74 198.027,346.737 201.915,344.477 L593.079,117.157 C596.974,114.894 596.952,111.231 593.033,108.966 L408.587,2.477 C406.629,1.347 404.066,0.781 401.505,0.781 C398.948,0.781 396.392,1.346 394.446,2.477" id="path-3"></path>
        <filter x="-15.0%" y="-23.8%" width="130.0%" height="147.6%" filterUnits="objectBoundingBox" id="filter-5">
            <feGaussianBlur stdDeviation="13.6551339" in="SourceGraphic"></feGaussianBlur>
        </filter>
        <linearGradient x1="-1.11022302e-14%" y1="50%" x2="100%" y2="50%" id="linearGradient-6">
            <stop stop-color="#FFE074" offset="0%"></stop>
            <stop stop-color="#FEC502" offset="100%"></stop>
        </linearGradient>
    </defs>
    <g id="Illustration" stroke="none" stroke-width="1" fill="none" fill-rule="evenodd">
        <g id="ill-copy-C-картинкой" transform="translate(-408.000000, -148.000000)">
            <g id="Group-2" transform="translate(109.000000, 90.000000)">
                <g id="Group-17" transform="translate(299.000000, 58.000000)">
                    <g id="Group-9" transform="translate(0.000000, 18.000000)">
                        <path d="M414.4,19.286 L9.142,254.796 C6.8331795,256.137792 3.92793425,255.539125 0.426264238,253 C0.428958061,261.146571 0.428958061,265.813902 0.426264238,267.001994 C0.416231779,271.426739 3.3052317,275.857578 9.085,279.256 L48.435,301.974 L179.688,377.753 C191.453,384.453 210.333,384.425 221.961,377.668 L627.22,142.157 C632.993568,138.801735 635.897544,134.416272 635.937368,130.019352 C635.951268,128.484711 635.951268,123.811594 635.937368,116 C631.966948,118.172747 629.015158,118.701081 627.082,117.585 L456.822,19.286 C450.948,15.895 443.264,14.198 435.588,14.198 C427.906,14.198 420.238,15.893 414.4,19.286 Z" id="Mask" fill="url(#linearGradient-1)"></path>
                        <path d="M435.582,0.198 C427.906,0.198 420.238,1.893 414.4,5.286 L9.142,240.796 C-2.471,247.545 -2.468,258.463 9.085,265.256 L48.435,287.974 L179.688,363.753 C191.453,370.453 210.333,370.425 221.961,363.668 L627.22,128.157 C638.897,121.371 638.836,110.371 627.082,103.585 L456.822,5.286 C450.948,1.895 443.264,0.198 435.588,0.198 C435.585,0.198 435.584,0.198 435.582,0.198" id="Clip-2" fill="url(#linearGradient-2)"></path>
                        <g id="Group" transform="translate(20.000000, 11.000000)">
                            <mask id="mask-4" fill="white">
                                <use xlink:href="#path-3"></use>
                            </mask>
                            <use id="Clip-5" fill="#FEFFFB" xlink:href="#path-3"></use>
                            <path d="M200.013,131.904 C201.179,131.226 202.715,130.886 204.252,130.886 C205.788,130.886 207.327,131.226 208.503,131.904 L370.245,225.286 C372.6,226.647 372.606,228.847 370.272,230.204 L280.06,282.629 C277.726,283.986 273.926,283.99 271.571,282.629 L109.827,189.247 C107.478,187.891 107.466,185.687 109.8,184.329 L200.013,131.904 Z M87.244,197.438 C88.411,196.76 89.946,196.421 91.483,196.421 C93.02,196.421 94.559,196.76 95.733,197.438 L158.162,233.481 C160.512,234.838 160.524,237.042 158.19,238.399 L110.268,266.248 C107.933,267.606 104.128,267.606 101.778,266.248 L39.348,230.205 C36.999,228.849 36.987,226.644 39.321,225.288 L87.244,197.438 Z M165.284,242.495 C166.452,241.815 167.988,241.475 169.525,241.475 C171.059,241.475 172.593,241.813 173.767,242.491 L257.476,290.82 C259.831,292.18 259.838,294.381 257.504,295.738 L254.687,297.375 C252.352,298.731 248.553,298.734 246.198,297.375 L162.488,249.045 C160.139,247.688 160.133,245.488 162.467,244.132 L165.284,242.495 Z M151.199,252.124 C151.202,252.124 151.204,252.124 151.206,252.124 C152.737,252.124 154.268,252.463 155.441,253.141 L210.777,285.089 C213.127,286.445 213.146,288.645 210.805,290.006 L207.989,291.643 C205.654,292.999 201.848,292.999 199.499,291.643 L144.163,259.694 C141.813,258.337 141.807,256.138 144.142,254.781 L146.958,253.144 C148.129,252.464 149.664,252.124 151.199,252.124 Z M123,267.067 C125.724,265.484 129.302,264.692 132.883,264.692 C136.464,264.692 140.049,265.484 142.792,267.067 C148.276,270.233 148.311,275.368 142.863,278.535 C137.414,281.701 128.543,281.701 123.058,278.535 C117.574,275.368 117.551,270.233 123,267.067 Z M270.492,90.946 C271.658,90.269 273.194,89.929 274.731,89.929 C276.267,89.929 277.806,90.269 278.981,90.946 L341.41,126.99 C343.76,128.347 343.772,130.551 341.438,131.907 L293.516,159.757 C291.181,161.114 287.375,161.114 285.026,159.757 L222.596,123.714 C220.247,122.356 220.235,120.152 222.569,118.796 L270.492,90.946 Z M348.531,136.003 C349.699,135.324 351.235,134.983 352.773,134.983 C354.306,134.983 355.841,135.322 357.014,135.998 L440.723,184.328 C443.079,185.688 443.086,187.89 440.751,189.246 L437.934,190.882 C435.6,192.239 431.801,192.243 429.445,190.882 L345.736,142.553 C343.386,141.197 343.38,138.996 345.715,137.639 L348.531,136.003 Z M330.206,146.652 C331.374,145.973 332.91,145.633 334.448,145.633 C335.981,145.633 337.516,145.97 338.689,146.648 L394.025,178.596 C396.374,179.953 396.387,182.157 394.053,183.514 L391.236,185.151 C388.902,186.507 385.096,186.507 382.747,185.151 L327.41,153.202 C325.061,151.846 325.055,149.645 327.389,148.289 L330.206,146.652 Z M306.248,160.575 C308.971,158.992 312.549,158.201 316.13,158.201 C319.711,158.201 323.297,158.992 326.04,160.575 C331.524,163.741 331.559,168.876 326.11,172.043 C320.655,175.212 311.79,175.21 306.305,172.043 C300.821,168.876 300.793,163.746 306.248,160.575 Z" id="Combined-Shape" fill="#FFF3C8" mask="url(#mask-4)"></path>
                            <path d="M292.265263,108.708093 C291.069827,52.3058252 290.47606,24.4049853 290.483961,25.005573 C290.495678,25.8961857 291.089775,26.7855883 292.265263,27.4638699 L455.007267,121.42423 C457.376827,122.792638 461.200321,122.788613 463.548752,121.42423 L561.410082,64.5537769 C562.554672,63.8883064 563.14021,63.0211092 563.165184,62.1484729 C563.182695,61.5365999 563.182695,98.5217042 563.165184,173.103786 C511.286386,193.666356 473.094179,201.035023 448.588563,195.209787 C424.082947,189.38455 371.975181,160.550652 292.265263,108.708093 Z" id="Clip-11" fill="#FEC502" opacity="0.400000006" filter="url(#filter-5)" mask="url(#mask-4)"></path>
                        </g>
                    </g>
                    <g id="Group-16" transform="translate(312.000000, 0.000000)">
                        <path d="M0.00588908734,59.708874 C-0.00196302911,92.6833215 -0.00196302911,109.469267 0.00588908734,110.06671 C0.0175330071,110.95266 0.607925784,111.837406 1.7760846,112.512137 L163.503394,205.980568 C165.85818,207.341812 169.657835,207.337808 171.991623,205.980568 L269.24279,149.40786 C270.380243,148.745873 270.962131,147.883216 270.986949,147.015149 C271.00435,146.406479 271.00435,129.649004 270.986949,96.7427233 L107.487482,51.0179304 C106.311589,50.3393101 104.773729,50 103.236869,50 C101.700008,50 100.165148,50.3393101 98.9982536,51.0179304 L0.00588908734,59.708874 Z" id="Clip-11" fill="url(#linearGradient-6)"></path>
                        <path d="M98.9990922,1.0179304 L1.74248908,57.5906384 C-0.5914534,58.9478789 -0.579453696,61.1548961 1.77048839,62.5121367 L163.508502,155.980568 C165.863444,157.341812 169.663351,157.337808 171.997293,155.980568 L269.254896,99.4078597 C271.588839,98.0496183 271.583839,95.8466047 269.226897,94.4853605 L107.488883,1.0179304 C106.312912,0.339310133 104.77495,0 103.237988,0 C101.701026,0 100.166063,0.339310133 98.9990922,1.0179304" id="Clip-11" fill="#FFE074"></path>
                        <path d="M99.856047,16.6798415 C100.635362,16.2266138 101.656156,16 102.678945,16 C103.700736,16 104.724523,16.2266138 105.508827,16.6798415 L163.553353,50.2067092 C165.113979,51.1081731 165.12296,52.5736757 163.565327,53.4781345 L98.8661868,91.0950325 C97.314541,91.9974946 94.7880026,91.9974946 93.2263783,91.0950325 L35.1818529,57.5681648 C33.6142416,56.6617094 33.6062588,55.1972051 35.1569068,54.2957412 L99.856047,16.6798415 Z M170.676954,62.4728069 C171.840439,61.7959603 173.368136,61.4585353 174.89783,61.4585353 C176.431514,61.4585353 177.968192,61.7979569 179.142654,62.4758018 L232.229895,93.1395485 C234.574826,94.4952383 234.593785,96.6914957 232.263822,98.0451889 L230.85387,98.8657905 C228.523906,100.220482 224.733101,100.217487 222.38817,98.8627956 L169.300928,68.1980506 C166.955997,66.8433591 166.937038,64.6471017 169.266004,63.2924102 L170.676954,62.4728069 Z M113.712094,95.5923687 C114.875579,94.9165204 116.403277,94.5780971 117.931972,94.5780971 C119.467653,94.5780971 121.003333,94.9175187 122.177794,95.5953636 L175.265036,126.260109 C177.609967,127.613802 177.628926,129.811058 175.29996,131.165749 L173.888013,131.986351 C171.559047,133.340044 167.767244,133.337049 165.422313,131.982357 L112.335071,101.317612 C109.99014,99.9639192 109.971181,97.7666635 112.301145,96.411972 L113.712094,95.5923687 Z M150.986519,73.9212978 C152.149006,73.2444512 153.677701,72.9060279 155.208392,72.9060279 C156.742077,72.9060279 158.277757,73.2464478 159.45122,73.9242927 L198.38406,96.411972 C200.727993,97.7656652 200.746952,99.9629209 198.417986,101.316614 L197.006038,102.138214 C194.677073,103.491907 190.886268,103.488912 188.541337,102.134221 L149.609495,79.6465416 C147.264564,78.2928484 147.244607,76.0955926 149.575569,74.7409011 L150.986519,73.9212978 Z" id="Combined-Shape" fill="#FEC502"></path>
                    </g>
                    <g id="Group-11" transform="translate(348.000000, 55.000000)">
                        <path d="M20.4444444,145 C19.4444444,148 20.4444444,151 20.4444444,151 C20.4444444,151 24.4444444,153 28.4444444,150 C32.4444444,147 34.4444444,149 37.4444444,146 C40.4444444,143 39.4444444,142 36.4444444,142 C33.4444444,142 29.6279164,143 27.4444444,143 C25.2609725,143 21.4444444,142 20.4444444,145 Z" id="Path-15" fill="#222222"></path>
                        <path d="M8.44444444,137 C7.44444444,140 8.44444444,143 8.44444444,143 C8.44444444,143 12.4444444,145 16.4444444,142 C20.4444444,139 22.4444444,141 25.4444444,138 C28.4444444,135 27.4444444,134 24.4444444,134 C21.4444444,134 17.6279164,135 15.4444444,135 C13.2609725,135 9.44444444,134 8.44444444,137 Z" id="Path-15-Copy" fill="#222222"></path>
                        <path d="M4.1322314,75.7647059 C3.1322314,83.7647059 8.1322314,101.764706 8.1322314,105.764706 C8.1322314,109.764706 8.1322314,106.764706 8.1322314,120.764706 C8.1322314,123.239117 8.1322314,126.041021 8.1322314,128 C8.1322314,131.620116 8.4214876,134.620116 9,137 C11,138.333333 13,138.588235 15,137.764706 C15.4790633,137.567445 15.8264588,135.867706 16,135 C17,130 18.1322314,118.764706 19.1322314,116.764706 C20.1322314,114.764706 20.1322314,121.764706 19.1322314,126.764706 C18.1322314,131.764706 20.1322314,143.764706 21.1322314,144.764706 C22.1322314,145.764706 27.1322314,145.764706 27.1322314,144.764706 C27.1322314,143.764706 28.1322314,125.764706 30.1322314,120.764706 C32.1322314,115.764706 32.1322314,105.764706 32.1322314,98.7647059 C32.1322314,94.0980392 31.4655647,86.7647059 30.1322314,76.7647059 C13.4655647,70.7647059 4.79889807,70.4313725 4.1322314,75.7647059 Z" id="Path-9" fill="#706E4F"></path>
                        <path d="M29,60 C26,54 32.2762346,53 36,53 C39.7237654,53 41,60 43,60 C45,60 52,49 52,47 C52,45 54,41 54,43 C54,45 59,40 59,42 C59,44 60,45 59,48 C58,51 55,49 53,57 C48,67 44,70 41,70 C38,70 32,66 29,60 Z M0,41 C0,37.6666667 3.33333333,38.3333333 10,43 C8.66666667,48.3333333 7,51 5,51 C2,51 0,46 0,41 Z M11,29 C14,28 15,29 15,27 C15,25 14,22 12.5,20 C11,18 9.5,14 11,9 C12.5,4 25,1 27,6 C29,11 31,17 31,19 C31,21 32,27 28,27 C24,27 25,29 25,31 C25,32.3333333 26.6666667,35 30,39 L17,41 C11,33.6666667 9,29.6666667 11,29 Z" id="Combined-Shape" fill="#FFC1AF"></path>
                        <path d="M30.5522847,80.5 C22.5522847,82.5 15.8856181,82.1666667 10.5522847,79.5 C5.21895142,76.8333333 2.88561808,75.1666667 3.55228475,74.5 C4.21895142,57.1666667 4.21895142,48.1666667 3.55228475,47.5 C2.55228475,46.5 -1.44771525,41.5 0.55228475,36.5 C2.55228475,31.5 4.55228475,29.5 7.55228475,28.5 C9.55228475,27.8333333 11.5522847,27.8333333 13.5522847,28.5 C13.1840949,31.5 13.6666667,33.5 15,34.5 C17,36 22.5522847,37.5 24.5522847,36.5 C25.8856181,35.8333333 26.5522847,35.1666667 26.5522847,34.5 C29.8856181,36.5 32.2189514,38.5 33.5522847,40.5 C35.5522847,43.5 37.5522847,54.2857143 39.5522847,54.8928571 C40.8856181,55.297619 39.8856181,57.1666667 36.5522847,60.5 L31.5522847,64.5 L30.5522847,63.5 L30.5522847,80.5 Z" id="Path-10" fill="#FFFFFF"></path>
                        <path d="M14,23 C15,23 18,23 20,21 C22,19 20,15 22,15 C24,15 24,17 25,17 C26,17 25,14 24,12 C23,10 22,11 24,9 C26,7 30,7 27,4 C24,1 15,1 12,5 C9,9 9,17 11,19 C13,21 13,23 14,23 Z" id="Path-14" fill="#222222"></path>
                    </g>
                </g>
            </g>
        </g>
    </g>
</svg>