<?xml version="1.0" encoding="UTF-8"?>
<svg width="345px" height="249px" viewBox="0 0 345 249" version="1.1" xmlns="http://www.w3.org/2000/svg" xmlns:xlink="http://www.w3.org/1999/xlink">
    <!-- Generator: Sketch 51.2 (57519) - http://www.bohemiancoding.com/sketch -->
    <title>Illustration</title>
    <desc>Created with Sketch.</desc>
    <defs>
        <polygon id="path-1" points="7.51643901 4.36799215 79.3889258 4.36799215 79.3889258 67.3164929 7.51643901 67.3164929"></polygon>
        <path d="M46.411314,32.0791345 C46.8992197,31.7975889 47.360464,31.6642813 47.7694516,31.6642813 C48.7607267,31.6642813 49.4437947,32.4497295 49.4475273,33.81 C49.4528596,35.7301623 48.1032537,38.0699768 46.4305103,39.0351236 C44.7588333,39.9997372 43.4001626,39.2254869 43.394297,37.3042581 C43.3889647,35.3840958 44.7391038,33.0442813 46.411314,32.0791345 Z M31.2782383,40.8166461 C31.766144,40.5345672 32.2273882,40.4012597 32.6363759,40.4012597 C33.6281842,40.4012597 34.310719,41.1867079 34.3149848,42.5464451 C34.3203171,44.4676739 32.9696448,46.8064219 31.2974346,47.7715688 C29.6262908,48.7372488 28.2670868,47.9624652 28.2612213,46.0412365 C28.255889,44.1210742 29.6070946,41.7817929 31.2782383,40.8166461 Z M61.5406572,23.3437558 C62.0285629,23.0622102 62.4898071,22.9289026 62.8987947,22.9289026 C63.8906031,22.9289026 64.5736711,23.7143509 64.5774037,25.0746213 C64.582736,26.9953168 63.2320636,29.3345981 61.5603867,30.3002782 C59.8892429,31.2648918 58.5295057,30.4901082 58.5241734,28.5694127 C58.5183078,26.6487172 59.8695134,24.3094359 61.5406572,23.3437558 Z" id="path-3"></path>
        <linearGradient x1="-1.11022302e-14%" y1="50%" x2="100%" y2="50%" id="linearGradient-5">
            <stop stop-color="#7C7B7B" offset="0%"></stop>
            <stop stop-color="#464545" offset="100%"></stop>
        </linearGradient>
        <linearGradient x1="50%" y1="0%" x2="61.4656451%" y2="47.418232%" id="linearGradient-6">
            <stop stop-color="#979696" offset="0%"></stop>
            <stop stop-color="#5E5D5D" offset="100%"></stop>
        </linearGradient>
        <path d="M210.330556,1.32081144 L1.75059505,122.534189 C-0.323137558,123.739289 -0.311939722,125.696777 1.77512365,126.901878 L100.127318,183.685572 C102.217581,184.892272 105.593995,184.890672 107.667195,183.685572 L316.247689,62.4716615 C318.324621,61.2649614 318.31289,59.3117388 316.223161,58.1039722 L217.870966,1.32081144 C216.826901,0.718261206 215.460232,0.416452859 214.094629,0.416452859 C212.731159,0.416452859 211.368223,0.717727975 210.330556,1.32081144" id="path-7"></path>
        <filter x="-28.2%" y="-44.6%" width="156.3%" height="189.3%" filterUnits="objectBoundingBox" id="filter-9">
            <feGaussianBlur stdDeviation="13.6551339" in="SourceGraphic"></feGaussianBlur>
        </filter>
        <linearGradient x1="-1.11022302e-14%" y1="50%" x2="100%" y2="50%" id="linearGradient-10">
            <stop stop-color="#FFE074" offset="0%"></stop>
            <stop stop-color="#FEC502" offset="100%"></stop>
        </linearGradient>
        <linearGradient x1="-1.11022302e-14%" y1="50%" x2="100%" y2="50%" id="linearGradient-11">
            <stop stop-color="#DBE2EA" offset="0%"></stop>
            <stop stop-color="#D3D9E1" offset="100%"></stop>
        </linearGradient>
        <path d="M31.501605,26.907621 C31.501605,30.8946297 24.4497305,34.1267388 15.7508025,34.1267388 C7.05187449,34.1267388 0,30.8946297 0,26.907621 L0,0 L31.501605,0 L31.501605,26.907621 Z" id="path-12"></path>
        <polygon id="path-14" points="8.55685317 0.000106646059 0.304581144 4.79597991 15.4349907 13.5313586 23.687796 8.73601855 23.687796 8.73548532"></polygon>
        <path d="M0.524165379,1.24989181 L0.519899536,2.9887558 C1.62315301,2.1862442 3.47612828,1.87910355 5.14780526,2.20437403 L5.15260433,0.465510046 C4.71002318,0.379659969 4.25517774,0.338068006 3.80459815,0.338068006 C2.55310665,0.338068006 1.33627512,0.660139104 0.524165379,1.24989181" id="path-16"></path>
        <path d="M0.0410587326,2.18523107 C0.0725193199,2.31693895 0.288477589,2.40278903 0.511367852,2.40332226 L0.514567233,2.40332226 C0.570556414,2.40332226 0.627078825,2.39745672 0.680935085,2.38625889 L0.685734158,0.6473949 C0.416452859,0.705517002 0.085316847,0.61166847 0.0458578053,0.446900309" id="path-18"></path>
        <path d="M0.0410587326,2.18523107 C0.0725193199,2.31693895 0.288477589,2.40278903 0.511367852,2.40332226 L0.514567233,2.40332226 C0.570556414,2.40332226 0.627078825,2.39745672 0.680935085,2.38625889 L0.685734158,0.6473949 C0.416452859,0.705517002 0.085316847,0.61166847 0.0458578053,0.446900309" id="path-20"></path>
        <path d="M0.0410587326,2.18523107 C0.0725193199,2.31693895 0.288477589,2.40278903 0.511367852,2.40332226 L0.514567233,2.40332226 C0.570556414,2.40332226 0.627078825,2.39745672 0.680935085,2.38625889 L0.685734158,0.6473949 C0.416452859,0.705517002 0.085316847,0.61166847 0.0458578053,0.446900309" id="path-22"></path>
        <path d="M0.0410587326,2.18523107 C0.0725193199,2.31693895 0.288477589,2.40278903 0.511367852,2.40332226 L0.514567233,2.40332226 C0.570556414,2.40332226 0.627078825,2.39745672 0.680935085,2.38625889 L0.685734158,0.6473949 C0.416452859,0.705517002 0.085316847,0.61166847 0.0458578053,0.446900309" id="path-24"></path>
        <path d="M0.0410587326,2.18523107 C0.0725193199,2.31693895 0.288477589,2.40278903 0.511367852,2.40332226 L0.514567233,2.40332226 C0.570556414,2.40332226 0.627078825,2.39745672 0.680935085,2.38625889 L0.685734158,0.6473949 C0.416452859,0.705517002 0.085316847,0.61166847 0.0458578053,0.446900309" id="path-26"></path>
        <polygon id="path-28" points="0.504435858 4.99988717 0.500170015 6.73875116 8.75244204 1.9428779 8.75724111 0.362383308 8.75724111 0.204547141"></polygon>
        <polygon id="path-30" points="0.376715937 12.3439959 0.446110978 36.8323343 21.7575985 24.5283832 21.6882034 0.040044844"></polygon>
        <polygon id="path-32" points="0.0694851645 36.7922594 21.2421826 49.0965109 21.1727875 24.6081725 21.2421826 -2.27373675e-13 9.01234301e-05 12.303921"></polygon>
        <polygon id="path-34" points="21.311127 0 -6.00822866e-05 12.3039511 21.1726373 24.6082025 42.4841248 12.3042515"></polygon>
        <polygon id="path-36" points="21.0633853 10.1313067 9.75332641 13.0509425 14.0222348 13.6990617 12.0145117 15.9664458 18.0307936 14.4105465 19.9303821 10.5300963 21.586151 10.8055986"></polygon>
        <filter x="-16.9%" y="-17.1%" width="133.8%" height="168.6%" filterUnits="objectBoundingBox" id="filter-37">
            <feOffset dx="0" dy="1" in="SourceAlpha" result="shadowOffsetOuter1"></feOffset>
            <feGaussianBlur stdDeviation="0.5" in="shadowOffsetOuter1" result="shadowBlurOuter1"></feGaussianBlur>
            <feColorMatrix values="0 0 0 0 0.82745098   0 0 0 0 0.160784314   0 0 0 0 0.57254902  0 0 0 0.160722373 0" type="matrix" in="shadowBlurOuter1"></feColorMatrix>
        </filter>
        <polygon id="path-38" points="15.4835769 19.0356661 19.0740609 17.5555298 20.788374 19.9165847 24.1639662 13.0131854 20.5197593 12.4057028 18.8639903 12.1295117"></polygon>
        <filter x="-23.0%" y="-38.5%" width="146.1%" height="151.4%" filterUnits="objectBoundingBox" id="filter-39">
            <feOffset dx="0" dy="-1" in="SourceAlpha" result="shadowOffsetOuter1"></feOffset>
            <feGaussianBlur stdDeviation="0.5" in="shadowOffsetOuter1" result="shadowBlurOuter1"></feGaussianBlur>
            <feColorMatrix values="0 0 0 0 0.82745098   0 0 0 0 0.160784314   0 0 0 0 0.57254902  0 0 0 0.160722373 0" type="matrix" in="shadowBlurOuter1"></feColorMatrix>
        </filter>
        <linearGradient x1="47.9144775%" y1="2.74905916%" x2="81.3005193%" y2="59.2590023%" id="linearGradient-40">
            <stop stop-color="#FFF2FA" offset="0%"></stop>
            <stop stop-color="#ECC4DC" offset="62.817346%"></stop>
            <stop stop-color="#FDE1F2" offset="100%"></stop>
        </linearGradient>
        <polygon id="path-41" points="0.199878354 0.460022725 64.3476886 0.460022725 64.3476886 37.7595492 0.199878354 37.7595492"></polygon>
        <linearGradient x1="46.9383215%" y1="0%" x2="76.1521859%" y2="78.2576358%" id="linearGradient-43">
            <stop stop-color="#FFFFFF" offset="0%"></stop>
            <stop stop-color="#FFFFFF" offset="22.5121063%"></stop>
            <stop stop-color="#F6F6F6" offset="48.2826095%"></stop>
            <stop stop-color="#FFFFFF" offset="69.4087599%"></stop>
            <stop stop-color="#FFFFFF" offset="100%"></stop>
        </linearGradient>
    </defs>
    <g id="Page-1" stroke="none" stroke-width="1" fill="none" fill-rule="evenodd">
        <g id="Landing-mobile" transform="translate(-15.000000, -875.000000)">
            <g id="2-block" transform="translate(15.000000, 710.000000)">
                <g id="Illustration" transform="translate(0.000000, 165.000000)">
                    <g id="Group-8" transform="translate(74.652241, 0.000000)">
                        <path d="M76.764923,41.6841706 C78.1119847,42.4618221 78.7751034,43.4626824 78.7900708,44.4798116 C78.7959276,45.4917347 78.1347611,46.5088638 76.8052698,47.2813093 L31.4086414,73.6635443 C28.741199,75.2129906 24.4117299,75.2084353 21.7267171,73.6576875 C20.3985274,72.890448 19.7354086,71.8785249 19.7295518,70.8672526 C19.7243458,69.8553294 20.375751,68.8434063 21.7052422,68.0716116 L67.1109812,41.6841706 C69.769313,40.1392796 74.0896716,40.1392796 76.764923,41.6841706" id="Fill-1" fill-opacity="0.05" fill="#000000"></path>
                        <path d="M15.0838878,26.0977646 L56.6935781,2.07437249 C60.8971159,-0.352203549 64.7064598,-0.577737518 67.457898,1.0208694 L74.9743122,5.38909196 C72.2233771,3.78993431 68.4134467,4.01549073 64.2099923,6.44275502 L22.5998995,30.4656862 L21.655442,29.9168744 L22.6000595,30.4658462 C14.2422079,35.2910471 15.0564505,46.38517 15.0836453,55.9891808 C15.11084,65.5931917 9.21331298,64.7173609 11.9290549,66.2957226 L4.41264065,61.9275 C1.69743199,60.3496716 0.0134907264,56.9940533 0.000159969088,52.2237751 C-0.0270347759,42.6197643 6.72579366,30.9233578 15.0836453,26.0976236 Z" id="Combined-Shape" fill="#83B5E3"></path>
                        <mask id="mask-2" fill="white">
                            <use xlink:href="#path-1"></use>
                        </mask>
                        <g id="Clip-9"></g>
                        <path d="M64.2100989,6.4427017 C72.5642179,1.61910046 79.3613045,5.49248532 79.3890325,15.0964961 C79.4162272,24.6999737 72.6633988,36.3931808 64.3087465,41.2162488 L62.0377187,42.5274621 L62.0654467,52.3074389 L51.4461654,48.6425471 L22.6986538,65.2398733 C14.3408022,70.0650742 7.54318238,66.1959552 7.51652087,56.5919444 C7.48932612,46.9879335 14.2421546,35.291527 22.6000062,30.4657929 L64.2100989,6.4427017 Z" id="Fill-8" fill="#71A5D5" mask="url(#mask-2)"></path>
                        <mask id="mask-4" fill="white">
                            <use xlink:href="#path-3"></use>
                        </mask>
                        <use id="Combined-Shape" fill="#FFFFFF" xlink:href="#path-3"></use>
                    </g>
                    <g id="Group-9" transform="translate(0.000000, 28.261206)">
                        <path d="M220.970634,10.2838794 L4.87479134,135.864946 C3.64365831,136.58043 2.09449353,136.261203 0.227297005,134.907264 C0.228733433,139.251263 0.228733433,141.740025 0.227297005,142.373552 C0.221947394,144.73296 1.76244967,147.095617 4.84439722,148.907759 L25.8270093,161.021685 L95.815085,201.429343 C102.088539,205.001986 112.155927,204.987056 118.356329,201.384019 L334.452705,75.8024189 C337.531346,74.0132898 339.079834,71.6748282 339.10107,69.3302573 C339.108481,68.5119403 339.108481,66.0200926 339.10107,61.8547141 C336.983921,63.0132888 335.409938,63.2950121 334.379119,62.6998841 L243.591329,10.2838794 C240.459134,8.47569552 236.361793,7.57080371 232.268717,7.57080371 C228.172442,7.57080371 224.083632,8.47462906 220.970634,10.2838794 Z" id="Mask" fill="url(#linearGradient-5)"></path>
                        <path d="M232.265518,0.105579598 C228.172442,0.105579598 224.083632,1.00940495 220.970634,2.81865533 L4.87479134,128.399722 C-1.31761206,131.998493 -1.31601236,137.820301 4.84439722,141.442535 L25.8270093,153.556461 L95.815085,193.964119 C102.088539,197.536762 112.155927,197.521832 118.356329,193.918794 L334.452705,68.3371947 C340.679235,64.718694 340.646708,58.8531607 334.379119,55.23466 L243.591329,2.81865533 C240.459134,1.01047141 236.361793,0.105579598 232.268717,0.105579598 C232.267117,0.105579598 232.266584,0.105579598 232.265518,0.105579598" id="Clip-2" fill="url(#linearGradient-6)"></path>
                        <g id="Group" transform="translate(10.664606, 5.865533)">
                            <mask id="mask-8" fill="white">
                                <use xlink:href="#path-7"></use>
                            </mask>
                            <use id="Clip-5" fill="#FEFFFB" xlink:href="#path-7"></use>
                            <path d="M106.652991,70.3352087 C107.274737,69.9736785 108.093779,69.7923802 108.913354,69.7923802 C109.732396,69.7923802 110.553037,69.9736785 111.180116,70.3352087 L197.42585,120.12932 C198.681607,120.855046 198.684807,122.028153 197.440247,122.751747 L149.336476,150.706345 C148.091917,151.429938 146.065641,151.432071 144.809884,150.706345 L58.5630835,100.912233 C57.3105255,100.189173 57.3041267,99.0139335 58.5486862,98.2898068 L106.652991,70.3352087 Z M46.5211437,105.279923 C47.1434235,104.918393 47.961932,104.737628 48.781507,104.737628 C49.6010819,104.737628 50.4217233,104.918393 51.0477357,105.279923 L84.3367697,124.499142 C85.5898609,125.222736 85.5962597,126.397975 84.3517002,127.121569 L58.798238,141.971499 C57.5531453,142.695626 55.524204,142.695626 54.2711128,141.971499 L20.9815456,122.75228 C19.7289876,122.029219 19.7225889,120.853447 20.9671484,120.130386 L46.5211437,105.279923 Z M88.1344359,129.30568 C88.7572488,128.943083 89.5762906,128.761785 90.3958655,128.761785 C91.2138408,128.761785 92.0318161,128.942017 92.6578284,129.303547 L137.294003,155.074034 C138.54976,155.799227 138.553493,156.972867 137.308934,157.696461 L135.806824,158.569359 C134.561731,159.292419 132.535989,159.294019 131.280232,158.569359 L86.643524,132.798338 C85.390966,132.074745 85.3877666,130.901638 86.6323261,130.178578 L88.1344359,129.30568 Z M80.6238872,134.440155 C80.6254869,134.440155 80.6265533,134.440155 80.6276198,134.440155 C81.4439954,134.440155 82.2603709,134.62092 82.8858501,134.98245 L112.392682,152.018091 C113.645773,152.741151 113.655904,153.914258 112.407612,154.639985 L110.906036,155.512883 C109.660943,156.235943 107.631468,156.235943 106.37891,155.512883 L76.8720788,138.476708 C75.6189876,137.753114 75.6157883,136.580541 76.860881,135.856947 L78.3624575,134.984049 C78.9868702,134.621453 79.8053787,134.440155 80.6238872,134.440155 Z M65.5873261,142.408215 C67.0398454,141.564111 68.9477434,141.141793 70.8572411,141.141793 C72.7667388,141.141793 74.6783694,141.564111 76.1410201,142.408215 C79.065255,144.096422 79.0839181,146.83456 76.1788794,148.5233 C73.2733076,150.211507 68.5430216,150.211507 65.6182535,148.5233 C62.6940185,146.83456 62.6817543,144.096422 65.5873261,142.408215 Z M144.234529,48.4951623 C144.856275,48.1341654 145.675317,47.9528671 146.494892,47.9528671 C147.313934,47.9528671 148.134575,48.1341654 148.761121,48.4951623 L182.050155,67.714915 C183.303246,68.4385085 183.309645,69.6137481 182.065085,70.3368083 L156.511623,85.187272 C155.26653,85.9108655 153.237056,85.9108655 151.984498,85.187272 L118.69493,65.9680526 C117.442372,65.2439258 117.435974,64.0686862 118.680533,63.345626 L144.234529,48.4951623 Z M185.847287,72.5209196 C186.4701,72.1588563 187.289142,71.9770247 188.10925,71.9770247 C188.926692,71.9770247 189.745201,72.1577898 190.37068,72.5182535 L235.006855,98.2892736 C236.263145,99.0144668 236.266878,100.18864 235.021785,100.9117 L233.519675,101.784065 C232.275116,102.507658 230.249374,102.509791 228.993083,101.784065 L184.356909,76.0135781 C183.103818,75.2905178 183.100618,74.1168779 184.345711,73.3932844 L185.847287,72.5209196 Z M176.075842,78.199289 C176.698655,77.8372257 177.517697,77.6559274 178.337805,77.6559274 C179.155247,77.6559274 179.973756,77.835626 180.599235,78.1971561 L210.106066,95.2327975 C211.358624,95.956391 211.365556,97.1316306 210.120997,97.8552241 L208.618887,98.7281221 C207.374328,99.4511824 205.344853,99.4511824 204.092295,98.7281221 L174.58493,81.6919474 C173.332372,80.9688872 173.329173,79.7952473 174.573733,79.072187 L176.075842,78.199289 Z M163.300711,85.6234544 C164.752697,84.7793509 166.660595,84.3575657 168.570093,84.3575657 C170.47959,84.3575657 172.391754,84.7793509 173.854405,85.6234544 C176.77864,87.3116615 176.797303,90.0497991 173.891731,91.7385394 C170.98296,93.4283462 166.255873,93.4272798 163.331105,91.7385394 C160.40687,90.0497991 160.39194,87.3143277 163.300711,85.6234544 Z" id="Combined-Shape" fill="#FFF3C8" mask="url(#mask-8)"></path>
                            <path d="M155.844692,57.9664481 C155.20725,27.8910505 154.890635,13.0134775 154.894848,13.333729 C154.901096,13.8086307 155.217886,14.2828871 155.844692,14.6445674 L242.623659,64.7470776 C243.88718,65.4767545 245.925983,65.4746084 247.178237,64.7470776 L299.360863,34.4220294 C299.971193,34.0671804 300.28342,33.6047646 300.296736,33.1394485 C300.306074,32.8131793 300.306074,52.5347573 300.296736,92.3041826 C272.63339,103.268768 252.268148,107.197964 239.201011,104.091772 C226.133874,100.985579 198.348435,85.6104714 155.844692,57.9664481 Z" id="Clip-11" fill="#FEC502" opacity="0.400000006" filter="url(#filter-9)" mask="url(#mask-8)"></path>
                        </g>
                    </g>
                    <path d="M166.370992,50.5016407 C166.366805,68.084615 166.366805,77.0353896 166.370992,77.3539645 C166.377201,77.8263798 166.692016,78.2981532 167.314914,78.65794 L253.552815,128.498139 C254.808458,129.223996 256.834549,129.221861 258.078995,128.498139 L309.936263,98.3318572 C310.542788,97.978866 310.853068,97.5188711 310.866302,97.0559912 C310.875581,96.7314302 310.875581,87.7958368 310.866302,70.249211 L223.683433,45.8673663 C223.056412,45.5055054 222.236378,45.324575 221.416877,45.324575 C220.597377,45.324575 219.778943,45.5055054 219.156719,45.8673663 L166.370992,50.5016407 Z" id="Clip-11" fill="url(#linearGradient-10)"></path>
                    <path d="M219.157167,19.2058516 L167.297,49.3721333 C166.052471,50.0958551 166.058869,51.2727035 167.31193,51.9964253 L253.555538,101.836624 C254.811265,102.562481 256.83749,102.560346 258.082019,101.836624 L309.942719,71.6703425 C311.187248,70.946087 311.184582,69.7713734 309.927789,69.0455168 L223.68418,19.2058516 C223.057117,18.8439907 222.237029,18.6630603 221.417474,18.6630603 C220.597919,18.6630603 219.779431,18.8439907 219.157167,19.2058516" id="Clip-11" fill="#FFE074"></path>
                    <path d="M219.614121,27.5572571 C220.029675,27.3155823 220.573993,27.194745 221.119376,27.194745 C221.664226,27.194745 222.21014,27.3155823 222.628355,27.5572571 L253.579454,45.4347986 C254.411627,45.9154864 254.416416,46.6969368 253.585839,47.1792216 L219.086297,67.2376912 C218.258913,67.7189114 216.911686,67.7189114 216.078981,67.2376912 L185.127881,49.3601497 C184.291984,48.8768002 184.287727,48.0958821 185.114579,47.6151943 L219.614121,27.5572571 Z M257.377974,51.9754534 C257.998379,51.6145383 258.812994,51.4346131 259.628673,51.4346131 C260.44648,51.4346131 261.265883,51.615603 261.892141,51.9770504 L290.199867,68.3278891 C291.450255,69.0507839 291.460365,70.2218949 290.217958,70.9437251 L289.466128,71.3812948 C288.223721,72.1036573 286.202349,72.1020604 284.951961,71.3796978 L256.644235,55.0283268 C255.393847,54.3059643 255.383738,53.1348533 256.625613,52.4124908 L257.377974,51.9754534 Z M227.002585,69.6358071 C227.622991,69.2754243 228.437605,69.0949668 229.252752,69.0949668 C230.071623,69.0949668 230.890494,69.2759566 231.516753,69.6374041 L259.824478,85.9887751 C261.074866,86.7106053 261.084976,87.8822486 259.843101,88.6046111 L259.090208,89.0421808 C257.848333,89.764011 255.826428,89.762414 254.57604,89.0400515 L226.268315,72.6886805 C225.017926,71.9668503 225.007817,70.795207 226.250224,70.0728444 L227.002585,69.6358071 Z M246.878437,58.0801356 C247.498311,57.7192205 248.313457,57.5387629 249.129668,57.5387629 C249.947475,57.5387629 250.766347,57.7202851 251.392073,58.0817326 L272.152242,70.0728444 C273.402098,70.7946747 273.412208,71.966318 272.170333,72.6881482 L271.417439,73.1262502 C270.175564,73.8480804 268.154192,73.8464834 266.903804,73.1241209 L246.144167,61.133009 C244.893778,60.4111788 244.883137,59.2395355 246.126076,58.5171729 L246.878437,58.0801356 Z" id="Combined-Shape" fill="#FEC502"></path>
                    <g id="Group-4" transform="translate(241.020093, 146.638331)">
                        <g id="Oval-3" transform="translate(0.656283, 8.531685)">
                            <mask id="mask-13" fill="white">
                                <use xlink:href="#path-12"></use>
                            </mask>
                            <use id="Mask" fill="url(#linearGradient-11)" xlink:href="#path-12"></use>
                            <path d="M15.7508025,11.8131019 C24.8121859,11.8131019 32.1578885,7.99333654 32.1578885,3.28141719 C32.1578885,2.86765865 32.1578885,1.99261406 32.1578885,0.656283438 C26.4650639,-3.28141719 20.9960353,-5.25026751 15.7508025,-5.25026751 C10.758464,-5.25026751 5.28943535,-3.28141719 -0.656283438,0.656283438 C-0.656283438,1.86110907 -0.656283438,2.73615366 -0.656283438,3.28141719 C-0.656283438,7.99333654 6.68941916,11.8131019 15.7508025,11.8131019 Z" fill="#ACB2C7" mask="url(#mask-13)"></path>
                        </g>
                        <path d="M16.407086,19.6885032 C25.4684693,19.6885032 32.8141719,15.8687378 32.8141719,11.1568185 C32.8141719,10.7430599 32.8141719,9.86801533 32.8141719,8.5316847 C27.1213473,4.59398407 21.6523187,2.62513375 16.407086,2.62513375 C11.4147474,2.62513375 5.94571878,4.59398407 0,8.5316847 C8.69411809e-14,9.73651033 1.30411771e-13,10.6115549 1.30411771e-13,11.1568185 C1.30411771e-13,15.8687378 7.3457026,19.6885032 16.407086,19.6885032 Z" id="Oval-3" fill="#C4CCD8"></path>
                        <ellipse id="Oval-3" fill="#DBE2EA" cx="16.407086" cy="8.5316847" rx="16.407086" ry="8.5316847"></ellipse>
                        <ellipse id="Oval-3" fill="#9EA6BA" cx="16.407086" cy="8.20354298" rx="15.0945191" ry="6.8909761"></ellipse>
                        <path d="M2.44649045,10.8286767 C4.7078513,8.3250295 10.1066876,6.56283438 16.407086,6.56283438 C22.7074844,6.56283438 28.1063206,8.3250295 30.3676815,10.8286767 C28.1063206,13.332324 22.7074844,15.0945191 16.407086,15.0945191 C10.1066876,15.0945191 4.7078513,13.332324 2.44649045,10.8286767 Z" id="Combined-Shape" fill="#FEC502"></path>
                        <path d="M12.817909,38.5324548 C5.8483433,37.7879815 0.656283438,34.9226969 0.656283438,31.501605 L0.656283438,16.407086 C1.00775448,19.5233612 6.07292054,22.0983351 12.7976143,22.7881344 C12.7976143,23.1955178 12.817909,38.125966 12.817909,38.5324548 Z" id="Combined-Shape" fill="#FEC502"></path>
                        <path d="M8.5316847,17.7196528 C18.7984286,27.4629782 26.5644493,30.853776 31.8297468,27.8920461 C34.1268244,26.59994 34.162632,24.130089 31.9371695,20.4824932" id="Path-5" stroke="#969696"></path>
                    </g>
                    <g id="Group-5" transform="translate(199.961360, 182.897991)">
                        <g id="Path-4" transform="translate(13.330757, 0.000000)">
                            <mask id="mask-15" fill="white">
                                <use xlink:href="#path-14"></use>
                            </mask>
                            <use id="Mask" fill="#F4F4F4" xlink:href="#path-14"></use>
                            <path d="M6.39876352,1.06646059 C6.39876352,2.13292117 8.5316847,3.19938176 9.06491499,3.19938176 C9.59814529,3.19938176 12.5309119,3.46599691 12.5309119,5.06568779 C12.5309119,6.66537867 13.0641422,9.06491499 15.4636785,8.5316847 C17.8632148,7.9984544 19.7295209,6.93199382 20.2627512,7.9984544 C20.618238,8.70942813 20.7959815,9.50927357 20.7959815,10.3979907 L22.3956723,12.2642968 L26.3948995,9.06491499 L9.06491499,-2.13292117 C7.28748068,-0.710973725 6.39876352,0.355486862 6.39876352,1.06646059 Z" fill="#FFE074" mask="url(#mask-15)"></path>
                        </g>
                        <polygon id="Fill-4" fill="#9EA6BA" points="12.1242705 5.67389026 13.6269134 4.80045904 28.7583895 13.5363709 27.2552133 14.4098022"></polygon>
                        <polygon id="Fill-5" fill="#7A7F91" points="28.7585495 13.5364243 28.7532172 15.2752883 27.250041 16.1481862 27.2553733 14.4098555"></polygon>
                        <path d="M10.6182682,7.47924807 L10.6129359,9.21811206 C10.5489482,9.09493586 10.5185541,8.9706932 10.5185541,8.847517 L10.5233532,7.10971947 C10.5228199,7.23182921 10.5542805,7.3566051 10.6182682,7.47924807 Z M12.4533269,10.9109049 L12.4485278,12.6497689 L10.6131491,9.21789876 L10.6184815,7.47903478 L12.4533269,10.9109049 Z M12.6491291,11.6529482 L12.64433,13.3918122 C12.6448632,13.1443934 12.5814088,12.8943083 12.4486345,12.6495556 L12.4534335,10.9106917 C12.5862079,11.1554444 12.6501955,11.4055294 12.6491291,11.6529482 Z" id="Combined-Shape" fill="#70757A"></path>
                        <g id="Group-31" transform="translate(12.797527, 13.601158)">
                            <mask id="mask-17" fill="white">
                                <use xlink:href="#path-16"></use>
                            </mask>
                            <g id="Clip-30"></g>
                            <path d="M3.09108269,0.372674652 L3.08575039,2.11153864 C2.90231917,2.12966847 2.72102087,2.15526352 2.54345518,2.18672411 L2.54772102,0.448926584 C2.72581994,0.416399536 2.90711824,0.390804482 3.09108269,0.372674652" id="Fill-29" fill="#9499A0" mask="url(#mask-17)"></path>
                        </g>
                        <path d="M0.0410587326,22.9812125 C0.0165301391,22.947619 0,22.9172249 0,22.8868308 L0.00479907264,21.1485 C0.00479907264,21.1778277 0.0207959815,21.2098215 0.0458578053,21.2428818 C0.085316847,21.4076499 0.416452859,21.5014985 0.685734158,21.4433764 L0.680935085,23.1822403 C0.627078825,23.1934382 0.570556414,23.1993037 0.514567233,23.1993037 L0.511367852,23.1993037 C0.288477589,23.1987705 0.0725193199,23.1129204 0.0410587326,22.9812125 Z M3.26075804,21.2018764 L3.2559575,22.7673338 L0.680988408,23.182187 L0.685787481,21.443323 L3.2612898,21.0284699 C4.40718044,20.8370812 5.44322646,20.4403622 6.19453632,19.92367 L6.18920402,21.6620008 C5.438949,22.1792342 4.40181607,22.5759575 3.2564374,22.7673872 L3.26075804,21.2018764 Z M13.3199814,15.5485155 L13.3171066,16.5901275 L6.18941731,21.6616808 L6.19474961,19.9238833 L13.3216915,14.851416 C14.1338022,14.2612975 15.3506337,13.9392264 16.6021252,13.9392264 C17.0527048,13.9392264 17.5075502,13.9808184 17.9501314,14.0666685 L24.1125672,15.2611043 L24.1077682,16.9999683 L17.9452257,15.8055325 C16.2735766,15.480275 14.4206566,15.7874197 13.3174266,16.5899142 L13.3182786,16.2426213 L13.3199814,15.5485155 Z M26.2914529,16.7056252 C25.7235626,17.0356947 24.8858578,17.1471399 24.1078748,16.9999683 L24.1126739,15.2611043 C24.8899533,15.4082436 25.7285272,15.2974126 26.2964117,14.9669786 L27.25516,14.4096955 L27.2498277,16.1485595 L26.291453,16.7055681 Z" id="Combined-Shape" fill="#C4CCD8"></path>
                        <g id="Group-143" transform="translate(0.000000, 21.066383)"></g>
                        <path d="M0.0410587326,22.9812125 C0.0725193199,23.1129204 0.288477589,23.1987705 0.511367852,23.1993037 L0.514567233,23.1993037 C0.570556414,23.1993037 0.627078825,23.1934382 0.680935085,23.1822403 L0.685734158,21.4433764 C0.416452859,21.5014985 0.085316847,21.4076499 0.0458578053,21.2428818" id="Clip-146"></path>
                        <path d="M0.0410587326,22.9812125 C0.0725193199,23.1129204 0.288477589,23.1987705 0.511367852,23.1993037 L0.514567233,23.1993037 C0.570556414,23.1993037 0.627078825,23.1934382 0.680935085,23.1822403 L0.685734158,21.4433764 C0.416452859,21.5014985 0.085316847,21.4076499 0.0458578053,21.2428818" id="Clip-149"></path>
                        <g id="Clip-155-+-Clip-158-+-Clip-161-+-Clip-164-+-Clip-167-+-Clip-170-Mask" transform="translate(0.000000, 20.795981)">
                            <mask id="mask-19" fill="white">
                                <use xlink:href="#path-18"></use>
                            </mask>
                            <g id="Mask"></g>
                            <mask id="mask-21" fill="white">
                                <use xlink:href="#path-20"></use>
                            </mask>
                            <g id="Clip-155"></g>
                            <mask id="mask-23" fill="white">
                                <use xlink:href="#path-22"></use>
                            </mask>
                            <g id="Clip-158"></g>
                            <mask id="mask-25" fill="white">
                                <use xlink:href="#path-24"></use>
                            </mask>
                            <g id="Clip-161"></g>
                            <mask id="mask-27" fill="white">
                                <use xlink:href="#path-26"></use>
                            </mask>
                            <g id="Clip-164"></g>
                        </g>
                        <path d="M12.1242705,5.67405023 L27.2552133,14.4094289 L26.2964652,14.9666546 C25.7291082,15.2972573 24.8903369,15.4081692 24.1123539,15.2609977 L17.9503447,14.0665618 C16.2786677,13.7418246 14.4256924,14.0489652 13.3219057,14.8514768 L6.19474961,19.9235634 C5.44342813,20.4402635 4.40682844,20.8369869 3.26144977,21.0289498 L0.68594745,21.4432697 C0.416666151,21.5013918 0.0855301391,21.4075433 0.0460710974,21.2427751 C-0.000319938176,21.1803872 -0.016316847,21.1270641 0.0455378671,21.0737411 L0.798459042,19.5183083 C0.858714065,19.3754026 0.966746522,19.1343825 1.06646059,18.9962759 C1.40239567,18.5419637 1.89904637,18.2252249 2.55118702,17.8914227 L11.2140464,13.5002713 C12.4644714,12.8539961 12.9587759,11.8424583 12.4532736,10.9109049 L10.6184281,7.47903478 C10.3848733,7.03325425 10.5901669,6.56561128 11.1420603,6.24460665 L12.1242705,5.67405023 Z" id="Fill-176" fill="#DBE2EA"></path>
                        <path d="M3.14200618,18.9962759 C2.83539876,19.174908 2.829,19.473517 3.14573879,19.6558818 C3.44701391,19.8297148 3.97011283,19.8297148 4.27672025,19.6516159 C4.59132612,19.4692512 4.58172798,19.170109 4.28098609,18.9962759 C3.9642473,18.8133779 3.45661206,18.8133779 3.14200618,18.9962759 Z" id="Path" fill="#999DA4"></path>
                        <g id="Path-6" transform="translate(28.261206, 8.531685)">
                            <mask id="mask-29" fill="white">
                                <use xlink:href="#path-28"></use>
                            </mask>
                            <use id="Mask" fill="#EAEAEA" xlink:href="#path-28"></use>
                            <path d="M5.86553323,1.86630603 C5.86553323,2.66615147 5.59891808,3.9992272 6.39876352,3.9992272 C6.93199382,3.9992272 8.26506955,2.8438949 10.3979907,0.533230294 L9.06491499,-0.533230294 C6.93199382,0.533230294 5.86553323,1.33307573 5.86553323,1.86630603 Z" fill="#FEC502" mask="url(#mask-29)"></path>
                        </g>
                    </g>
                    <g id="Group-7" transform="translate(302.341577, 118.377125)">
                        <g id="Rectangle" transform="translate(20.795981, 12.264297)">
                            <mask id="mask-31" fill="white">
                                <use xlink:href="#path-30"></use>
                            </mask>
                            <use id="Mask" fill="#D32992" xlink:href="#path-30"></use>
                            <rect fill="#FFFFFF" opacity="0.800000012" mask="url(#mask-31)" x="9.59814529" y="1.59969088" width="4.26584235" height="35.7264297" rx="2.13292117"></rect>
                        </g>
                        <g id="Path-8">
                            <mask id="mask-33" fill="white">
                                <use xlink:href="#path-32"></use>
                            </mask>
                            <use id="Mask" fill="#E54CAA" xlink:href="#path-32"></use>
                            <polygon fill="#FFFFFF" opacity="0.800000012" mask="url(#mask-33)" points="8.5316847 15.9969088 8.5316847 43.7248841 12.797527 46.6576507 12.797527 18.9296754"></polygon>
                        </g>
                        <g id="Path-7">
                            <mask id="mask-35" fill="white">
                                <use xlink:href="#path-34"></use>
                            </mask>
                            <use id="Mask" fill="#F869C1" xlink:href="#path-34"></use>
                            <path d="M4.79907264,21.862442 L42.3918083,0.266615147" stroke="#FFFFFF" stroke-width="8" opacity="0.800000012" mask="url(#mask-35)"></path>
                            <path d="M2.71306804,0.718583552 L40.2119706,22.4769342" stroke="#FFFFFF" stroke-width="8" opacity="0.800000012" mask="url(#mask-35)"></path>
                            <g id="Fill-1" mask="url(#mask-35)">
                                <use fill="black" fill-opacity="1" filter="url(#filter-37)" xlink:href="#path-36"></use>
                                <use fill="#FDE1F2" fill-rule="evenodd" xlink:href="#path-36"></use>
                            </g>
                            <g id="Fill-2" mask="url(#mask-35)">
                                <use fill="black" fill-opacity="1" filter="url(#filter-39)" xlink:href="#path-38"></use>
                                <use fill="#FDE1F2" fill-rule="evenodd" xlink:href="#path-38"></use>
                            </g>
                        </g>
                    </g>
                    <g id="Group-11" transform="translate(185.564142, 48.523957)">
                        <path d="M10.9015971,76.7851623 C10.3683668,78.3848532 10.9015971,79.984544 10.9015971,79.984544 C10.9015971,79.984544 13.0345183,81.0510046 15.1674395,79.4513138 C17.3003606,77.8516229 18.3668212,78.9180835 19.9665121,77.3183926 C21.566203,75.7187017 21.0329727,75.1854714 19.4332818,75.1854714 C17.8335909,75.1854714 15.7985025,75.7187017 14.6342092,75.7187017 C13.4699158,75.7187017 11.4348274,75.1854714 10.9015971,76.7851623 Z" id="Path-15" fill="#222222"></path>
                        <path d="M4.50283359,72.5193199 C3.9696033,74.1190108 4.50283359,75.7187017 4.50283359,75.7187017 C4.50283359,75.7187017 6.63575477,76.7851623 8.76867594,75.1854714 C10.9015971,73.5857805 11.9680577,74.6522411 13.5677486,73.0525502 C15.1674395,71.4528594 14.6342092,70.9196291 13.0345183,70.9196291 C11.4348274,70.9196291 9.39973902,71.4528594 8.23544565,71.4528594 C7.07115227,71.4528594 5.03606388,70.9196291 4.50283359,72.5193199 Z" id="Path-15-Copy" fill="#222222"></path>
                        <path d="M2.20343097,39.8668061 C1.67020067,44.1326484 4.33635214,53.7307937 4.33635214,55.8637149 C4.33635214,57.9966361 4.33635214,56.3969452 4.33635214,63.8621693 C4.33635214,65.1816001 4.33635214,66.6756605 4.33635214,67.7202473 C4.33635214,69.6506031 4.49059231,71.250294 4.79907264,72.5193199 C5.86553323,73.2302937 6.93199382,73.3662151 7.9984544,72.9270843 C8.25390547,72.8218985 8.43914727,71.9155465 8.5316847,71.4528594 C9.06491499,68.7867079 9.66865508,62.7957087 10.2018854,61.7292481 C10.7351157,60.6627875 10.7351157,64.3953996 10.2018854,67.0615511 C9.66865508,69.7277025 10.7351157,76.126466 11.268346,76.6596963 C11.8015763,77.1929266 14.4677277,77.1929266 14.4677277,76.6596963 C14.4677277,76.126466 15.000958,66.5283208 16.0674186,63.8621693 C17.1338792,61.1960178 17.1338792,55.8637149 17.1338792,52.1311028 C17.1338792,49.6426948 16.7783923,45.7323393 16.0674186,40.4000364 C7.18024704,37.2006546 2.55891783,37.0229112 2.20343097,39.8668061 Z" id="Path-9" fill="#706E4F"></path>
                        <path d="M15.4636785,31.4605873 C13.8639876,28.2612056 17.210666,27.7279753 19.1962906,27.7279753 C21.1819151,27.7279753 21.862442,31.4605873 22.9289026,31.4605873 C23.9953632,31.4605873 27.7279753,25.5950541 27.7279753,24.5285935 C27.7279753,23.4621329 28.7944359,21.3292117 28.7944359,22.3956723 C28.7944359,23.4621329 31.4605873,20.7959815 31.4605873,21.862442 C31.4605873,22.9289026 31.9938176,23.4621329 31.4605873,25.0618238 C30.927357,26.6615147 29.3276662,25.5950541 28.2612056,29.8608964 C25.5950541,35.1931994 23.4621329,36.7928903 21.862442,36.7928903 C20.2627512,36.7928903 17.0633694,34.6599691 15.4636785,31.4605873 Z M0,21.3292117 C0,19.5517774 1.77743431,19.9072643 5.33230294,22.3956723 C4.62132921,25.2395672 3.73261206,26.6615147 2.66615147,26.6615147 C1.06646059,26.6615147 0,23.9953632 0,21.3292117 Z M5.86553323,14.9304482 C7.46522411,14.3972179 7.9984544,14.9304482 7.9984544,13.8639876 C7.9984544,12.797527 7.46522411,11.1978362 6.66537867,10.1313756 C5.86553323,9.06491499 5.06568779,6.93199382 5.86553323,4.26584235 C6.66537867,1.59969088 13.3307573,4.79616347e-13 14.3972179,2.66615147 C15.4636785,5.33230294 16.5301391,8.5316847 16.5301391,9.59814529 C16.5301391,10.6646059 17.0633694,13.8639876 14.9304482,13.8639876 C12.797527,13.8639876 13.3307573,14.9304482 13.3307573,15.9969088 C13.3307573,16.7078825 14.2194745,18.12983 15.9969088,20.2627512 L9.06491499,21.3292117 C5.86553323,17.4188563 4.79907264,15.2859351 5.86553323,14.9304482 Z" id="Combined-Shape" fill="#FFC1AF"></path>
                        <path d="M16.2914038,42.3918083 C12.0255614,43.4582689 8.4706928,43.2805255 5.6267979,41.8585781 C2.782903,40.4366306 1.53869898,39.5479134 1.89418584,39.1924266 C2.2496727,29.9497682 2.2496727,25.1506955 1.89418584,24.7952087 C1.36095555,24.2619784 -0.771965628,21.5958269 0.294494959,18.9296754 C1.36095555,16.263524 2.42741613,15.1970634 4.02710701,14.6638331 C5.0935676,14.3083462 6.16002819,14.3083462 7.22648878,14.6638331 C7.0301588,16.263524 7.28748068,17.3299845 7.9984544,17.8632148 C9.06491499,18.6630603 12.0255614,19.4629057 13.092022,18.9296754 C13.8029957,18.5741886 14.1584826,18.2187017 14.1584826,17.8632148 C15.9359169,18.9296754 17.1801209,19.996136 17.8910947,21.0625966 C18.9575552,22.6622875 20.0240158,28.4135571 21.0904764,28.737304 C21.8014501,28.9531353 21.2682198,29.9497682 19.4907855,31.7272025 L16.8246341,33.8601236 L16.2914038,33.3268934 L16.2914038,42.3918083 Z" id="Path-10" fill="#FFFFFF"></path>
                        <path d="M7.46522411,11.7310665 C7.9984544,11.7310665 9.59814529,11.7310665 10.6646059,10.6646059 C11.7310665,9.59814529 10.6646059,7.46522411 11.7310665,7.46522411 C12.797527,7.46522411 12.797527,8.5316847 13.3307573,8.5316847 C13.8639876,8.5316847 13.3307573,6.93199382 12.797527,5.86553323 C12.2642968,4.79907264 11.7310665,5.33230294 12.797527,4.26584235 C13.8639876,3.19938176 15.9969088,3.19938176 14.3972179,1.59969088 C12.797527,-1.39888101e-14 7.9984544,-1.52100554e-14 6.39876352,2.13292117 C4.79907264,4.26584235 4.79907264,8.5316847 5.86553323,9.59814529 C6.93199382,10.6646059 6.93199382,11.7310665 7.46522411,11.7310665 Z" id="Path-14" fill="#222222"></path>
                    </g>
                    <g id="Group-3" transform="translate(21.329212, 77.851623)">
                        <g id="Group-12">
                            <path d="M13.8639876,3.9992272 C21.0810173,8.16617957 28.5510889,18.9015596 28.5278207,27.194745 C28.5166229,31.0266347 24.8649676,34.5722869 22.8020537,36.0384675 C20.3997746,37.7458461 16.9070659,37.6779838 13.0242953,35.4361585 C5.8072657,31.2682366 -0.023365182,21.1698244 -9.69509625e-05,12.876639 C0.0120524368,8.54639474 1.61806667,5.56525262 4.17755775,4.29812345 C6.51994573,3.13847566 10.9485234,1.4747974 14.3972179,3.46599691 L13.8639876,3.9992272 Z" id="Fill-6" fill="#99CC33"></path>
                            <path d="M31.6006815,24.7882282 C31.5890474,28.9086441 30.1347829,31.8074779 27.7895391,33.1706084 L22.3224744,36.3467219 C24.6677181,34.9835914 26.1219826,32.0857271 26.1345862,27.9653112 C26.1578544,19.6721259 20.3272235,9.57274413 13.1092244,5.40579177 C9.47744134,3.3090333 6.18789518,3.11416187 3.81162709,4.49474357 L9.27772235,1.31766053 C11.6539357,-0.062889363 14.9443545,0.13194128 18.5760381,2.22885462 C25.7933188,6.39566109 31.6239497,16.4950429 31.6006815,24.7882282 Z" id="Combined-Shape" fill="#86B626"></path>
                            <path d="M13.8452618,13.9433672 L13.3316299,13.6468175 L13.3377378,11.427513 L14.7037769,10.6334846 L14.6979598,12.8526921 L13.5065536,13.5452129 L14.6986385,12.8527891 L15.2115091,13.149459 C17.2053207,14.3005625 18.8145944,17.1537129 18.8078081,19.5143867 C18.8068386,19.8052396 18.7069791,20.0107756 18.5441014,20.104818 L17.1780624,20.8988464 C17.3399705,20.804804 17.4407995,20.5992679 17.441769,20.3084151 C17.4485556,17.9476591 15.8382001,15.0943923 13.8448883,13.9435844 Z M11.2683195,12.2571121 L12.4637249,11.5627596 L12.9765955,11.8594295 L11.6105564,12.6534579 L11.0968213,12.3568486 C10.1133427,11.7889462 9.21945483,11.7404707 8.56503583,12.121488 L9.9320444,11.3274596 C10.5854939,10.9464423 11.4803513,10.9949178 12.463434,11.5620809 L11.2683195,12.2571121 Z M13.8265775,20.4449145 L15.1935731,19.6499241 C17.1868849,20.8017016 18.7972404,23.6549684 18.7904538,26.0157243 C18.7865758,27.2188858 18.3667781,28.0662372 17.6929689,28.4569496 L16.3269299,29.2509779 C16.9997696,28.8592961 17.4205367,28.0129141 17.4234453,26.8107222 C17.4302318,24.4480273 15.8198764,21.5957299 13.8265646,20.444922 L11.0781987,18.8579317 L12.4452073,18.0639033 L15.193767,19.6500211 L13.8267585,20.445019 Z M14.8217662,26.3563747 L15.1744738,26.1513587 C15.694131,26.4519067 16.1662821,26.477114 16.5094885,26.2783645 L15.14248,27.0714234 C14.79941,27.2710629 14.3284666,27.2459551 13.8090546,26.9457455 L11.059778,25.3590755 L12.4267866,24.5650471 L15.1743768,26.1511648 L14.8217662,26.3563747 Z M14.3839356,30.7320978 L13.0169271,31.5261262 C13.1798047,31.4320837 13.2816032,31.2284867 13.2825727,30.9386033 L14.6486118,30.144575 C14.6476423,30.4334888 14.5458438,30.6370859 14.3839356,30.7320978 Z M13.2884867,28.7192019 L14.6554953,27.9251735 L14.6487087,30.1443811 L13.2826697,30.9384094 L13.2884867,28.7192019 Z M7.71623015,20.4646031 L9.08323872,19.6705747 C9.23836026,19.5794408 9.45068287,19.5910749 9.68142616,19.7238977 C10.1584249,19.9992384 10.5404117,20.6827427 10.5384727,21.2518449 C10.5355641,22.475366 11.380007,23.9606548 12.4261079,24.5646593 L11.0600688,25.3586876 C10.013968,24.7546832 9.16855557,23.2693944 9.17243361,22.0458733 C9.17340312,21.4767711 8.79141633,20.7932668 8.31441759,20.5179261 C8.0836743,20.3841338 7.8723212,20.3744387 7.71623015,20.4646031 Z M9.75695096,14.2929956 L11.12299,13.4989673 C10.7749361,13.7006253 10.5587354,14.1349656 10.5567964,14.7506042 C10.5538879,15.9741253 11.3983308,17.4594141 12.4444316,18.0634186 L11.0783926,18.857447 C10.0322917,18.2534425 9.1868793,16.7681537 9.19075734,15.5456021 C9.19172685,14.928994 9.40889701,14.4946536 9.75695096,14.2929956 Z M11.8811466,9.84401293 L13.2471856,9.04998454 C13.4023072,8.95982015 13.6136603,8.97145426 13.8463426,9.10524659 L12.4803035,9.89927498 C12.2466517,9.76451314 12.0362681,9.75384853 11.8811466,9.84401293 Z M12.4804004,9.89937193 L13.8464395,9.10534354 C14.3176212,9.37680624 14.705425,10.0641886 14.703486,10.6332907 L13.337447,11.4273191 C13.339386,10.8582169 12.9506126,10.1708346 12.4804004,9.89937193 Z" id="Combined-Shape" fill="#89BA28"></path>
                            <path d="M12.4804004,9.89937193 C12.9506126,10.1708346 13.339386,10.8582169 13.337447,11.4273191 L13.3316299,13.6465266 L13.84547,13.9431966 C15.8378123,15.0940045 17.4491373,17.9472713 17.4423507,20.3089968 C17.4404117,20.8780989 17.0545469,21.1185373 16.5785176,20.8431966 C16.1083055,20.5717339 15.7253492,19.8882296 15.7272882,19.3191274 C15.7301967,18.0956063 14.8857538,16.6103175 13.8396529,16.0063131 L11.0910932,14.4192258 C10.0449923,13.8152213 9.19376282,14.3222748 9.18988478,15.5448265 C9.18697625,16.7683476 10.0323886,18.2536364 11.0784895,18.8576409 L13.8270493,20.4447281 C15.8203611,21.595536 17.4297471,24.4478334 17.4229605,26.8105283 C17.4161739,29.1780708 15.7951539,30.1660011 13.8028116,29.0151932 L13.288002,28.7194928 L13.2821849,30.9387003 C13.2812154,31.5078024 12.8895335,31.7443628 12.4193213,31.4719306 C11.9423226,31.1975594 11.5603358,30.5130856 11.5613053,29.9439834 L11.5680919,27.7247759 L11.0542518,27.4290755 C9.06094,26.2782675 7.44476746,23.4211227 7.45155403,21.0526107 C7.45252354,20.4835085 7.84420542,20.2459786 8.31441759,20.5184108 C8.79141633,20.7927821 9.17340312,21.4772559 9.17243361,22.046358 C9.16855557,23.2698792 10.013968,24.7551679 11.0600688,25.3591724 L13.8086286,26.9462597 C14.8547295,27.5502642 15.705959,27.0432106 15.7088675,25.8196895 C15.711776,24.5971378 14.8663636,23.1108796 13.8212323,22.5068751 L11.0726725,20.9207573 C9.07936069,19.7699494 7.46318814,16.9128046 7.46997471,14.5510791 C7.47676128,12.1903232 9.10359843,11.2062709 11.0969102,12.3570788 L11.6107503,12.6527793 L11.6165674,10.4345412 C11.6185064,9.86543909 12.0034017,9.62403119 12.4804004,9.89937193" id="Fill-39" fill="#CEF978"></path>
                        </g>
                        <ellipse id="Oval-5" fill-opacity="0.05" fill="#000000" transform="translate(17.063369, 47.990726) rotate(14.000000) translate(-17.063369, -47.990726) " cx="17.0633694" cy="47.9907264" rx="9.59814529" ry="3.19938176"></ellipse>
                    </g>
                    <g id="Group-6" transform="translate(316.205564, 122.109737)">
                        <path d="M14.6860954,8.53603053 C14.9996349,8.7167956 15.2851797,8.7327925 15.4915398,8.61281569 L10.9820112,11.2339092 C10.7756662,11.3538772 10.4901482,11.3378914 10.1758362,11.1571638 L7.72504057,9.74147759 L12.2345692,7.12038408 L14.6860264,8.53607064 Z M2.48217138,6.42251893 L6.74035085,3.94795711 L9.19107728,5.36368354 L4.68074884,7.98477705 L2.23002241,6.56905062 C1.60725348,6.20974397 1.09856107,5.327524 1.10016074,4.61166886 L5.60968934,1.99137519 C5.60808964,2.70723686 6.11679134,3.58866654 6.73987094,3.94779714 L2.48217138,6.42251893 Z M1.35438931,3.59706491 L1.10224034,3.7435966 C1.10304019,3.56843045 1.16542813,3.44525425 1.26540881,3.38686553 L5.7749374,0.76657187 C5.67495672,0.824160742 5.61336862,0.94733694 5.61256878,1.12250309 L5.60968934,1.99097527 L1.10016074,4.61126893 L1.10256028,3.74343663 L1.35438931,3.59706491 Z" id="Combined-Shape" fill="#E77DBE"></path>
                        <path d="M13.2992113,7.98714443 L16.1248574,6.3455738 C16.2968242,6.68070904 16.3936055,7.03504057 16.3928056,7.34698029 L16.3900062,8.2148126 L11.8804776,10.8359061 L11.8828771,9.96727396 L14.1376414,8.65712713 L11.8824772,9.96727396 C11.883277,9.65613408 11.7872956,9.3010027 11.614529,8.96586747 C11.3915934,8.54440017 11.0789427,8.21420084 10.7646932,8.03268779 C10.50493,7.88288572 10.2451669,7.83469069 10.0344334,7.92210721 L10.0324347,7.92326893 L7.31775927,9.04785162 L8.33548261,8.45631573 L7.31799923,9.04753168 C6.99726121,9.18350541 6.60053787,9.11391886 6.20301468,8.88516306 C5.80629134,8.65560742 5.40956801,8.26608269 5.09122952,7.76218006 L9.60075811,5.1418864 C9.9190966,5.64578903 10.3158199,6.03451391 10.7125433,6.26406955 C11.1084814,6.49270986 11.5044195,6.56186078 11.823697,6.42884527 L11.8272879,6.42675811 L14.5396131,5.30314901 L14.5415634,5.30201546 C14.7527226,5.21403246 15.014272,5.26122334 15.2742218,5.41159428 C15.5885611,5.5931592 15.9021005,5.92429521 16.1244575,6.34501391 L13.2992113,7.98714443 Z M0.864286321,2.69715881 L5.37461476,0.0760653014 C5.57857535,-0.0423118238 5.86172063,-0.026314915 6.17286051,0.152850464 C6.4384092,0.306420788 6.69835896,0.567970247 6.90231955,0.891107805 L2.39199111,3.51220131 C2.18883037,3.18906376 1.9288806,2.9275143 1.66333192,2.77394397 C1.35139219,2.59397875 1.06904675,2.57798184 0.864286321,2.69715881 Z M2.39215108,3.51220131 L6.90247952,0.891107805 L9.60115804,5.14148648 L5.09162944,7.76178014 L2.39215108,3.51220131 Z M15.894182,9.30604173 L11.3846534,11.9271352 C11.6893945,11.7495696 11.8789579,11.3720425 11.8805576,10.8361461 L16.3900862,8.21505255 C16.3884865,8.75174884 16.199723,9.12847604 15.894182,9.30604173 Z" id="Combined-Shape" fill="url(#linearGradient-40)"></path>
                        <path d="M2.23002241,6.56905062 L4.68074884,7.98477705 L2.02286244,3.79278709 C1.92128207,3.6344177 1.78850773,3.49844397 1.6613323,3.42485819 C1.35419165,3.24809235 1.10384003,3.39126468 1.10224034,3.74319668 L1.0998408,4.61182883 C1.09824111,5.32769049 1.60694281,6.20912017 2.23002241,6.56905062 M11.3130672,10.5082894 L11.3162666,9.63965726 C11.3162666,9.48768663 11.2706754,9.31412017 11.179493,9.14375309 C11.0827117,8.95898879 10.9499374,8.80541847 10.801966,8.70223841 C10.7899683,8.69423995 10.7771708,8.6862415 10.7643733,8.67984274 C10.6299992,8.60225773 10.5012241,8.58546097 10.398044,8.62785278 L7.72496059,9.74123764 L10.1764869,11.1569641 C10.7987666,11.5168945 11.3114675,11.2241511 11.3130672,10.5082894 M11.614609,8.9661874 C11.7873756,9.30132264 11.883357,9.65645402 11.8825572,9.96759389 L11.8801577,10.8354262 C11.8777581,11.9160174 11.1139057,12.3503335 10.1740873,11.8080383 L2.22842272,7.22012481 C1.28860433,6.6778296 0.53035085,5.36448338 0.532750386,4.28469204 L0.535949768,3.41605989 C0.537549459,2.70579714 1.04545131,2.41705294 1.66293199,2.773784 C1.92848068,2.92735433 2.18843045,3.18890379 2.39239104,3.51204134 L5.09106955,7.76242002 C5.40940804,8.26632264 5.80613138,8.65584737 6.20285471,8.88540301 C6.6003779,9.11415881 6.99710124,9.18374536 7.31783926,9.04777164 L10.0317148,7.92318895 C10.242874,7.83440611 10.5044235,7.88239683 10.7643733,8.03276777 C11.0787125,8.21433269 11.3922519,8.54466886 11.614609,8.9661874" id="Fill-30" fill="#F5C3E1"></path>
                    </g>
                    <g id="Group-14" transform="translate(145.038640, 206.893354)">
                        <g id="Group-10">
                            <path d="M38.3766444,41.036619 L0.565655742,19.2379793 C0.188297651,19.0202249 -0.000855982449,18.7343291 9.51801686e-05,18.4493825 L0.00199878354,17.6747574 C0.00104698186,17.9598955 0.190455517,18.2450335 0.568320787,18.4636394 L0.567942168,18.617709 L0.568511147,18.4633542 L38.3788331,40.2621584 C39.1269684,40.6936673 40.3260282,40.6936125 41.0683392,40.2621584 L41.0664356,41.0367834 C40.3240302,41.4682923 39.1247601,41.4682923 38.376644,41.0367834 Z M68.4568134,23.9158591 L68.4549098,24.6904842 C68.453958,24.9708699 68.2693085,25.2503052 67.9028648,25.4632083 L67.9047684,24.6885833 C68.2712121,24.4756802 68.4568134,24.1962449 68.4568134,23.9158591 Z M67.9046733,24.6885833 L67.9027697,25.4632083 L41.0667211,41.0374487 L41.0686247,40.2618732 L67.9046733,24.6885833 Z" id="Combined-Shape" fill="#60A510"></path>
                            <path d="M67.8962974,23.1329651 C68.6434617,23.564474 68.6415581,24.2611613 67.9048636,24.6888684 L41.0678633,40.2621584 C40.325458,40.6936673 39.1261878,40.6936673 38.3790235,40.2621584 L0.568701508,18.4633542 C-0.178462816,18.0318453 -0.188932635,17.335158 0.553472681,16.9036491 L27.3895212,1.33035911 C28.1262157,0.902652029 29.3378593,0.902652029 30.0850236,1.33321049 L67.8962974,23.1329651 Z" id="Fill-10" fill="#7BBD2D"></path>
                            <path d="M38.471729,38.7093916 L38.4688736,39.6389416 C35.8723586,37.6943001 33.1597238,35.9150387 30.2614876,34.2441297 C27.1138795,32.4287507 23.7368871,30.7407335 20.1419321,29.1848302 L20.1466911,27.6346296 C23.7406943,29.1905329 27.1176867,30.8795007 30.2662466,32.6939291 C33.1644828,34.3657886 35.8761658,36.14505 38.4736326,38.0896916 C38.8447972,38.3035451 39.4499047,38.3034846 39.8181477,38.0896916 L39.8143404,39.6389416 C39.4450414,39.8527952 38.8396955,39.8527952 38.4694447,39.6389416 L38.471729,38.7093916 Z M66.2511082,22.5245755 L66.2463492,24.0738256 C66.2463492,24.2144937 66.1521208,24.3551618 65.9684231,24.4616134 L65.9722303,22.9123633 C66.1568798,22.8049613 66.2511082,22.6652436 66.2511082,22.5245755 Z M20.1464056,27.6351048 L20.1416466,29.1843549 C17.4347226,27.106649 14.5107878,25.1620075 11.356517,23.3437772 C8.46399168,21.67667 5.37729881,20.1141135 2.0992938,18.6637112 L2.10310101,17.1144612 C5.38205782,18.5648634 8.46779888,20.1274199 11.361276,21.7945271 C14.514595,23.6127574 17.4394816,25.5573989 20.1464056,27.6351048 Z M65.9722303,22.9120781 L65.9684231,24.4613282 L39.8138645,39.6392268 L39.8176718,38.0899767 L65.9722303,22.9120781 Z" id="Combined-Shape" fill="#E6E6E6"></path>
                            <g id="Group-25" transform="translate(1.903603, 0.490532)">
                                <mask id="mask-42" fill="white">
                                    <use xlink:href="#path-41"></use>
                                </mask>
                                <g id="Clip-24"></g>
                                <path d="M64.1495301,21.6998612 C64.4417332,21.9175166 64.4074683,22.2254657 64.0686269,22.4212605 L37.9150202,37.5991591 C37.5466729,37.8130126 36.9413271,37.8130126 36.5701244,37.5991591 C33.9726576,35.6545175 31.2609746,33.8752561 28.3627385,32.2033966 C25.2141785,30.3889682 21.8371861,28.7000004 18.2431829,27.1450476 C15.5353071,25.0663912 12.6113723,23.1227001 9.45710156,21.3035193 C6.56457623,19.6364122 3.47883516,18.0738557 0.199878354,16.6234534 L26.2583049,0.622456369 C26.5961945,0.426661573 27.1292035,0.404800989 27.5051651,0.57303244 C30.8516999,2.04814663 34.0097779,3.63921697 36.9641703,5.34149114 C40.1174893,7.15972146 43.0423759,9.10436298 45.7492999,11.1820689 C49.343303,12.7379722 52.7212472,14.42694 55.8688554,16.2413684 C58.8289586,17.9474445 61.5825209,19.7656748 64.1495301,21.6998612" id="Fill-23" fill="url(#linearGradient-43)" mask="url(#mask-42)"></path>
                            </g>
                        </g>
                        <g id="Group-13" transform="translate(6.948152, 3.469180)">
                            <path d="M16.8023094,2.86908813 C16.6420707,2.77635336 16.6402498,2.62815958 16.8086826,2.52996983 C16.9880407,2.4263251 17.2893989,2.41996095 17.4751302,2.51360488 C20.0089057,3.77279746 21.7797262,4.69832674 23.5632929,5.72659158 C24.9043821,6.49938126 26.2527549,7.33126661 27.9379933,8.40498967 C28.1009635,8.51318022 28.0955008,8.68410312 27.917053,8.78774785 C27.7504411,8.88411927 27.4809487,8.88502843 27.3161577,8.78956618 C25.6117999,7.70220565 24.2634271,6.87122946 22.9223378,6.09843979 C21.1387711,5.07017494 19.3670402,4.1437365 16.8341751,2.88636225 C16.8232497,2.88090726 16.8123244,2.87454311 16.8023094,2.86908813 Z M14.905392,4.00508894 C14.7187502,3.89871672 14.714198,3.74597711 14.8862726,3.64596904 C15.0592576,3.54596096 15.3606157,3.53959681 15.546347,3.63324074 C18.1511375,4.9260724 20.0384952,5.90978819 21.8630321,6.96169131 C23.5337033,7.92540549 25.1533895,8.94639702 27.2246577,10.3119618 C27.3867174,10.4192432 27.3821651,10.5901661 27.202807,10.6938108 C27.0316428,10.7938189 26.7685235,10.7920006 26.6037325,10.6965383 C24.511524,9.31733607 22.8927483,8.2972537 21.2211666,7.33353952 C19.3975402,6.2816364 17.5101824,5.29792061 14.905392,4.00508894 Z M10.4179781,6.60911739 C10.4070527,6.6036624 10.3961274,6.59820742 10.3861125,6.59184327 C10.2258737,6.50001767 10.2249632,6.35182389 10.393396,6.25363414 C10.5718437,6.14998941 10.8677392,6.14635275 11.0589332,6.23726918 C13.5116789,7.45554937 15.0949471,8.28379807 16.8867079,9.3175179 C17.727051,9.80210248 18.6129165,10.330327 19.6553789,10.9658328 C19.8292744,11.0731142 19.8247221,11.2440371 19.6517371,11.3440452 C19.4760207,11.4458716 19.2001551,11.4449624 19.0244388,11.3440452 C17.9710509,10.7021752 17.0860959,10.1739507 16.2457528,9.68936611 C14.4539921,8.65655544 12.8707238,7.82739758 10.4179781,6.60911739 Z M25.2590014,12.1991142 C25.4219716,12.3063956 25.4110462,12.4809552 25.2325985,12.5845999 C25.0659866,12.6809713 24.8037777,12.679153 24.6380762,12.5836907 C22.3464797,11.0517488 20.5947787,9.93620422 18.7529433,8.87339113 C16.9101975,7.8114872 14.9764069,6.80140564 12.3415717,5.49311819 C12.1540195,5.3858368 12.1503777,5.23400635 12.3160792,5.13763494 C12.4945269,5.0339902 12.7967955,5.02762605 12.9825268,5.12126998 C15.617362,6.42955744 17.5511525,7.439639 19.3938984,8.50154292 C21.2366442,9.56435601 22.9874348,10.6799006 25.2590014,12.1991142 Z M8.48910395,7.72829867 C8.3024622,7.62192644 8.29790996,7.46918684 8.46998455,7.37008792 C8.64296958,7.26917069 8.94432772,7.26280654 9.13005902,7.35645046 C11.6720286,8.6192797 13.4483117,9.54571814 15.2382516,10.5776196 C16.5738781,11.3476818 17.9176987,12.1768397 19.5929222,13.2478353 C19.761355,13.3523892 19.7558923,13.523312 19.5774446,13.6269568 C19.4017282,13.7287832 19.1313253,13.7242374 18.961982,13.6269568 C17.2767436,12.5486879 15.9329231,11.71953 14.5963861,10.9494679 C12.8073566,9.91756635 11.0310735,8.99112791 8.48910395,7.72829867 Z M6.5659656,8.84429787 C6.37932385,8.73792564 6.37477162,8.58518604 6.54138352,8.48881462 C6.71983123,8.38516989 7.02118937,8.37880574 7.20692067,8.47244966 C9.80260662,9.75982634 11.6826808,10.742633 13.4999341,11.7899903 C15.1778889,12.7573411 16.8021273,13.7810601 18.8852313,15.1511708 C19.047291,15.2593613 19.0372761,15.4330117 18.864291,15.5339289 C18.6922164,15.633937 18.4290971,15.6312095 18.2643061,15.5357473 C16.1611723,14.1529083 14.5369338,13.1300985 12.858979,12.1618385 C11.0417257,11.1144812 9.1607411,10.1325837 6.5659656,8.84429787 Z M9.38707836,16.9246776 C9.56097384,17.031959 9.5564216,17.2028819 9.38343657,17.3037991 C9.20772019,17.4047164 8.93185459,17.4038072 8.75704866,17.30289 C7.7027504,16.6610199 6.81779539,16.1327955 5.97836275,15.6482109 C4.18660199,14.6154002 2.60242326,13.7862424 0.149677576,12.5679622 C0.142393996,12.5643255 0.134199968,12.5597797 0.127826835,12.5552339 C-0.0369641703,12.4606808 -0.0469790933,12.312487 0.125095493,12.2124789 C0.303543211,12.1088342 0.604901348,12.1015609 0.791543095,12.196114 C3.24428878,13.4143942 4.82664661,14.2426429 6.61931783,15.2763627 C7.45875046,15.7600381 8.34461592,16.2891717 9.38707836,16.9246776 Z M14.9911561,18.157959 C15.1541262,18.2652404 15.1432009,18.4397999 14.9638427,18.5434447 C14.7981412,18.6398161 14.5350219,18.6370886 14.3702309,18.5425355 C12.0786344,17.0096845 10.3269334,15.895049 8.48418753,14.8322359 C6.6414417,13.770332 4.70856156,12.7602504 2.07281592,11.451963 C1.88617418,11.3446816 1.88162194,11.1928511 2.04823384,11.0964797 C2.22668156,10.992835 2.5280397,10.9864708 2.713771,11.0801148 C5.34951664,12.3884022 7.28239677,13.3984838 9.1251426,14.4603877 C10.9678884,15.5232008 12.7195895,16.6378363 14.9911561,18.157959 Z M20.6805428,0.653818343 C20.4939011,0.546536953 20.4893488,0.394706512 20.6614234,0.294698437 C20.8344085,0.194690362 21.1357666,0.187417047 21.3214979,0.281970136 C23.9563331,1.59025759 25.8901237,2.60033915 27.7328695,3.66224308 C29.5756153,4.72505617 31.3273164,5.83969162 33.5979726,7.35981437 C33.7609427,7.46709576 33.7500173,7.64165531 33.5779427,7.74166338 C33.4058682,7.84167146 33.1427488,7.83894396 32.9779578,7.74439088 C30.6863613,6.21153983 28.9346603,5.09690438 27.0919144,4.03409129 C25.2491686,2.97218736 23.315378,1.9621058 20.6805428,0.653818343 Z M18.7356448,1.75790749 C18.5708538,1.6633544 18.5653911,1.51152396 18.732003,1.41424338 C18.9113612,1.31059865 19.2127193,1.30332533 19.3984506,1.39787842 C21.8511963,2.61615861 23.4344646,3.44440731 25.2262253,4.47812714 C26.0665684,4.96180256 26.9515234,5.49093619 27.9939859,6.12644205 C28.1687918,6.23372344 28.1697022,6.40100968 27.9912545,6.50556357 C27.8155381,6.60648081 27.5387621,6.60557165 27.3639562,6.50465441 C26.3105684,5.86369356 25.4256133,5.33455993 24.5852703,4.84997535 C22.7935095,3.81716468 21.2102412,2.98891598 18.7574955,1.76972663 C18.750212,1.76608997 18.7429284,1.76154415 18.7356448,1.75790749 Z M31.0760329,16.294354 C31.0687493,16.2907173 31.0605553,16.2861715 31.0541822,16.2825348 C30.8839285,16.1843451 30.8793762,16.0325147 31.0450777,15.9361432 C31.2244358,15.8324985 31.525794,15.8252252 31.716988,15.9225058 C34.1697336,17.140786 35.7502706,17.9681255 37.5429418,19.0018453 C38.3823744,19.4855207 39.2691503,20.0146544 40.3134337,20.6510694 C40.4818665,20.7556233 40.4827769,20.9229095 40.3034188,21.0265543 C40.1286128,21.1283807 39.8518368,21.1274715 39.6824935,21.0292818 C38.6281953,20.3865026 37.7414194,19.8573689 36.9019867,19.3736935 C35.1093155,18.3399737 33.5287786,17.5135433 31.0760329,16.294354 Z M29.1200274,17.3934427 C28.9543259,17.2979805 28.9534155,17.1497867 29.1218483,17.0525061 C29.3012065,16.9479522 29.5961915,16.9443155 29.7937586,17.0379595 C32.3238923,18.2953337 34.0938023,19.2199538 35.8764586,20.2482187 C37.2175478,21.0210084 38.5659207,21.8519845 40.2511591,22.9266168 C40.4195919,23.0375348 40.4086665,23.2048211 40.2302188,23.3084658 C40.0581442,23.4084739 39.8004875,23.409383 39.6302338,23.3121024 C37.9249656,22.2238328 36.5765928,21.3928566 35.2355035,20.6200669 C33.4528473,19.591802 31.6829372,18.6671819 29.1528035,17.4107168 C29.1409677,17.4052619 29.1309528,17.3988977 29.1200274,17.3934427 Z M27.2239293,18.5298981 C27.0318249,18.4198892 27.0272727,18.2671496 27.1993473,18.1680507 C27.3723323,18.0671335 27.6736904,18.0607693 27.8648844,18.1580499 C30.4696748,19.4508816 32.3552117,20.4336882 34.1779277,21.4846822 C35.8485989,22.4474872 37.4655538,23.4666604 39.5368219,24.8340435 C39.7052547,24.9440524 39.6952398,25.1122478 39.5158816,25.2158925 C39.3447175,25.3149914 39.0870608,25.3159006 38.9168071,25.21862 C36.8245987,23.8394178 35.2067334,22.8193354 33.5378831,21.8565304 C31.7142566,20.8055364 29.8296302,19.8227298 27.2239293,18.5298981 Z M21.4492337,21.8811687 C21.4410397,21.8775321 21.4337561,21.8729862 21.4264725,21.8693496 C21.2571293,21.7711598 21.252577,21.6193294 21.4237412,21.5193213 C21.5976366,21.4193132 21.8980843,21.4120399 22.0901888,21.5093205 C24.5247255,22.7148724 26.0970684,23.5385753 27.8687993,24.5595668 C28.7218887,25.0514247 29.6214109,25.58965 30.6866345,26.2378841 C30.86053,26.3388014 30.8559777,26.5097243 30.6766196,26.613369 C30.5063659,26.7115588 30.2250376,26.7133771 30.0547839,26.6160965 C29.0004856,25.9733173 28.1146202,25.4441837 27.2742771,24.9605083 C25.4825163,23.9267884 23.9019794,23.1003581 21.4492337,21.8811687 Z M36.290166,27.4644377 C36.4531361,27.5780833 36.4422107,27.7462787 36.2628526,27.8499234 C36.0944198,27.9481131 35.8431362,27.9508406 35.6792557,27.8553784 C35.6683303,27.8499234 35.6583154,27.8435592 35.6492109,27.8362859 C33.3803756,26.3188907 31.6286746,25.2033461 29.7859287,24.140533 C27.9440933,23.078629 26.0093923,22.0685475 23.3781989,20.7620784 C23.3663631,20.7566234 23.3554377,20.7502592 23.3445123,20.7448042 C23.1797213,20.649342 23.1788109,20.5011482 23.3472437,20.4029585 C23.5256914,20.2993137 23.8215869,20.2956771 24.019154,20.3902302 C26.6512578,21.6966993 28.5850484,22.7067808 30.4277942,23.7686848 C32.2696296,24.8314979 34.0213307,25.9470425 36.290166,27.4644377 Z M30.6234494,28.5134315 C30.7927927,28.6243496 30.7818673,28.7916358 30.6079718,28.892553 C30.4358972,28.9925611 30.1727779,28.9961978 30.0025242,28.898008 C28.2972559,27.8115567 26.9488831,26.9796713 25.6087043,26.2068816 C23.8260481,25.1786168 22.056138,24.2539967 19.5260043,22.9975316 C19.3338999,22.8875227 19.3284372,22.7356923 19.4950491,22.6384117 C19.6744073,22.534767 19.9748549,22.5284028 20.1669594,22.6247742 C22.6970931,23.8821485 24.4670031,24.8067686 26.2496594,25.8350334 C27.5907486,26.6078231 28.938211,27.4387993 30.6234494,28.5134315 Z" id="Combined-Shape" fill="#CACACA"></path>
                            <path d="M52.3275174,18.157959 C52.4959502,18.268877 52.4795621,18.4397999 52.3065771,18.539808 C49.9958612,19.8808254 48.8414137,20.5508795 46.5316083,21.8909877 C46.3595337,21.9909958 46.1018771,21.9919049 45.9325338,21.8937152 C43.6427583,20.3626825 41.8919676,19.248047 40.0492218,18.1852339 C38.2055655,17.12333 36.2726854,16.1132484 33.6405815,14.8058701 C33.4475667,14.6958613 33.4430144,14.5440308 33.615089,14.4449319 C35.9248944,13.1039145 37.0802524,12.4338604 39.3900578,11.0928431 C39.5630428,10.992835 39.8653114,10.9855617 40.0565054,11.0828423 C42.6886092,12.3902206 44.6223998,13.4003021 46.4651456,14.462206 C48.306981,15.5250191 50.0595925,16.6396546 52.3275174,18.157959" id="Fill-24" fill="#E7E7E7"></path>
                        </g>
                    </g>
                    <g id="Group-15" transform="translate(23.995363, 216.491499)">
                        <path d="M35.666068,11.2344005 L35.649614,17.1953058 C35.6569269,14.6732789 33.9914202,12.1485096 30.6585785,10.22431 C24.0294595,6.39693531 13.3252422,6.39693531 6.73817222,10.22431 C3.46931817,12.1238287 1.83306293,14.6092912 1.82575006,17.0993244 L1.84311813,11.1384191 C1.84951689,8.64838596 3.48668624,6.16292338 6.7555403,4.26340473 C13.3426103,0.43511592 24.0459134,0.43511592 30.6759466,4.26340473 C34.0087883,6.18760433 35.6733809,8.71237359 35.666068,11.2344005" id="Fill-1" fill="#D6A500"></path>
                        <path d="M37.4747242,16.1337814 C37.4674113,18.8953049 35.6519907,21.6513438 32.0266341,23.7583652 C24.7329578,27.997089 12.8769631,27.997089 5.53483904,23.7583652 C1.83909605,21.6239205 -0.00740428351,18.8230903 -9.14109075e-05,16.0268306 L0.0163625524,11.132386 C0.00904967984,13.9286456 1.85555001,16.7294758 5.55220711,18.8639205 C12.8934171,23.1026443 24.7494118,23.1026443 32.0440022,18.8630064 C35.6684447,16.7568991 37.4847794,13.9999461 37.4920923,11.2393367 L37.4747242,16.1337814 Z" id="Fill-3" fill="#EB9B00"></path>
                        <path d="M6.83908987,18.1157222 C13.4636383,21.9403546 24.1669415,21.9403546 30.7485268,18.1157222 C37.3346827,14.2874334 37.2999466,8.08794568 30.6763122,4.26331331 C24.0462791,0.435024509 13.3420618,0.435024509 6.75499183,4.26331331 C0.174320601,8.08794568 0.209056745,14.2883475 6.83908987,18.1157222 M31.9633778,3.51465798 C39.3055019,7.75429587 39.3384098,14.6247397 32.0438194,18.8634635 C24.749229,23.1031013 12.8941484,23.1031013 5.55202429,18.8634635 C-1.7900998,14.6247397 -1.83489115,7.75429587 5.45969927,3.51465798 C12.7542897,-0.724065798 24.6212537,-0.724065798 31.9633778,3.51465798" id="Fill-6" fill="#FEC502"></path>
                        <path d="M1.87863264,11.7927873 C2.13743435,9.51794426 3.7621372,7.28793804 6.7547176,5.54891632 C13.3408735,1.72154162 24.0450907,1.72154162 30.6751239,5.54891632 C33.718474,7.30597122 35.3710253,9.56424618 35.6296756,11.8635698 C35.3716703,14.140489 33.7456257,16.3736195 30.7485268,18.1157222 C24.1669415,21.9403546 13.4636383,21.9403546 6.83908987,18.1157222 C3.79060396,16.3558973 2.13646658,14.0943774 1.87863264,11.7927873 Z" id="Combined-Shape" fill="#FFFFFF"></path>
                        <path d="M18.2904085,17.894325 C18.2383043,17.902552 18.2099669,17.9062084 18.1816295,17.9089508 C18.1468934,17.9116931 18.1130713,17.9135213 18.0783352,17.9144354 C18.0225745,17.9144354 17.9988077,17.9144354 17.975955,17.9135213 C17.917452,17.910779 17.8964275,17.9089508 17.875403,17.9062084 C17.8169,17.8988956 17.7958755,17.8952391 17.774851,17.8924968 C17.716348,17.8806134 17.6880106,17.8751287 17.6624155,17.8678159 C17.624023,17.8568465 17.5947715,17.8477055 17.5673482,17.8385644 C17.523471,17.8211963 17.5051888,17.8138834 17.4869066,17.8056564 C17.4430294,17.785546 17.4274895,17.7773191 17.4119497,17.7690921 C17.3488761,17.7306995 17.3369927,17.7224725 17.3251093,17.7142455 C17.2940296,17.6904787 17.2784897,17.6776812 17.263864,17.6639695 C17.24741,17.6484297 17.2355266,17.6356321 17.2236432,17.6228346 C17.205361,17.5990678 17.197134,17.5890126 17.1907353,17.5780433 C17.1733672,17.5515341 17.1678825,17.5405648 17.1623979,17.5305096 C17.1486862,17.4994299 17.1422875,17.48389 17.1377169,17.4674361 L15.6166394,11.8063586 C15.5755045,11.6409048 15.6669154,11.4727088 15.8762464,11.3511323 L25.7678207,5.6032144 C26.1215809,5.39753985 26.7038684,5.39753985 27.0594568,5.6032144 C27.4150453,5.80797483 27.4177876,6.14528108 27.0640274,6.35095562 L17.4960477,11.910567 L18.94034,17.3056388 C18.9458247,17.3248351 18.9494811,17.3449455 18.9513093,17.3650559 C18.9522234,17.3979638 18.9513093,17.4107613 18.9503952,17.4235588 C18.9449106,17.4573809 18.9412541,17.4701784 18.9375977,17.4820618 C18.9257143,17.5149698 18.9202296,17.5268532 18.914745,17.5387366 C18.8964628,17.5716445 18.8864076,17.5862703 18.8763524,17.5990678 C18.8544138,17.6274052 18.839788,17.6438591 18.8233341,17.6603131 C18.7949967,17.6840799 18.7821992,17.6950492 18.7675734,17.7060185 C18.7319232,17.7316136 18.7191256,17.7407547 18.7044999,17.7489817 C18.6368558,17.7864601 18.6222301,17.7946871 18.6066902,17.8010859 C18.5682976,17.818454 18.5454449,17.8275951 18.5225922,17.835822 C18.4905984,17.8467913 18.4714021,17.8531901 18.4512917,17.8586748 C18.4083285,17.8705582 18.3918746,17.8742146 18.3745065,17.8778711 C18.327887,17.8879263 18.3096048,17.8915827 18.2904085,17.894325" id="Fill-15" fill="#707070"></path>
                    </g>
                </g>
            </g>
        </g>
    </g>
</svg>