<?xml version="1.0" encoding="UTF-8"?>
<svg width="50px" height="50px" viewBox="0 0 50 50" version="1.1" xmlns="http://www.w3.org/2000/svg" xmlns:xlink="http://www.w3.org/1999/xlink">
    <!-- Generator: sketchtool 50.2 (55047) - http://www.bohemiancoding.com/sketch -->
    <title>0CBA95DC-33CC-4563-8E9A-A6E7592A8178</title>
    <desc>Created with sketchtool.</desc>
    <defs>
        <path d="M19.4220867,26.3376759 C12.3095042,26.3376759 6.52437978,20.5741586 6.52437978,13.4831174 C6.52437978,6.40287973 12.3095042,0.639428372 19.4220867,0.639428372 C26.5454729,0.639428372 32.3305973,6.40287973 32.3305973,13.4831174 C32.3305973,20.5741586 26.5454729,26.3376759 19.4220867,26.3376759 Z" id="path-1"></path>
    </defs>
    <g id="Symbols" stroke="none" stroke-width="1" fill="none" fill-rule="evenodd">
        <g id="ic/2-copy-3" fill-rule="nonzero">
            <g id="Group" transform="translate(6.000000, 4.000000)">
                <path d="M20.1919389,28.8646068 L20.1149163,28.5773192 L19.1473291,24.9683562 L18.1164545,28.8269246 C18.3583808,28.87047 18.6126384,28.8933347 18.8867414,28.8971912 C18.9075165,28.8972902 18.9096615,28.8973956 18.9579373,28.9004479 L18.9583078,28.9004727 C19.0311543,28.905501 19.0838307,28.9080938 19.1490286,28.9080938 C19.2127982,28.9080938 19.2658766,28.9056038 19.3410024,28.9007409 C19.3954199,28.8974999 19.3998885,28.8972902 19.4080512,28.8972902 C19.6762093,28.8935118 19.9370562,28.8827663 20.1919389,28.8646068 Z M15.0771552,40.1041469 C15.0726293,40.1063324 15.0678855,40.1079659 15.0629821,40.1090263 C15.1329731,40.096476 15.1329731,40.096476 15.1322852,40.0965737 C15.1081461,40.1000042 15.0904322,40.1024366 15.0771552,40.1041469 Z M7.20592927,24.780575 L7.71181754,23.8543403 L6.18754564,24.137793 C6.50955901,24.4107735 6.83541082,24.6188847 7.20592927,24.780575 Z M30.0987337,23.3901977 C30.4892489,23.0509985 30.7488747,22.8272529 31.0165333,22.6002259 L29.4991848,22.3297783 L30.0987337,23.3901977 Z M37.2935948,36.2182647 C37.2906126,36.2230103 37.2872199,36.2276894 37.2833924,36.2322255 L37.3056032,36.2067872 C37.3017832,36.2110159 37.2977648,36.2148416 37.2935948,36.2182647 Z" id="Shape" stroke="#99CC33" stroke-width="2" opacity="0.5"></path>
                <g id="Shape">
                    <path stroke="#FFFFFF" stroke-width="4" d="M19.4220867,28.3376759 C11.2057057,28.3376759 4.52437978,21.6795078 4.52437978,13.4831174 C4.52437978,5.29560633 11.2076341,-1.36057163 19.4220867,-1.36057163 C27.6454123,-1.36057163 34.3305973,5.29368134 34.3305973,13.4831174 C34.3305973,21.6814336 27.6473414,28.3376759 19.4220867,28.3376759 Z"></path>
                    <path stroke="#99CC33" stroke-width="2" d="M19.4220867,27.3376759 C11.7572147,27.3376759 5.52437978,21.1264443 5.52437978,13.4831174 C5.52437978,5.84880189 11.7590121,-0.360571628 19.4220867,-0.360571628 C27.0941631,-0.360571628 33.3305973,5.84700693 33.3305973,13.4831174 C33.3305973,21.1282401 27.0959613,27.3376759 19.4220867,27.3376759 Z"></path>
                </g>
                <path d="M28.2076447,11.8749636 C28.196841,11.8965707 28.2076447,11.918112 28.2076447,11.9397193 C28.196841,11.9936713 28.1752339,12.0368857 28.1536926,12.0908378 C28.142889,12.1447899 28.1320854,12.198742 28.0996747,12.2634976 C28.0565262,12.3390568 28.0025741,12.4038125 27.9486221,12.4793717 C27.9270149,12.5009789 27.9162113,12.5441274 27.8838664,12.5657346 L24.4408811,15.8576014 L25.2611634,20.4985994 C25.3259191,20.9087406 25.1639969,21.3188817 24.8294151,21.5562972 C24.6459516,21.696612 24.4192738,21.7721713 24.192596,21.7721713 C24.0199363,21.7721713 23.8580141,21.7290229 23.696158,21.64266 L19.4220867,19.4409017 L15.1588191,21.64266 C14.7918924,21.836927 14.3493405,21.8045821 14.0255621,21.5562972 C13.6909802,21.3188817 13.5290581,20.9087406 13.5938138,20.4985994 L14.4140962,15.8576014 L10.9711109,12.5657346 C10.9387659,12.5441274 10.9279624,12.5009789 10.9063552,12.4793717 C10.8524031,12.4038125 10.798451,12.3390568 10.7553026,12.2634976 C10.7228918,12.1987419 10.7120882,12.1447898 10.7012846,12.0908378 C10.6797432,12.0368857 10.6581361,11.9936713 10.6473325,11.9397193 C10.6473325,11.9181121 10.6581361,11.8965708 10.6473325,11.8749636 C10.6473325,11.7994043 10.6581361,11.7238451 10.6689396,11.6482858 C10.6689396,11.5835301 10.6797432,11.5187745 10.7012845,11.4648224 C10.7120882,11.4000667 10.7553025,11.3461146 10.7876474,11.281359 C10.8200582,11.2166033 10.8524031,11.1518477 10.9063552,11.0978298 C10.9171588,11.0762885 10.9171588,11.0546813 10.9387659,11.0438777 C10.9711109,11.0115328 11.0143252,10.9899256 11.0466701,10.9683185 C11.1006221,10.9143664 11.1653778,10.871218 11.2301993,10.8388072 C11.294955,10.8064623 11.3597106,10.7848551 11.435204,10.763248 C11.4784184,10.7525103 11.5215669,10.730903 11.5647813,10.7200995 L16.3352905,10.0401321 L18.4614896,5.79847168 C18.4830968,5.76612674 18.5155075,5.7445196 18.5370488,5.7013052 C18.5802632,5.64735312 18.6234117,5.58259742 18.6773638,5.52864545 C18.7313158,5.48549699 18.7853338,5.4422826 18.8392858,5.39913414 C18.8824343,5.377527 18.9040415,5.34518207 18.94719,5.32357492 C18.9687971,5.31277129 18.9903384,5.31277129 19.0227492,5.30196778 C19.0875049,5.26962284 19.1522605,5.25881932 19.2278197,5.2480157 C19.2925754,5.23721207 19.357331,5.21567076 19.4220867,5.21567076 C19.497646,5.21567076 19.5624017,5.23721207 19.6271573,5.2480157 C19.7027165,5.25881932 19.7674722,5.26962284 19.8322278,5.30196778 C19.8646386,5.3127714 19.8861799,5.3127714 19.907787,5.32357492 C19.9509355,5.34518207 19.9725427,5.377527 20.0156912,5.39913414 C20.0696433,5.4422826 20.1236612,5.48549699 20.1776132,5.52864545 C20.2315653,5.58259752 20.2747138,5.64735323 20.3179282,5.7013052 C20.3394695,5.7445196 20.3718803,5.76612674 20.3934874,5.79847168 L22.5196865,10.0401321 L27.2901958,10.7200995 C27.3334102,10.7309031 27.3765586,10.7525103 27.419773,10.763248 C27.4952664,10.7848551 27.560022,10.8064624 27.6247777,10.8388072 C27.6895993,10.871218 27.754355,10.9143664 27.808307,10.9683185 C27.840652,10.9899256 27.8838662,11.0115329 27.9162112,11.0438777 C27.9378183,11.0546813 27.9378183,11.0762885 27.9486219,11.0978298 C28.002574,11.1518477 28.034919,11.2166034 28.0673297,11.281359 C28.0996747,11.3461147 28.142889,11.4000668 28.1536926,11.4648224 C28.1752339,11.5187745 28.1860375,11.5835302 28.1860375,11.6482858 C28.196841,11.7238451 28.2076447,11.7994043 28.2076447,11.8749636 Z" id="Shape" fill="#99CC33"></path>
            </g>
        </g>
    </g>
</svg>