<svg xmlns="http://www.w3.org/2000/svg" width="19" height="19"><title>4587ECDE-FE44-43A1-9933-C8F7EBD0B464</title><desc>Created with sketchtool.</desc><g fill="none"><g fill="#F57D00"><g><path d="M12.56 13.14h-7.1c-.57 0-.96-.35-.96-.92 0-.57.4-.92.96-.92h7.1c.57 0 .96.35.96.92 0 .57-.4.92-.96.92m-7.1-8.17h3.92c.54 0 .97.36.97.9s-.43.92-.97.92H5.46c-.54 0-.97-.4-.97-.93 0-.54.42-.9.96-.9m11.27 1.8c-.12 0-.5.02-1.12.02-.82 0-.73-.8-.73-.8 0-3.27-2.67-6-5.9-6H5.84C2.6 0 0 2.65 0 5.93v6.25c0 3.27 2.6 5.93 5.83 5.93h6.38c3.23 0 5.84-2.65 5.84-5.92 0 0 .06-2.28.06-3.97 0-.8-.63-1.42-1.37-1.42"/></g></g></g></svg>