<svg xmlns="http://www.w3.org/2000/svg" width="50" height="50"><title>B64C71C9-7B33-4B10-9A0D-D323BD8D0FAE</title><desc>Created with sketchtool.</desc><g fill="none"><g fill="#9c3"><g><path fill-rule="nonzero" d="M15.7 8c-3 0-5.64.67-7.93 2L4.12 39.17c2.9-1.05 5.84-1.58 8.78-1.58 2.9 0 6 .5 9.35 1.53-.08-.3-.12-.6-.12-.93l.54-29.5c-2.07-.47-4.4-.7-6.97-.7zm13.05 31.13c3.35-1.02 6.46-1.53 9.35-1.53 2.94 0 5.87.53 8.78 1.58l-3.65-29.2C40.93 8.7 38.3 8 35.3 8c-2.58 0-4.9.23-6.97.7l.54 29.47c0 .33-.03.65-.12.96zM26.7 7.03C29.22 6.36 32.1 6 35.3 6c3.48 0 6.55.8 9.22 2.43.36.22.6.6.66 1.02l3.8 30.47c.1.77-.44 1.47-1.2 1.57-.24.02-.48 0-.7-.1-3-1.2-6-1.8-8.98-1.8-3.35 0-7.06.75-11.16 2.24-.93.35-1.95.35-2.88 0-4.1-1.5-7.82-2.24-11.16-2.24-3 0-6 .6-8.98 1.8-.72.3-1.53-.06-1.82-.78-.1-.22-.12-.46-.1-.7L5.83 9.45c.05-.42.3-.8.66-1.02C9.15 6.8 12.22 6 15.7 6c3.2 0 6.08.35 8.6 1.04L24.5 18l-.37 20.2c0 .8.6 1.4 1.37 1.4.78 0 1.4-.64 1.37-1.4L26.5 18l.2-10.96z"/><path d="M18.5 42.4c0-.78-2.5-1.4-5.6-1.4-3.1 0-5.6.62-5.6 1.4 0 0 11.2 0 11.2 0zM43.7 42.4c0-.78-2.5-1.4-5.6-1.4-3.1 0-5.6.62-5.6 1.4 0 0 11.2 0 11.2 0z" opacity=".5"/></g></g></g></svg>