<?xml version="1.0" encoding="UTF-8"?>
<svg width="50px" height="50px" viewBox="0 0 50 50" version="1.1" xmlns="http://www.w3.org/2000/svg" xmlns:xlink="http://www.w3.org/1999/xlink">
    <!-- Generator: sketchtool 50.2 (55047) - http://www.bohemiancoding.com/sketch -->
    <title>B64C71C9-7B33-4B10-9A0D-D323BD8D0FAE</title>
    <desc>Created with sketchtool.</desc>
    <defs></defs>
    <g id="Symbols" stroke="none" stroke-width="1" fill="none" fill-rule="evenodd">
        <g id="ic/2-copy-4" fill="#99CC33">
            <g id="Group" transform="translate(2.000000, 6.000000)">
                <path d="M13.7006534,2 C10.688304,2 8.05618674,2.66605243 5.76789133,3.99260464 L2.11922605,33.1817749 C5.03419297,32.1274581 7.96422808,31.5974073 10.9008695,31.5974073 C13.7909846,31.5974073 16.9071142,32.1107104 20.2516074,33.129166 C20.1696001,32.8346742 20.1258244,32.5238931 20.1259209,32.2026222 L20.6719847,2.69298986 C18.6002334,2.23252095 16.2765141,2 13.7006534,2 Z M26.7529711,33.1277094 C30.0956517,32.110221 33.2101876,31.5974073 36.0989245,31.5974073 C39.0355895,31.5974073 41.9656481,32.1274666 44.8806385,33.1818017 L41.2319246,3.99261737 C38.9436241,2.66605668 36.3114996,2 33.2991406,2 C30.7232849,2 28.3995645,2.23252005 26.3278092,2.69298603 L26.8735305,32.1661973 C26.879707,32.4997761 26.8374417,32.8224468 26.7529711,33.1277094 Z M24.7033635,1.03532112 C27.2235127,0.345109217 30.0887721,0 33.2991406,0 C36.7769414,0 39.8497412,0.810002171 42.5175399,2.43000651 C42.8829942,2.65191813 43.1269957,3.02867546 43.1800271,3.45292695 L46.9890419,33.9244959 C47.0849427,34.691702 46.5407422,35.3913884 45.7735361,35.4872891 C45.5381361,35.5167141 45.2991195,35.4858367 45.0789255,35.3975556 C42.0855918,34.1974568 39.0922582,33.5974073 36.0989245,33.5974073 C32.7548015,33.5974073 29.0362135,34.3463374 24.9431605,35.8441975 C24.0112007,36.1852433 22.9885768,36.1852435 22.056619,35.8441922 C17.9635717,34.3463356 14.2449885,33.5974073 10.9008695,33.5974073 C7.90752707,33.5974073 4.91418464,34.1974603 1.92084222,35.3975662 C1.20322884,35.685283 0.388250909,35.3367755 0.100540692,34.6191594 C0.0122631077,34.3989747 -0.018613165,34.159968 0.0108105987,33.9245779 L3.81978891,3.45290999 C3.87281936,3.02866641 4.11681633,2.65191615 4.4822603,2.43000277 C7.15005754,0.810000923 10.2228552,0 13.7006534,0 C16.9110216,0 19.7762807,0.345109149 22.2964306,1.03532745 L22.4997256,12.0148428 L22.1259208,32.2032226 C22.1256853,32.9876191 22.7409408,33.6028747 23.499897,33.6028747 C24.2841634,33.5885889 24.8879235,32.9620487 24.8738732,32.2032226 L24.5000684,12.0148428 L24.7033635,1.03532112 Z" id="Combined-Shape" fill-rule="nonzero"></path>
                <path d="M16.5004373,36.3971906 C16.5004373,35.6240516 13.9934254,34.9972986 10.9008695,34.9972986 C7.8083136,34.9972986 5.30130171,35.6240516 5.30130171,36.3971906 C5.30130171,36.3971906 16.5004373,36.3971906 16.5004373,36.3971906 Z" id="Oval-3" opacity="0.5"></path>
                <path d="M41.6984923,36.3971906 C41.6984923,35.6240516 39.1914804,34.9972986 36.0989245,34.9972986 C33.0063686,34.9972986 30.4993567,35.6240516 30.4993567,36.3971906 C30.4993567,36.3971906 41.6984923,36.3971906 41.6984923,36.3971906 Z" id="Oval-3" opacity="0.5"></path>
            </g>
        </g>
    </g>
</svg>