<?xml version="1.0" encoding="UTF-8"?>
<svg width="50px" height="50px" viewBox="0 0 50 50" version="1.1" xmlns="http://www.w3.org/2000/svg" xmlns:xlink="http://www.w3.org/1999/xlink">
    <!-- Generator: sketchtool 50.2 (55047) - http://www.bohemiancoding.com/sketch -->
    <title>B1F52D1F-47E4-4B94-B1C8-A3A85CB33D84</title>
    <desc>Created with sketchtool.</desc>
    <defs></defs>
    <g id="Symbols" stroke="none" stroke-width="1" fill="none" fill-rule="evenodd">
        <g id="ic/2-copy" fill="#99CC33" fill-rule="nonzero">
            <g id="Group" transform="translate(5.000000, 5.000000)">
                <path d="M20.5,39 C30.7172679,39 39,30.7172679 39,20.5 C39,10.2827321 30.7172679,2 20.5,2 C10.2827321,2 2,10.2827321 2,20.5 C2,30.7172679 10.2827321,39 20.5,39 Z M20.5,41 C9.17816263,41 0,31.8218374 0,20.5 C0,9.17816263 9.17816263,0 20.5,0 C31.8218374,0 41,9.17816263 41,20.5 C41,31.8218374 31.8218374,41 20.5,41 Z" id="Oval-6"></path>
                <path d="M29.2546052,27.8564448 C29.6993711,28.1838615 29.7945014,28.8098392 29.4670846,29.2546052 C29.1396679,29.6993711 28.5136902,29.7945014 28.0689243,29.4670846 L19.3630419,23.0582041 C19.1070324,22.8697414 18.9558824,22.5707821 18.9558824,22.2528842 L18.9558824,6.89705882 C18.9558824,6.34477407 19.4035976,5.89705882 19.9558824,5.89705882 C20.5081671,5.89705882 20.9558824,6.34477407 20.9558824,6.89705882 L20.9558824,21.7472969 L29.2546052,27.8564448 Z" id="Line-2" opacity="0.5"></path>
            </g>
        </g>
    </g>
</svg>