<svg xmlns="http://www.w3.org/2000/svg" width="50" height="50"><title>B1F52D1F-47E4-4B94-B1C8-A3A85CB33D84</title><desc>Created with sketchtool.</desc><g fill="none"><g fill="#9c3" fill-rule="nonzero"><g><path d="M25.5 44C35.72 44 44 35.72 44 25.5S35.72 7 25.5 7 7 15.28 7 25.5 15.28 44 25.5 44zm0 2C14.18 46 5 36.82 5 25.5S14.18 5 25.5 5 46 14.18 46 25.5 36.82 46 25.5 46z"/><path d="M34.25 32.86c.45.32.54.95.22 1.4-.33.44-.96.53-1.4.2l-8.7-6.4c-.26-.2-.4-.5-.4-.8V11.9c0-.56.43-1 1-1 .54 0 1 .44 1 1v14.85l8.28 6.1z" opacity=".5"/></g></g></g></svg>