<svg xmlns="http://www.w3.org/2000/svg" width="25" height="25" viewBox="0 0 25 16"><title>8A1B8CA1-8387-47F4-83C2-A7C95ED5425B</title><desc>Created with sketchtool.</desc><g fill="none"><g fill="#DD4B39"><g><path d="M.84 7.9C.9 4.07 4.44.7 8.28.83c1.84-.08 3.57.72 4.98 1.85-.6.68-1.22 1.34-1.9 1.96-1.68-1.18-4.1-1.5-5.8-.16-2.42 1.68-2.53 5.65-.2 7.46 2.27 2.06 6.56 1.04 7.2-2.12-1.43 0-2.86 0-4.28-.04 0-.85 0-1.7 0-2.54 2.38 0 4.75 0 7.13 0 .15 2-.1 4.13-1.34 5.78-1.85 2.6-5.58 3.38-8.5 2.26C2.67 14.14.6 11.06.85 7.9"/><path d="M20.6 5.4h2.12c0 .7 0 1.4 0 2.12.72 0 1.43 0 2.14 0v2.14c-.7 0-1.42 0-2.13 0 0 .73 0 1.44 0 2.15h-2.14c0-.7 0-1.4-.02-2.12-.7 0-1.42-.02-2.13-.02V7.53c.7 0 1.42 0 2.13 0 0-.72 0-1.43.02-2.14"/></g></g></g></svg>