<svg xmlns="http://www.w3.org/2000/svg" width="47" height="47"><title>ic/1</title><desc>Created with Sketch.</desc><g fill="none"><g fill="#9c3"><g><g><path id="Combined-Shape" d="M43.35 30.62c-.2 0-.43.06-.72.2-3.73 1.8-6.54 3.17-8.4 4.07-.94.44-1.65.78-2.1 1-.34.17-.34.17-.54.27-.78.65-2.68.9-6.95 1.26-1.43.12-2.95.23-4.5.32-.5.03-1 .06-1.44.08-.23.02-.23.02-.38.03-.1 0-.1 0 .04-2l-.18-.04c-.05 0-.05 0-.13 0L28.5 34.8c.35-.03.55-.2.55-.35 0-.16-.2-.34-.45-.34-2.65.1-2.65.1-4.35.14-1.2.04-1.2.04-1.48.05-1.4 0-2.38-.2-4.17-.73-.08-.03-.08-.03-.17-.05-.12-.04-.12-.04-.23-.07-1.78-.52-2.86-.72-4.46-.72-1.37 0-3.9.56-5.83 1.24v.6c.02.55-.27 1.07-.75 1.35-.5.3-1.1.3-1.58 0-.48-.28-.78-.8-.77-1.35v-2.94H2.1V44.6h2.7v-2.94c0-.56.3-1.08.77-1.37.5-.3 1.1-.3 1.58 0 .48.28.77.8.76 1.35V42c3.46-.52 6.12-.35 10.83.38.4.06.57.08.78.12 2.4.36 3.9.5 5.56.5.43 0 1.73-.47 3.2-1.24 1.5-.78 3.34-1.9 5.5-3.3.2-.13.43-.28.66-.43.56-.37 1.13-.75 1.72-1.15 2-1.35 7.52-5.2 7.77-5.4.1-.05.13-.08.14-.17 0-.1-.03-.23-.12-.36-.14-.2-.32-.32-.57-.32zM30.28 34.6c.02 0 .03-.02.04-.02h-.04zm.95-.53c.47-.22 1.17-.56 2.1-1.02 1.87-.9 4.68-2.26 8.4-4.07.57-.27 1.12-.4 1.64-.4.95 0 1.73.47 2.24 1.2.37.53.53 1.17.46 1.77-.07.66-.4 1.22-1 1.63-.24.16-5.76 4.03-7.78 5.4-.6.4-1.17.78-1.73 1.15-.24.15-.47.3-.7.45-2.18 1.43-4.08 2.57-5.64 3.4-1.74.9-3.28 1.47-4.14 1.47-1.8 0-3.36-.16-5.85-.54-.2-.02-.38-.05-.78-.1-5.03-.78-7.54-.9-11.34-.18l-.24.05v2.36H2.1C.97 46.63.06 45.7.06 44.6V31.62c0-1.13.9-2.04 2.04-2.04h4.74v2.6c2.16-.83 5.17-1.5 6.9-1.5 1.83 0 3.08.22 5.03.8.12.02.12.02.24.06.1.02.1.02.17.05 1.62.48 2.45.65 3.6.65.2 0 .2 0 1.42-.04 1.7-.05 1.7-.05 4.34-.12 1.28-.05 2.37.88 2.53 2.07.04-.02.1-.05.16-.08zm-25.36.5zm0 7.06zm3.2-28.74c-.47 0-.85-.37-.85-.83v-4.1c0-.44.38-.8.85-.8s.85.36.85.8v4.1c0 .46-.38.82-.85.82zM30.5 7.15c-.48 0-.86-.37-.86-.82v-4.1c0-.45.38-.8.85-.8.46 0 .84.35.84.8v4.1c0 .45-.38.82-.85.82zM15.2 12.9c-.48 0-.86-.37-.86-.83v-4.1c0-.44.38-.8.85-.8.46 0 .84.36.84.8v4.1c0 .46-.38.82-.85.82zm21.4-5.74c-.46 0-.84-.37-.84-.82v-4.1c0-.45.38-.8.85-.8.48 0 .86.35.86.8v4.1c0 .45-.38.82-.85.82zm-24.47 4.7c-.47 0-.85-.35-.85-.8v-4.1c0-.45.38-.82.85-.82s.85.37.85.82v4.1c0 .45-.38.8-.85.8zm21.42-5.72c-.47 0-.85-.37-.85-.82v-4.1c0-.45.38-.8.85-.8s.85.35.85.8v4.1c0 .45-.38.82-.85.82zM12.8 22.87c.3 0 .52-.23.52-.5 0-.3-.23-.52-.5-.52h-1.03c-.85 0-1.54-.7-1.54-1.53 0-.85.7-1.53 1.53-1.53v-.52c0-.28.22-.5.5-.5s.5.22.5.5v.5c.85 0 1.54.7 1.54 1.54 0 .28-.23.5-.5.5-.3 0-.52-.22-.52-.5s-.23-.5-.5-.5h-1.03c-.3 0-.52.22-.52.5s.23.5.5.5h1.03c.85 0 1.54.7 1.54 1.54 0 .84-.7 1.53-1.53 1.53v.5c0 .28-.22.5-.5.5s-.5-.22-.5-.5v-.5c-.85 0-1.54-.7-1.54-1.54 0-.28.23-.5.5-.5.3 0 .52.22.52.5s.23.5.5.5h1.03zm21.15-2.73c.4 0 .73-.34.73-.76 0-.4-.33-.75-.73-.75h-1.48c-1.2 0-2.2-1.02-2.2-2.27 0-1.26 1-2.27 2.2-2.27v-.77c0-.42.33-.76.74-.76.42 0 .75.34.75.76v.76c1.2 0 2.2 1 2.2 2.26 0 .4-.33.75-.73.75-.4 0-.74-.33-.74-.74 0-.42-.33-.76-.73-.76h-1.48c-.4 0-.73.34-.73.76 0 .4.33.75.73.75h1.48c1.2 0 2.2 1.03 2.2 2.28 0 1.26-1 2.27-2.2 2.27v.76c0 .43-.33.77-.74.77-.4 0-.73-.34-.73-.76v-.75c-1.2 0-2.2-1-2.2-2.27 0-.4.33-.75.73-.75.4 0 .74.34.74.75 0 .42.33.76.73.76h1.48z" opacity=".5"/><path fill-rule="nonzero" d="M33.2 25.52c4.23 0 7.66-3.43 7.66-7.65 0-4.22-3.43-7.65-7.65-7.65-4.2 0-7.64 3.43-7.64 7.65 0 4.22 3.43 7.65 7.65 7.65zm0 2.04c-5.34 0-9.68-4.34-9.68-9.7 0-5.34 4.34-9.68 9.7-9.68 5.34 0 9.68 4.34 9.68 9.7 0 5.34-4.34 9.68-9.7 9.68zm-20.9 1.02c-3.94 0-7.14-3.2-7.14-7.14 0-3.94 3.2-7.14 7.14-7.14 3.94 0 7.14 3.2 7.14 7.14 0 3.94-3.2 7.14-7.14 7.14zm0-2.04c2.82 0 5.1-2.28 5.1-5.1s-2.28-5.1-5.1-5.1-5.1 2.28-5.1 5.1 2.28 5.1 5.1 5.1z"/></g></g></g></g></svg>