<?xml version="1.0" encoding="UTF-8"?>
<svg width="47px" height="47px" viewBox="0 0 47 47" version="1.1" xmlns="http://www.w3.org/2000/svg" xmlns:xlink="http://www.w3.org/1999/xlink">
    <!-- Generator: Sketch 51.1 (57501) - http://www.bohemiancoding.com/sketch -->
    <title>ic/1</title>
    <desc>Created with Sketch.</desc>
    <defs></defs>
    <g id="Symbols" stroke="none" stroke-width="1" fill="none" fill-rule="evenodd">
        <g id="Group-6" transform="translate(-120.000000, -16.000000)" fill="#99CC33">
            <g id="Group" transform="translate(102.000000, 0.000000)">
                <g id="ic/1" transform="translate(15.000000, 15.000000)">
                    <path d="M46.3544602,31.6200161 C46.1620599,31.6188544 45.9223561,31.6786759 45.6322529,31.8193799 C41.8965091,33.62815 39.0931943,34.9852771 37.2222906,35.8907698 C36.2867805,36.3435443 35.5843809,36.6834065 35.1150566,36.9103733 C34.7921297,37.0665194 34.7921297,37.0665194 34.5855069,37.1663306 C33.8197091,37.8204132 31.9211846,38.0620189 27.6454756,38.4260749 C26.2188402,38.5475461 24.6954002,38.6554283 23.1586551,38.7498777 C22.6370745,38.7819344 22.1602989,38.8095951 21.7070494,38.8346802 C21.4691148,38.8477545 21.4691148,38.8477545 21.3172206,38.8559663 C21.2327747,38.8603915 21.2327747,38.8603915 21.3637362,36.8474234 L21.1756028,36.8244209 C21.125935,36.8242009 21.125935,36.8242009 21.0473624,36.8290035 L31.4903376,35.7898255 C31.8526194,35.7741795 32.0498714,35.5977831 32.0498714,35.451654 C32.0498714,35.2907313 31.8526927,35.1059174 31.6036759,35.1143076 C28.9461221,35.1936595 28.9461221,35.1936595 27.2539718,35.2441522 C26.0503362,35.2801432 26.0503362,35.2801432 25.7701396,35.2878703 C24.3795869,35.2878703 23.3870441,35.0894302 21.6001525,34.5658746 C21.5157816,34.5411373 21.5157816,34.5411373 21.4318403,34.5165026 C21.3137808,34.4818719 21.3137808,34.4818719 21.1964106,34.4476017 C19.4165477,33.928962 18.3423839,33.7311824 16.7432584,33.7311824 C15.372323,33.7311824 12.8289338,34.2885916 10.9139765,34.966304 L10.9139308,35.5562248 C10.9218013,36.117036 10.628802,36.6397642 10.1451982,36.9242004 C9.65895407,37.2101895 9.05647807,37.2101895 8.57023397,36.9242004 C8.08663018,36.6397642 7.79363086,36.117036 7.80140092,35.5705382 L7.80140092,32.628651 L5.1,32.628651 L5.1,45.5875263 L7.80142687,45.5875263 L7.80150135,42.6599147 C7.79363086,42.0991036 8.08663018,41.5763753 8.57023397,41.2919391 C9.05647807,41.00595 9.65895407,41.00595 10.1451982,41.2919391 C10.628802,41.5763753 10.9218013,42.0991036 10.9140312,42.6456013 L10.9140312,43.0097755 C14.3588127,42.4807965 17.020364,42.6539652 21.7330175,43.3769751 C22.1246885,43.4371018 22.3049295,43.4646855 22.5141184,43.4963403 C24.9118011,43.8591612 26.3909613,44.0107171 28.055003,44.009231 C28.486018,44.009231 29.7906732,43.5285896 31.264132,42.7584093 C32.7623561,41.9752586 34.6035932,40.8654704 36.7460831,39.4713093 C36.9688059,39.3263742 37.1947014,39.1784237 37.4238741,39.0274132 C37.9756571,38.6638227 38.5450681,38.2834048 39.1354601,37.8842912 C41.1427943,36.5273036 46.6557113,32.6659515 46.9111704,32.4916438 C47.0083258,32.4252778 47.0262831,32.3950789 47.0357348,32.3134072 C47.0474479,32.2120409 47.0093435,32.0667912 46.9242921,31.9418592 C46.7782381,31.7273534 46.5984826,31.6214379 46.3544602,31.6200161 Z M33.281261,35.5928837 C33.2955721,35.5872149 33.3075414,35.5820374 33.3170459,35.5774387 C33.3136825,35.579066 33.3103061,35.5807421 33.3069171,35.5824725 L33.281261,35.5928837 Z M34.2269105,35.0738558 C34.6960052,34.847 35.3982381,34.5072185 36.333574,34.0545283 C38.2043623,33.1490915 41.0075935,31.7920049 44.7426291,29.9835778 C45.3010559,29.7127329 45.8453171,29.5769047 46.3665618,29.5800521 C47.3165537,29.5855871 48.103773,30.0494452 48.6105531,30.7937635 C48.9653864,31.3149505 49.1315117,31.9481793 49.0622301,32.5477509 C48.985358,33.2119986 48.6515906,33.7732964 48.0614042,34.176447 C47.8206857,34.3406969 42.3028975,38.2054609 40.2779626,39.5743468 C39.6811469,39.977803 39.1050946,40.3626579 38.5463311,40.7308481 C38.3139474,40.8839744 38.0847918,41.0340601 37.8587378,41.181163 C35.6665955,42.6076339 33.7744403,43.7481125 32.2091472,44.5663215 C30.4550149,45.4832104 28.918606,46.049231 28.0559142,46.0492306 C26.2662868,46.0508293 24.7002298,45.8903699 22.2088973,45.5133777 C21.9977209,45.4814222 21.8156458,45.4535579 21.4236625,45.3933827 C16.3855628,44.6204432 13.8777188,44.5061509 10.0831738,45.2222071 L9.84140092,45.2678313 L9.84140092,47.6275263 L5.1,47.6275263 C3.97333911,47.6275263 3.06,46.7141872 3.06,45.5875263 L3.06,32.628651 C3.06,31.5019901 3.97333911,30.588651 5.1,30.588651 L9.84140092,30.588651 L9.84140092,31.608651 L9.84136106,33.1864592 C11.9992826,32.3709806 15.0118404,31.6911824 16.7432584,31.6911824 C18.5693209,31.6911824 19.8179613,31.9210874 21.7671166,32.4890577 C21.8872292,32.5241287 21.8872292,32.5241287 22.0061965,32.5590259 C22.0902237,32.5836858 22.0902237,32.5836858 22.173754,32.6081766 C23.7881388,33.0811881 24.6218374,33.2478703 25.7749346,33.2478816 C25.9779439,33.2411925 25.9779439,33.2411925 27.1931449,33.2050592 C28.8852489,33.154568 28.8852489,33.154568 31.5388514,33.0753416 C32.8164848,33.0322547 33.9092708,33.9612038 34.0696377,35.1499018 C34.1122177,35.1293137 34.1632912,35.1046179 34.2269105,35.0738558 Z M8.87403122,35.5705382 L8.87403122,35.5587585 C8.87397379,35.5626865 8.87397362,35.5666134 8.87403122,35.5705382 Z M8.87413165,42.6312879 C8.87406925,42.6357339 8.87406916,42.6401726 8.87413081,42.6446028 L8.87413165,42.6312879 Z M12.07,13.8923999 C11.600558,13.8923999 11.22,13.5257595 11.22,13.0734856 L11.22,8.97891427 C11.22,8.52664041 11.600558,8.16 12.07,8.16 C12.539442,8.16 12.92,8.52664041 12.92,8.97891427 L12.92,13.0734856 C12.92,13.5257595 12.539442,13.8923999 12.07,13.8923999 Z M33.49,8.16 C33.020558,8.16 32.64,7.79335959 32.64,7.34108573 L32.64,3.24651439 C32.64,2.79424052 33.020558,2.42760012 33.49,2.42760012 C33.959442,2.42760012 34.34,2.79424052 34.34,3.24651439 L34.34,7.34108573 C34.34,7.79335959 33.959442,8.16 33.49,8.16 Z M18.19,13.8923999 C17.720558,13.8923999 17.34,13.5257595 17.34,13.0734856 L17.34,8.97891427 C17.34,8.52664041 17.720558,8.16 18.19,8.16 C18.659442,8.16 19.04,8.52664041 19.04,8.97891427 L19.04,13.0734856 C19.04,13.5257595 18.659442,13.8923999 18.19,13.8923999 Z M39.61,8.16 C39.140558,8.16 38.76,7.79335959 38.76,7.34108573 L38.76,3.24651439 C38.76,2.79424052 39.140558,2.42760012 39.61,2.42760012 C40.079442,2.42760012 40.46,2.79424052 40.46,3.24651439 L40.46,7.34108573 C40.46,7.79335959 40.079442,8.16 39.61,8.16 Z M15.13,12.8723999 C14.660558,12.8723999 14.28,12.5057595 14.28,12.0534856 L14.28,7.95891427 C14.28,7.50664041 14.660558,7.14 15.13,7.14 C15.599442,7.14 15.98,7.50664041 15.98,7.95891427 L15.98,12.0534856 C15.98,12.5057595 15.599442,12.8723999 15.13,12.8723999 Z M36.55,7.14 C36.080558,7.14 35.7,6.77335959 35.7,6.32108573 L35.7,2.22651439 C35.7,1.77424052 36.080558,1.40760012 36.55,1.40760012 C37.019442,1.40760012 37.4,1.77424052 37.4,2.22651439 L37.4,6.32108573 C37.4,6.77335959 37.019442,7.14 36.55,7.14 Z M15.81,23.8679996 C16.0916652,23.8679996 16.32,23.6396648 16.32,23.3579996 C16.32,23.0763344 16.0916652,22.8479996 15.81,22.8479996 L14.79,22.8479996 C13.9450043,22.8479996 13.26,22.1629953 13.26,21.3179996 C13.26,20.4730039 13.9450043,19.7879996 14.79,19.7879996 L14.79,19.2779996 C14.79,18.9963344 15.0183348,18.7679996 15.3,18.7679996 C15.5816652,18.7679996 15.81,18.9963344 15.81,19.2779996 L15.81,19.7879996 C16.6549957,19.7879996 17.34,20.4730039 17.34,21.3179996 C17.34,21.5996648 17.1116652,21.8279996 16.83,21.8279996 C16.5483348,21.8279996 16.32,21.5996648 16.32,21.3179996 C16.32,21.0363344 16.0916652,20.8079996 15.81,20.8079996 L14.79,20.8079996 C14.5083348,20.8079996 14.28,21.0363344 14.28,21.3179996 C14.28,21.5996648 14.5083348,21.8279996 14.79,21.8279996 L15.81,21.8279996 C16.6549956,21.8279996 17.34,22.513004 17.34,23.3579996 C17.34,24.2029953 16.6549956,24.8879996 15.81,24.8879996 L15.81,25.3979996 C15.81,25.6796648 15.5816652,25.9079996 15.3,25.9079996 C15.0183348,25.9079996 14.79,25.6796648 14.79,25.3979996 L14.79,24.8879996 C13.9450043,24.8879996 13.26,24.2029953 13.26,23.3579996 C13.26,23.0763344 13.4883348,22.8479996 13.77,22.8479996 C14.0516652,22.8479996 14.28,23.0763344 14.28,23.3579996 C14.28,23.6396648 14.5083348,23.8679996 14.79,23.8679996 L15.81,23.8679996 Z M36.9455769,21.1397802 C37.3518248,21.1397802 37.6811538,20.8010418 37.6811538,20.3831868 C37.6811538,19.9653318 37.3518248,19.6265934 36.9455769,19.6265934 L35.4744231,19.6265934 C34.2556793,19.6265934 33.2676923,18.6103782 33.2676923,17.3568132 C33.2676923,16.1032482 34.2556793,15.087033 35.4744231,15.087033 L35.4744231,14.3304396 C35.4744231,13.9125846 35.8037521,13.5738462 36.21,13.5738462 C36.6162479,13.5738462 36.9455769,13.9125846 36.9455769,14.3304396 L36.9455769,15.087033 C38.1643207,15.087033 39.1523077,16.1032482 39.1523077,17.3568132 C39.1523077,17.7746682 38.8229787,18.1134066 38.4167308,18.1134066 C38.0104829,18.1134066 37.6811538,17.7746682 37.6811538,17.3568132 C37.6811538,16.9389582 37.3518248,16.6002198 36.9455769,16.6002198 L35.4744231,16.6002198 C35.0681752,16.6002198 34.7388462,16.9389582 34.7388462,17.3568132 C34.7388462,17.7746682 35.0681752,18.1134066 35.4744231,18.1134066 L36.9455769,18.1134066 C38.1643206,18.1134066 39.1523076,19.1296218 39.1523076,20.3831868 C39.1523076,21.6367518 38.1643206,22.652967 36.9455769,22.652967 L36.9455769,23.4095604 C36.9455769,23.8274154 36.6162479,24.1661538 36.21,24.1661538 C35.8037521,24.1661538 35.4744231,23.8274154 35.4744231,23.4095604 L35.4744231,22.652967 C34.2556793,22.652967 33.2676923,21.6367518 33.2676923,20.3831868 C33.2676923,19.9653318 33.5970213,19.6265934 34.0032692,19.6265934 C34.4095171,19.6265934 34.7388462,19.9653318 34.7388462,20.3831868 C34.7388462,20.8010418 35.0681752,21.1397802 35.4744231,21.1397802 L36.9455769,21.1397802 Z" id="Combined-Shape" fill-rule="evenodd" opacity="0.5"></path>
                    <path d="M36.21,26.52 C40.4349783,26.52 43.86,23.0949783 43.86,18.87 C43.86,14.6450217 40.4349783,11.22 36.21,11.22 C31.9850217,11.22 28.56,14.6450217 28.56,18.87 C28.56,23.0949783 31.9850217,26.52 36.21,26.52 Z M36.21,28.56 C30.8583608,28.56 26.52,24.2216392 26.52,18.87 C26.52,13.5183608 30.8583608,9.18 36.21,9.18 C41.5616392,9.18 45.9,13.5183608 45.9,18.87 C45.9,24.2216392 41.5616392,28.56 36.21,28.56 Z M15.3,29.58 C11.3566869,29.58 8.16,26.3833131 8.16,22.44 C8.16,18.4966869 11.3566869,15.3 15.3,15.3 C19.2433131,15.3 22.44,18.4966869 22.44,22.44 C22.44,26.3833131 19.2433131,29.58 15.3,29.58 Z M15.3,27.54 C18.1166522,27.54 20.4,25.2566522 20.4,22.44 C20.4,19.6233478 18.1166522,17.34 15.3,17.34 C12.4833478,17.34 10.2,19.6233478 10.2,22.44 C10.2,25.2566522 12.4833478,27.54 15.3,27.54 Z" id="Combined-Shape" fill-rule="nonzero"></path>
                </g>
            </g>
        </g>
    </g>
</svg>