<?xml version="1.0" encoding="UTF-8"?>
<svg width="50px" height="50px" viewBox="0 0 50 50" version="1.1" xmlns="http://www.w3.org/2000/svg" xmlns:xlink="http://www.w3.org/1999/xlink">
    <!-- Generator: sketchtool 50.2 (55047) - http://www.bohemiancoding.com/sketch -->
    <title>CD7BF635-4E26-4D23-A854-4EBFFCECA71B</title>
    <desc>Created with sketchtool.</desc>
    <defs></defs>
    <g id="Symbols" stroke="none" stroke-width="1" fill="none" fill-rule="evenodd">
        <g id="ic/1">
            <path d="M46.830811,30.7527629 C47.0486496,31.0727291 47.1461328,31.4546888 47.1068556,31.7945989 C47.0675258,32.1344455 46.9129934,32.4360202 46.5553974,32.6802907 C44.4234395,34.1349932 40.4406686,37.0173647 36.570997,39.5355214 C34.6360561,40.7946263 32.7299289,41.9617476 31.1143584,42.8062375 C29.4987353,43.6507274 28.1255056,44.1463049 27.5049049,44.1463049 C21.5736274,44.1516035 17.1573876,41.9455869 9.70003061,43.3528404 L9.70003061,41.809413 C9.70271233,41.6183267 9.60308623,41.4405878 9.43930107,41.344256 C9.27551592,41.2479242 9.07294696,41.2479242 8.9091618,41.344256 C8.74537665,41.4405878 8.64575054,41.6183267 8.64843227,41.809413 L8.64843227,45.6936533 L5,45.6936533 C4.44771525,45.6936533 4,45.245938 4,44.6936533 L4,31.9888736 C4,31.4365888 4.44771525,30.9888736 5,30.9888736 L8.64843227,30.9888736 L8.64843227,34.8730767 C8.64575054,35.064163 8.74537665,35.241902 8.9091618,35.3382338 C9.07294696,35.4345656 9.27551592,35.4345656 9.43930107,35.3382338 C9.60308623,35.241902 9.70271233,35.064163 9.70003061,34.8730767 L9.70003061,33.5886657 C11.599112,32.8267809 14.6852377,32.0697867 16.4149592,32.0697867 C18.4010078,32.0697867 19.7596203,32.4330053 21.0605526,32.8120879 C22.3614849,33.1911705 23.6180923,33.5959513 25.2648427,33.5959513 C25.2683016,33.5959676 27.1647365,33.5393963 30.9541474,33.4262374 C31.7758664,33.3985257 32.4214426,34.0486155 32.4214426,34.7565235 C32.4214426,35.4644263 31.784542,36.0496242 30.916027,36.0871329 L20.7338423,37.1019363 C20.5440724,37.1071181 32.9213198,36.5033587 33.2967404,35.6216832 C33.3084895,35.6174078 36.976815,33.8419867 44.301717,30.2954201 C44.7352384,30.085156 45.1181254,29.9980206 45.4515872,30.0000341 C46.0881723,30.0037431 46.5448814,30.3328122 46.830811,30.7527629 Z" id="Path" stroke="#99CC33" stroke-width="2" opacity="0.5"></path>
            <path d="M35.5,27 C30.8055796,27 27,23.1944204 27,18.5 C27,13.8055796 30.8055796,10 35.5,10 C40.1944204,10 44,13.8055796 44,18.5 C44,23.1944204 40.1944204,27 35.5,27 Z M35.2211538,15.2747253 L35.7788462,15.2747253 L35.7788462,15.7912088 L35.2211538,15.7912088 L35.2211538,15.2747253 Z M35.942652,17.0515972 C35.9424228,17.0399189 35.9423077,17.028214 35.9423077,17.0164835 C35.9423077,17.0416787 35.9463479,17.0663761 35.9539464,17.0899002 Z" id="Combined-Shape" stroke="#99CC33" stroke-width="2"></path>
            <path d="M15,28 C11.6862915,28 9,25.3137085 9,22 C9,18.6862915 11.6862915,16 15,16 C18.3137085,16 21,18.6862915 21,22 C21,25.3137085 18.3137085,28 15,28 Z" id="Combined-Shape-Copy" stroke="#99CC33" stroke-width="2"></path>
            <path d="M11.8333333,13.6199999 C12.2935706,13.6199999 12.6666667,13.2605485 12.6666667,12.8171428 L12.6666667,8.80285713 C12.6666667,8.35945138 12.2935706,8 11.8333333,8 C11.373096,8 11,8.35945138 11,8.80285713 L11,12.8171428 C11,13.2605485 11.373096,13.6199999 11.8333333,13.6199999 Z" id="Shape" fill="#99CC33" fill-rule="nonzero" opacity="0.5"></path>
            <path d="M32.8333333,8 C33.2935706,8 33.6666667,7.64054862 33.6666667,7.19714287 L33.6666667,3.18285724 C33.6666667,2.73945149 33.2935706,2.38000011 32.8333333,2.38000011 C32.373096,2.38000011 32,2.73945149 32,3.18285724 L32,7.19714287 C32,7.64054862 32.373096,8 32.8333333,8 Z" id="Shape-Copy-2" fill="#99CC33" fill-rule="nonzero" opacity="0.5"></path>
            <path d="M17.8333333,13.6199999 C18.2935706,13.6199999 18.6666667,13.2605485 18.6666667,12.8171428 L18.6666667,8.80285713 C18.6666667,8.35945138 18.2935706,8 17.8333333,8 C17.373096,8 17,8.35945138 17,8.80285713 L17,12.8171428 C17,13.2605485 17.373096,13.6199999 17.8333333,13.6199999 Z" id="Shape" fill="#99CC33" fill-rule="nonzero" opacity="0.5"></path>
            <path d="M38.8333333,8 C39.2935706,8 39.6666667,7.64054862 39.6666667,7.19714287 L39.6666667,3.18285724 C39.6666667,2.73945149 39.2935706,2.38000011 38.8333333,2.38000011 C38.373096,2.38000011 38,2.73945149 38,3.18285724 L38,7.19714287 C38,7.64054862 38.373096,8 38.8333333,8 Z" id="Shape-Copy-3" fill="#99CC33" fill-rule="nonzero" opacity="0.5"></path>
            <path d="M14.8333333,12.6199999 C15.2935706,12.6199999 15.6666667,12.2605485 15.6666667,11.8171428 L15.6666667,7.80285713 C15.6666667,7.35945138 15.2935706,7 14.8333333,7 C14.373096,7 14,7.35945138 14,7.80285713 L14,11.8171428 C14,12.2605485 14.373096,12.6199999 14.8333333,12.6199999 Z" id="Shape-Copy" fill="#99CC33" fill-rule="nonzero" opacity="0.5"></path>
            <path d="M35.8333333,7 C36.2935706,7 36.6666667,6.64054862 36.6666667,6.19714287 L36.6666667,2.18285724 C36.6666667,1.73945149 36.2935706,1.38000011 35.8333333,1.38000011 C35.373096,1.38000011 35,1.73945149 35,2.18285724 L35,6.19714287 C35,6.64054862 35.373096,7 35.8333333,7 Z" id="Shape-Copy-4" fill="#99CC33" fill-rule="nonzero" opacity="0.5"></path>
        </g>
    </g>
</svg>