<svg xmlns="http://www.w3.org/2000/svg" width="50" height="50"><title>36BB0D00-B625-4D18-9BE9-18EDE4D29CF0</title><desc>Created with sketchtool.</desc><g fill="none"><g><path stroke="#9c3" stroke-width="2" d="M37.52 19.5h3.9c1.64 0 3 1.35 3 3 0 .75-.28 1.46-.77 2L28.42 41.6c-.74.82-2 .9-2.83.15-.54-.47-.78-1.18-.64-1.88l2.06-10.3H24c-1.66 0-3-1.35-3-3 0-.7.25-1.4.7-1.94L36.07 7.7c.7-.84 1.97-.94 2.82-.23.55.47.8 1.2.66 1.92l-2.02 10.1z"/><rect width="17" height="2" x="6" y="13" fill="#9c3" opacity=".5" rx="1"/><rect width="10" height="2" x="4" y="23" fill="#9c3" opacity=".55" rx="1"/><rect width="12" height="2" x="9" y="33" fill="#9c3" opacity=".5" rx="1"/></g></g></svg>