<?xml version="1.0" encoding="UTF-8"?>
<svg width="25" height="20px" viewBox="0 0 29 20" version="1.1" xmlns="http://www.w3.org/2000/svg" xmlns:xlink="http://www.w3.org/1999/xlink">
    <!-- Generator: Sketch 51.2 (57519) - http://www.bohemiancoding.com/sketch -->
    <title>ic</title>
    <desc>Created with Sketch.</desc>
    <defs></defs>
    <g id="Page-1" stroke="none" stroke-width="1" fill="none" fill-rule="evenodd">
        <g id="Landing-2-Desktop" transform="translate(-1289.000000, -30.000000)" fill="#D32992">
            <g id="header">
                <g id="ic" transform="translate(1289.000000, 30.000000)">
                    <path d="M18.9081442,5.98661011 C17.4018453,2.96541865 14.3058177,1 10.849976,1 C5.87941323,1 1.84997598,5.02943725 1.84997598,10 C1.84997598,14.9705627 5.87941323,19 10.849976,19 C14.2811008,19 17.3584728,17.0626658 18.8767984,14.0756042 L19.9771005,14.0920801 C18.413316,17.5746354 14.9148831,20 10.849976,20 C5.32712848,20 0.849975977,15.5228475 0.849975977,10 C0.849975977,4.4771525 5.32712848,0 10.849976,0 C14.9348462,0 18.4476645,2.44924548 20,5.95930554 L18.9081442,5.98661011 Z" id="Path"></path>
                    <path d="M26.7928932,9.5 L23.6464466,6.35355339 C23.1750421,5.88214887 23.8821489,5.17504209 24.3535534,5.64644661 L28.2726637,9.56555696 C28.4233929,9.65167417 28.5249844,9.8139731 28.5249844,10 C28.5249844,10.1860269 28.4233929,10.3483258 28.2726637,10.434443 L24.3535534,14.3535534 C23.8821489,14.8249579 23.1750421,14.1178511 23.6464466,13.6464466 L26.7928932,10.5 L11,10.5 C10.7238576,10.5 10.5,10.2761424 10.5,10 C10.5,9.72385763 10.7238576,9.5 11,9.5 L26.7928932,9.5 Z" id="Combined-Shape" fill-rule="nonzero"></path>
                </g>
            </g>
        </g>
    </g>
</svg>