<svg xmlns="http://www.w3.org/2000/svg" width="86" height="94"><g fill="none"><path fill="#9C3" d="M55.74 14.27L45.8 26.2l-14.2-6.52 8.24 12.46-11.93 9.93 14.07-1.75L14.83 93.7h3.53l26.4-51.95 7 12.23V38.1l15.9-2-13.9-5.95z"/><path fill="#FEC502" d="M23.94 16.26L16 12.3 12 2.35 8.04 12.3.1 16.25l7.94 3.97 3.98 9.93L16 20.23z"/><path fill="#D32992" d="M75.6 77.8L69 74.98l-3.33-7.1-3.3 7.1-6.63 2.84 6.62 2.84 3.3 7.1 3.33-7.1z"/><path fill="#D32992" fill-rule="nonzero" d="M10.03 42.07a3.97 3.97 0 0 1-3.98 3.97 3.98 3.98 0 0 1-3.97-3.97 3.97 3.97 0 0 1 3.97-3.97 3.98 3.98 0 0 1 3.98 3.97z"/><path fill="#57D804" fill-rule="nonzero" d="M83.56 55.97a3.97 3.97 0 0 1-3.97 3.97 3.98 3.98 0 0 1-4-3.97 3.97 3.97 0 0 1 4-3.97 3.98 3.98 0 0 1 3.96 3.97z"/><path fill="#FEC502" fill-rule="nonzero" d="M47.8 84.76a2.98 2.98 0 0 1-3 2.97 2.98 2.98 0 0 1-2.1-5.08 2.98 2.98 0 0 1 5.1 2.1z"/><path fill="#57D804" fill-rule="nonzero" d="M41.83 9.3a2.98 2.98 0 0 1-2.98 3 2.98 2.98 0 0 1-2.1-5.1 2.98 2.98 0 0 1 5.08 2.1z"/><path fill="#FEC502" fill-rule="nonzero" d="M83.56 26.18a2.98 2.98 0 0 1-2.98 2.98 2.98 2.98 0 0 1-2.1-5.08 2.98 2.98 0 0 1 5.08 2.1z"/><path stroke="#417505" d="M56.74 12.27L46.8 24.2l-14.2-6.52 8.24 12.46-11.93 9.93 14.07-1.75L15.83 91.7h3.53l26.4-51.95 7 12.23V36.1l15.9-2-13.9-5.95z"/><path stroke="#B47800" d="M24.94 14.26L17 10.3 13 .35 9.04 10.3 1.1 14.25l7.94 3.97 3.98 9.93 3.97-9.93z"/><path stroke="#9B0060" d="M76.6 75.8L70 72.98l-3.33-7.1-3.3 7.1-6.63 2.84 6.62 2.84 3.3 7.1 3.33-7.1z"/><path fill-rule="nonzero" stroke="#9B0060" d="M11.03 40.07a3.97 3.97 0 0 1-3.98 3.97 3.98 3.98 0 0 1-3.97-3.97 3.97 3.97 0 0 1 3.97-3.97 3.98 3.98 0 0 1 3.98 3.97z"/><path fill-rule="nonzero" stroke="#4DA608" d="M84.56 53.97a3.97 3.97 0 0 1-3.97 3.97 3.98 3.98 0 0 1-4-3.97 3.97 3.97 0 0 1 4-3.97 3.98 3.98 0 0 1 3.96 3.97z"/><path fill-rule="nonzero" stroke="#B47800" d="M48.8 82.76a2.98 2.98 0 0 1-3 2.97 2.98 2.98 0 0 1-2.1-5.08 2.98 2.98 0 0 1 5.1 2.1z"/><path fill-rule="nonzero" stroke="#4DA608" d="M42.83 7.3a2.98 2.98 0 0 1-2.98 3 2.98 2.98 0 0 1-2.1-5.1 2.98 2.98 0 0 1 5.08 2.1z"/><path fill-rule="nonzero" stroke="#B47800" d="M84.56 24.18a2.98 2.98 0 0 1-2.98 2.98 2.98 2.98 0 0 1-2.1-5.08 2.98 2.98 0 0 1 5.08 2.1z"/></g></svg>