<svg xmlns="http://www.w3.org/2000/svg" width="86" height="94" viewBox="0 0 86 94">
    <g fill="none" fill-rule="evenodd">
        <path fill="#9C3" d="M55.738 14.27l-9.935 11.916-14.217-6.509 8.25 12.464-11.923 9.93 14.057-1.754-27.142 53.387h3.53L44.77 41.75l6.995 12.23V38.096L67.66 36.11l-13.91-5.955z"/>
        <path fill="#FEC502" d="M23.939 16.257l-7.95-3.97-3.974-9.928-3.975 9.927-7.95 3.971 7.95 3.971 3.975 9.928 3.974-9.928z"/>
        <path fill="#D32992" d="M75.611 77.807l-6.625-2.837-3.312-7.091-3.313 7.091-6.624 2.837 6.624 2.836 3.313 7.091 3.312-7.09z"/>
        <path fill="#D32992" fill-rule="nonzero" d="M10.027 42.068a3.969 3.969 0 0 1-3.974 3.971 3.977 3.977 0 0 1-3.975-3.97 3.969 3.969 0 0 1 3.975-3.972 3.977 3.977 0 0 1 3.974 3.971z"/>
        <path fill="#57D804" fill-rule="nonzero" d="M83.56 55.967a3.969 3.969 0 0 1-3.974 3.97 3.977 3.977 0 0 1-3.975-3.97 3.969 3.969 0 0 1 3.975-3.971 3.977 3.977 0 0 1 3.974 3.97z"/>
        <path fill="#FEC502" fill-rule="nonzero" d="M47.788 84.756a2.98 2.98 0 0 1-2.982 2.978A2.98 2.98 0 0 1 42.7 82.65a2.983 2.983 0 0 1 5.089 2.106z"/>
        <path fill="#57D804" fill-rule="nonzero" d="M41.825 9.308a2.98 2.98 0 0 1-2.98 2.978 2.98 2.98 0 0 1-2.109-5.084 2.983 2.983 0 0 1 5.09 2.106z"/>
        <path fill="#FEC502" fill-rule="nonzero" d="M83.56 26.185a2.98 2.98 0 0 1-2.98 2.978 2.98 2.98 0 0 1-2.109-5.084 2.983 2.983 0 0 1 5.09 2.106z"/>
        <path stroke="#417505" d="M56.738 12.27l-9.935 11.916-14.217-6.509 8.25 12.464-11.923 9.93 14.057-1.754-27.142 53.387h3.53L45.77 39.75l6.995 12.23V36.096L68.66 34.11l-13.91-5.955z"/>
        <path stroke="#B47800" d="M24.939 14.257l-7.95-3.97L13.015.358 9.04 10.286l-7.95 3.971 7.95 3.971 3.975 9.928 3.974-9.928z"/>
        <path stroke="#9B0060" d="M76.611 75.807l-6.625-2.837-3.312-7.091-3.313 7.091-6.624 2.837 6.624 2.836 3.313 7.091 3.312-7.09z"/>
        <path fill-rule="nonzero" stroke="#9B0060" d="M11.027 40.068a3.969 3.969 0 0 1-3.974 3.971 3.977 3.977 0 0 1-3.975-3.97 3.969 3.969 0 0 1 3.975-3.972 3.977 3.977 0 0 1 3.974 3.971z"/>
        <path fill-rule="nonzero" stroke="#4DA608" d="M84.56 53.967a3.969 3.969 0 0 1-3.974 3.97 3.977 3.977 0 0 1-3.975-3.97 3.969 3.969 0 0 1 3.975-3.971 3.977 3.977 0 0 1 3.974 3.97z"/>
        <path fill-rule="nonzero" stroke="#B47800" d="M48.788 82.756a2.98 2.98 0 0 1-2.982 2.978A2.98 2.98 0 0 1 43.7 80.65a2.983 2.983 0 0 1 5.089 2.106z"/>
        <path fill-rule="nonzero" stroke="#4DA608" d="M42.825 7.308a2.98 2.98 0 0 1-2.98 2.978 2.98 2.98 0 0 1-2.109-5.084 2.983 2.983 0 0 1 5.09 2.106z"/>
        <path fill-rule="nonzero" stroke="#B47800" d="M84.56 24.185a2.98 2.98 0 0 1-2.98 2.978 2.98 2.98 0 0 1-2.109-5.084 2.983 2.983 0 0 1 5.09 2.106z"/>
    </g>
</svg>
