<?xml version="1.0" encoding="UTF-8"?>
<svg width="50px" height="50px" viewBox="0 0 50 50" version="1.1" xmlns="http://www.w3.org/2000/svg" xmlns:xlink="http://www.w3.org/1999/xlink">
    <!-- Generator: sketchtool 50.2 (55047) - http://www.bohemiancoding.com/sketch -->
    <title>0CBA95DC-33CC-4563-8E9A-A6E7592A8178</title>
    <desc>Created with sketchtool.</desc>
    <defs></defs>
    <g id="Symbols" stroke="none" stroke-width="1" fill="none" fill-rule="evenodd">
        <g id="ic/medal" fill-rule="nonzero">
            <g id="Group" transform="translate(6.000000, 0.000000)">
                <path d="M8.92292931,38.4492232 L1.61063111,40.8388631 C0.755303098,41.1183821 -0.00517961696,40.2142505 0.416737871,39.4194534 L6.0906311,28.7311216 C6.34958592,28.2433093 6.95496028,28.0577836 7.44277259,28.3167384 C7.9305849,28.5756933 8.11611056,29.1810676 7.85715574,29.6688799 L3.34549649,38.1678257 L8.93531931,36.3410862 C9.31903157,36.2156901 9.74050853,36.3332999 10.0038562,36.639253 L14.5786659,41.9541944 L16.8748411,34.0535278 C17.0289744,33.5231869 17.5838503,33.2182104 18.1141911,33.3723437 C18.6445319,33.5264769 18.9495084,34.0813528 18.7953751,34.6116936 L15.9843957,44.2836959 C15.7628494,45.045991 14.784093,45.2586302 14.2662227,44.6569768 L8.92292931,38.4492232 Z" id="Path-2" fill="#99CC33" opacity="0.5"></path>
                <path d="M20.8106309,40.8388631 C19.9553029,41.1183821 19.1948202,40.2142505 19.6167377,39.4194534 L25.2906309,28.7311216 C25.5495857,28.2433093 26.1549601,28.0577836 26.6427724,28.3167384 C27.1305847,28.5756933 27.3161104,29.1810676 27.0571556,29.6688799 L22.5454963,38.1678257 L28.1353191,36.3410862 C28.5190314,36.2156901 28.9405083,36.3332999 29.203856,36.639253 L33.7786657,41.9541944 L36.0748409,34.0535278 C36.2289742,33.5231869 36.7838501,33.2182104 37.3141909,33.3723437 C37.8445317,33.5264769 38.1495082,34.0813528 37.9953749,34.6116936 L35.1843955,44.2836959 C34.9628492,45.045991 33.9840928,45.2586302 33.4662225,44.6569768 L28.1229291,38.4492232 L20.8106309,40.8388631 Z" id="Path-2-Copy" fill="#99CC33" opacity="0.5" transform="translate(28.766049, 36.602449) scale(-1, 1) translate(-28.766049, -36.602449) "></path>
                <path d="M19.4220867,34.3376759 C10.1026877,34.3376759 2.52437978,26.7856348 2.52437978,17.4831174 C2.52437978,8.18921522 10.104878,0.639428372 19.4220867,0.639428372 C28.7479108,0.639428372 36.3305973,8.18703017 36.3305973,17.4831174 C36.3305973,26.7878205 28.7501017,34.3376759 19.4220867,34.3376759 Z" id="Shape" fill="#FFFFFF"></path>
                <path d="M19.4220867,30.3376759 C26.5454729,30.3376759 32.3305973,24.5741586 32.3305973,17.4831174 C32.3305973,10.4028797 26.5454729,4.63942837 19.4220867,4.63942837 C12.3095042,4.63942837 6.52437978,10.4028797 6.52437978,17.4831174 C6.52437978,24.5741586 12.3095042,30.3376759 19.4220867,30.3376759 Z M19.4220867,32.3376759 C11.2057057,32.3376759 4.52437978,25.6795078 4.52437978,17.4831174 C4.52437978,9.29560633 11.2076341,2.63942837 19.4220867,2.63942837 C27.6454123,2.63942837 34.3305973,9.29368134 34.3305973,17.4831174 C34.3305973,25.6814336 27.6473414,32.3376759 19.4220867,32.3376759 Z" id="Shape" fill="#99CC33"></path>
                <path d="M28.2076447,15.8749636 C28.196841,15.8965707 28.2076447,15.918112 28.2076447,15.9397193 C28.196841,15.9936713 28.1752339,16.0368857 28.1536926,16.0908378 C28.142889,16.1447899 28.1320854,16.198742 28.0996747,16.2634976 C28.0565262,16.3390568 28.0025741,16.4038125 27.9486221,16.4793717 C27.9270149,16.5009789 27.9162113,16.5441274 27.8838664,16.5657346 L24.4408811,19.8576014 L25.2611634,24.4985994 C25.3259191,24.9087406 25.1639969,25.3188817 24.8294151,25.5562972 C24.6459516,25.696612 24.4192738,25.7721713 24.192596,25.7721713 C24.0199363,25.7721713 23.8580141,25.7290229 23.696158,25.64266 L19.4220867,23.4409017 L15.1588191,25.64266 C14.7918924,25.836927 14.3493405,25.8045821 14.0255621,25.5562972 C13.6909802,25.3188817 13.5290581,24.9087406 13.5938138,24.4985994 L14.4140962,19.8576014 L10.9711109,16.5657346 C10.9387659,16.5441274 10.9279624,16.5009789 10.9063552,16.4793717 C10.8524031,16.4038125 10.798451,16.3390568 10.7553026,16.2634976 C10.7228918,16.1987419 10.7120882,16.1447898 10.7012846,16.0908378 C10.6797432,16.0368857 10.6581361,15.9936713 10.6473325,15.9397193 C10.6473325,15.9181121 10.6581361,15.8965708 10.6473325,15.8749636 C10.6473325,15.7994043 10.6581361,15.7238451 10.6689396,15.6482858 C10.6689396,15.5835301 10.6797432,15.5187745 10.7012845,15.4648224 C10.7120882,15.4000667 10.7553025,15.3461146 10.7876474,15.281359 C10.8200582,15.2166033 10.8524031,15.1518477 10.9063552,15.0978298 C10.9171588,15.0762885 10.9171588,15.0546813 10.9387659,15.0438777 C10.9711109,15.0115328 11.0143252,14.9899256 11.0466701,14.9683185 C11.1006221,14.9143664 11.1653778,14.871218 11.2301993,14.8388072 C11.294955,14.8064623 11.3597106,14.7848551 11.435204,14.763248 C11.4784184,14.7525103 11.5215669,14.730903 11.5647813,14.7200995 L16.3352905,14.0401321 L18.4614896,9.79847168 C18.4830968,9.76612674 18.5155075,9.7445196 18.5370488,9.7013052 C18.5802632,9.64735312 18.6234117,9.58259742 18.6773638,9.52864545 C18.7313158,9.48549699 18.7853338,9.4422826 18.8392858,9.39913414 C18.8824343,9.377527 18.9040415,9.34518207 18.94719,9.32357492 C18.9687971,9.31277129 18.9903384,9.31277129 19.0227492,9.30196778 C19.0875049,9.26962284 19.1522605,9.25881932 19.2278197,9.2480157 C19.2925754,9.23721207 19.357331,9.21567076 19.4220867,9.21567076 C19.497646,9.21567076 19.5624017,9.23721207 19.6271573,9.2480157 C19.7027165,9.25881932 19.7674722,9.26962284 19.8322278,9.30196778 C19.8646386,9.3127714 19.8861799,9.3127714 19.907787,9.32357492 C19.9509355,9.34518207 19.9725427,9.377527 20.0156912,9.39913414 C20.0696433,9.4422826 20.1236612,9.48549699 20.1776132,9.52864545 C20.2315653,9.58259752 20.2747138,9.64735323 20.3179282,9.7013052 C20.3394695,9.7445196 20.3718803,9.76612674 20.3934874,9.79847168 L22.5196865,14.0401321 L27.2901958,14.7200995 C27.3334102,14.7309031 27.3765586,14.7525103 27.419773,14.763248 C27.4952664,14.7848551 27.560022,14.8064624 27.6247777,14.8388072 C27.6895993,14.871218 27.754355,14.9143664 27.808307,14.9683185 C27.840652,14.9899256 27.8838662,15.0115329 27.9162112,15.0438777 C27.9378183,15.0546813 27.9378183,15.0762885 27.9486219,15.0978298 C28.002574,15.1518477 28.034919,15.2166034 28.0673297,15.281359 C28.0996747,15.3461147 28.142889,15.4000668 28.1536926,15.4648224 C28.1752339,15.5187745 28.1860375,15.5835302 28.1860375,15.6482858 C28.196841,15.7238451 28.2076447,15.7994043 28.2076447,15.8749636 Z" id="Shape" fill="#99CC33"></path>
            </g>
        </g>
    </g>
</svg>