<svg xmlns="http://www.w3.org/2000/svg" width="50" height="50"><title>0CBA95DC-33CC-4563-8E9A-A6E7592A8178</title><desc>Created with sketchtool.</desc><g fill="none"><g fill-rule="nonzero"><g><path fill="#9c3" d="M14.92 38.45l-7.3 2.4c-.86.27-1.63-.64-1.2-1.43l5.67-10.7c.25-.48.85-.66 1.34-.4.5.26.68.86.42 1.35l-4.5 8.5 5.58-1.83c.38-.12.8 0 1.06.3l4.58 5.3 2.3-7.9c.15-.52.7-.82 1.23-.67.54.16.85.7.7 1.24l-2.82 9.68c-.22.77-1.2.98-1.7.38l-5.36-6.2z" opacity=".5"/><path fill="#9c3" d="M42.72 40.84c.86.28 1.62-.63 1.2-1.42l-5.68-10.7c-.26-.48-.86-.66-1.35-.4-.5.26-.68.86-.43 1.35l4.52 8.5-5.6-1.83c-.4-.12-.8 0-1.07.3l-4.58 5.3-2.3-7.9c-.15-.52-.7-.82-1.23-.67-.53.16-.84.7-.68 1.24l2.8 9.68c.23.77 1.2.98 1.73.38l5.34-6.2 7.32 2.38z" opacity=".5"/><path id="Shape" fill="#fff" d="M25.42 34.34c-9.32 0-16.9-7.55-16.9-16.86C8.52 8.18 16.1.64 25.42.64c9.33 0 16.9 7.55 16.9 16.84 0 9.3-7.57 16.86-16.9 16.86z"/><path fill="#9c3" d="M25.42 30.34c7.13 0 12.9-5.77 12.9-12.86 0-7.08-5.77-12.84-12.9-12.84-7.1 0-12.9 5.76-12.9 12.84 0 7.1 5.8 12.86 12.9 12.86zm0 2c-8.2 0-14.9-6.66-14.9-14.86 0-8.18 6.7-14.84 14.9-14.84 8.23 0 14.9 6.65 14.9 14.84 0 8.2-6.67 14.86-14.9 14.86zM34.2 15.87c0 .03 0 .05 0 .07 0 .05-.02.1-.05.15 0 .04-.02.1-.05.16-.04.08-.1.14-.15.22-.02.02-.03.06-.07.1l-3.44 3.28.82 4.64c.07.4-.1.82-.43 1.06-.18.14-.4.2-.64.2-.18 0-.34-.03-.5-.12l-4.28-2.2-4.26 2.2c-.37.2-.8.16-1.13-.08-.34-.24-.5-.65-.44-1.06l.8-4.64-3.43-3.3c-.03-.02-.04-.06-.06-.08-.05-.08-.1-.14-.14-.22-.04-.06-.05-.12-.06-.17-.02-.06-.04-.1-.05-.16 0-.02 0-.04 0-.07 0-.07 0-.15.02-.22 0-.07 0-.13.03-.2 0-.05.06-.1.1-.17.02-.06.05-.13.1-.18.02-.02.02-.05.04-.06.03-.03.07-.05.1-.07.06-.06.13-.1.2-.13.05-.03.12-.06.2-.08.04 0 .08-.03.12-.04l4.78-.68 2.12-4.24c.02-.03.06-.06.08-.1.04-.05.08-.12.14-.17.05-.04.1-.1.16-.13.04-.02.06-.05.1-.08.03 0 .05 0 .08-.02.07-.03.13-.04.2-.05.07 0 .14-.03.2-.03.08 0 .14.02.2.03.08 0 .15.02.2.05.04 0 .07 0 .1.02.03.03.05.06.1.08.05.04.1.1.16.13.05.05.1.12.14.17.02.04.05.07.07.1l2.12 4.24 4.77.68c.03 0 .08.03.12.04.08.02.14.05.2.08.07.03.13.07.2.13.02.02.06.04.1.07.02 0 .02.04.03.06.05.05.08.12.12.18.03.07.07.12.08.18.03.06.04.12.04.2 0 .06 0 .14 0 .2z"/></g></g></g></svg>