<svg xmlns="http://www.w3.org/2000/svg" width="92" height="92" viewBox="0 0 92 92">
    <g fill="none" fill-rule="evenodd" transform="translate(-17 -17)">
        <rect width="58" height="32" x="33" y="50" fill="#9C3" rx="2"/>
        <path fill="#3F8F0C" d="M82.217 53.98a7.889 7.889 0 0 1-.238-.959h6.452v6.41c-2.94-.566-5.322-2.685-6.214-5.451zM82.238 78.451c-.1.312-.177.633-.238.959h6.453V73c-2.942.566-5.323 2.685-6.215 5.451zM42.214 78.451c.1.312.177.633.238.959H36V73c2.94.566 5.322 2.685 6.214 5.451zM42.193 53.98c.1-.312.177-.633.238-.959h-6.453v6.41c2.942-.566 5.323-2.685 6.215-5.451z"/>
        <path fill="#3F8F0C" fill-rule="nonzero" d="M62 76c-4.739 0-8.5-4.513-8.5-10s3.761-10 8.5-10 8.5 4.513 8.5 10-3.761 10-8.5 10z"/>
        <path fill="#9C3" d="M62.286 60.94c.477 0 .942.08 1.398.24.455.16.847.414 1.176.761l-.936.91a2.122 2.122 0 0 0-1.638-.819V65.1l-.026.013c.373.104.73.219 1.073.345.342.125.643.286.903.48.26.196.468.44.624.735.156.295.234.663.234 1.105a2.493 2.493 0 0 1-.838 1.905c-.256.23-.555.409-.898.539-.342.13-.7.208-1.072.234v.936h-.702v-.936a4.441 4.441 0 0 1-1.593-.28c-.49-.186-.912-.509-1.267-.968l1.001-.897c.2.33.468.583.806.76.338.178.689.276 1.053.293v-3.198a6.534 6.534 0 0 1-1.008-.331 3.311 3.311 0 0 1-.845-.514 2.27 2.27 0 0 1-.584-.754c-.144-.295-.215-.65-.215-1.066 0-.373.074-.708.221-1.007.147-.3.342-.56.585-.78.243-.221.524-.4.845-.533.32-.135.654-.215 1.001-.241v-.936h.702v.936zm-.702 1.092c-.416.07-.754.228-1.014.475-.26.247-.39.578-.39.994a1.166 1.166 0 0 0 .429.936c.13.113.28.208.448.286.17.078.345.143.527.195v-2.886zm.702 7.332c.217-.026.418-.078.605-.156.186-.078.35-.182.494-.312.143-.13.255-.284.337-.461.083-.178.124-.38.124-.605 0-.225-.045-.418-.136-.578a1.389 1.389 0 0 0-.352-.41 2.069 2.069 0 0 0-.5-.286 7.583 7.583 0 0 0-.572-.208v3.016z"/>
        <rect width="57" height="31" x="38.5" y="45.5" stroke="#447708" rx="2"/>
        <path stroke="#447708" d="M67 70.5c4.416 0 8-4.242 8-9.5s-3.584-9.5-8-9.5-8 4.242-8 9.5 3.584 9.5 8 9.5z"/>
        <path fill="#D32992" fill-rule="nonzero" d="M32.173 32.173c-16.987 16.988-16.987 44.53 0 61.519 16.988 16.987 44.53 16.987 61.519 0 16.987-16.988 16.987-44.53 0-61.519-16.988-16.987-44.53-16.987-61.519 0zM30.76 30.76c17.769-17.769 46.578-17.769 64.347 0 17.769 17.769 17.769 46.578 0 64.347-17.769 17.769-46.578 17.769-64.347 0-17.769-17.769-17.769-46.578 0-64.347z"/>
        <path stroke="#D32992" stroke-linecap="square" stroke-width="2" d="M93.945 94.852L32.218 33.125"/>
    </g>
</svg>
