<?xml version="1.0" encoding="UTF-8"?>
<svg width="142px" height="152px" viewBox="0 0 142 152" version="1.1" xmlns="http://www.w3.org/2000/svg" xmlns:xlink="http://www.w3.org/1999/xlink">
    <!-- Generator: sketchtool 50.2 (55047) - http://www.bohemiancoding.com/sketch -->
    <title>E76F2A17-F67F-4C20-942A-5E7A1E539D17</title>
    <desc>Created with sketchtool.</desc>
    <defs>
        <rect id="path-1" x="0" y="0" width="127.933962" height="61.6226415"></rect>
    </defs>
    <g id="Page-1" stroke="none" stroke-width="1" fill="none" fill-rule="evenodd">
        <g id="Landing-Desktop" transform="translate(-835.000000, -4136.000000)">
            <g id="6-block" transform="translate(165.000000, 3948.000000)">
                <g id="2" transform="translate(570.000000, 93.000000)">
                    <g id="1" transform="translate(170.500000, 171.000000) scale(-1, 1) rotate(-180.000000) translate(-170.500000, -171.000000) translate(99.000000, 95.000000)">
                        <g id="Group-2-Copy-3" transform="translate(71.500000, 76.000000) scale(-1, 1) translate(-71.500000, -76.000000) translate(0.000000, 0.000000)">
                            <path d="M106.469657,22.4867181 L105.160377,96.814319 L106.5,98.8351479 L106.5,113.377358 C106.5,134.364179 89.4868205,151.377358 68.5,151.377358 L62.7830189,151.377358 C41.7961984,151.377358 24.7830189,134.364179 24.7830189,113.377358 L24.7830189,32.3630163 C24.8495842,27.7955652 28.5725919,24.1132075 33.1556604,24.1132075 C37.7797426,24.1132075 41.5283019,27.8617668 41.5283019,32.4858491 C41.5283019,32.7869438 41.5124084,33.0843264 41.4814146,33.3772037 L41.4814146,53.8232844 C41.4814146,55.1803908 42.5815667,56.280543 43.9386731,56.280543 C45.2957795,56.280543 46.3959316,55.1803908 46.3959316,53.8232844 L46.3959316,17.7108536 L46.4636469,17.7108536 C46.4481425,17.50266 46.4402516,17.2923458 46.4402516,17.0801887 C46.4402516,12.4561065 50.1888109,8.70754717 54.8128931,8.70754717 C59.4369753,8.70754717 63.1855346,12.4561065 63.1855346,17.0801887 C63.1855346,17.3379207 63.1738893,17.5929329 63.1510962,17.8447276 L63.1510962,46.8242248 C63.1510962,48.223571 64.2854905,49.3579652 65.6848367,49.3579652 C67.0841829,49.3579652 68.2185772,48.223571 68.2185772,46.8242248 L68.2185772,9.79948061 C68.1389633,9.33578496 68.0974843,8.85905721 68.0974843,8.37264151 C68.0974843,3.74855929 71.8460436,0 76.4701258,0 C81.094208,0 84.8427673,3.74855929 84.8427673,8.37264151 C84.8427673,9.01878467 84.7695741,9.64783264 84.6310265,10.2519466 C84.6667507,15.69717 84.6536572,27.7512881 84.5917461,46.4143009 L84.5917129,46.4143008 C84.5869375,47.8538179 85.7500255,49.0246481 87.1895425,49.0294235 C87.1924247,49.029433 87.1953069,49.0294378 87.198189,49.0294378 C88.642573,49.0294378 89.8134776,47.8585332 89.8134776,46.4141492 L89.8134776,22.7660067 C89.7746759,22.4390329 89.754717,22.1062812 89.754717,21.7688679 C89.754717,21.4314546 89.7746759,21.098703 89.8134776,20.7717292 L89.8134776,20.6815253 L89.8246711,20.6815807 C90.3576892,16.5711755 93.8717493,13.3962264 98.1273585,13.3962264 C102.411319,13.3962264 105.943816,16.6136195 106.440301,20.7638553 L106.5,20.7641509 L106.489687,21.3496352 C106.496535,21.4885164 106.5,21.6282876 106.5,21.7688679 C106.5,22.0106826 106.489749,22.2501029 106.469657,22.4867181 Z" id="Combined-Shape" fill="#F2D0C6" fill-rule="nonzero"></path>
                            <g id="Group" transform="translate(71.024976, 79.639281) rotate(-23.000000) translate(-71.024976, -79.639281) translate(7.024976, 48.639281)">
                                <mask id="mask-2" fill="white">
                                    <use xlink:href="#path-1"></use>
                                </mask>
                                <use id="Rectangle-13" fill="#99CC33" fill-rule="nonzero" xlink:href="#path-1"></use>
                                <path d="M6.69811321,6.69811321 L6.69811321,54.9245283 L121.235849,54.9245283 L121.235849,6.69811321 L6.69811321,6.69811321 Z M6.69811321,0 L121.235849,0 L127.933962,0 L127.933962,61.6226415 L121.235849,61.6226415 L6.69811321,61.6226415 L0,61.6226415 L0,0 L6.69811321,0 Z" id="Combined-Shape" fill="#60A510" fill-rule="nonzero" mask="url(#mask-2)"></path>
                                <circle id="Oval-6" fill="#60A510" fill-rule="nonzero" mask="url(#mask-2)" cx="121.235849" cy="54.9245283" r="18.754717"></circle>
                                <circle id="Oval-6-Copy" fill="#60A510" fill-rule="nonzero" mask="url(#mask-2)" cx="121.235849" cy="2.67924528" r="18.754717"></circle>
                                <circle id="Oval-6-Copy-2" fill="#60A510" fill-rule="nonzero" mask="url(#mask-2)" cx="6.69811321" cy="2.67924528" r="18.754717"></circle>
                                <circle id="Oval-6-Copy-3" fill="#60A510" fill-rule="nonzero" mask="url(#mask-2)" cx="6.69811321" cy="54.9245283" r="18.754717"></circle>
                                <circle id="Oval-7" fill="#60A510" fill-rule="nonzero" mask="url(#mask-2)" cx="64.3018868" cy="30.8113208" r="12.0566038"></circle>
                            </g>
                            <path d="M110.601793,114.537736 C110.601793,115.135355 110.577335,115.727262 110.529365,116.31251 L110.601793,125.254717 C110.601793,139.311927 95.1873046,151.377358 81.1300947,151.377358 L50.4971221,151.377358 C40.1838528,151.377358 30.889935,145.153889 26.9623105,135.617784 L25.4528302,131.95283 L26.1271141,131.828297 L66.3942456,115.207547 C66.3942456,103.369897 75.9905574,93.7735849 87.8282079,93.7735849 C87.8282079,93.7735849 87.8282079,93.7735849 87.8282079,93.7735849 L87.8282079,93.7735849 C91.4816566,93.7735849 94.443362,90.8118795 94.443362,87.1584308 L94.4433962,73.009434 C94.4433962,64.5011227 102.010557,57.6037736 110.518868,57.6037736 L110.518868,112.639269 C110.573764,113.264771 110.601793,113.89798 110.601793,114.537736 Z" id="Combined-Shape" fill="#F2D0C6" fill-rule="nonzero"></path>
                        </g>
                    </g>
                </g>
            </g>
        </g>
    </g>
</svg>