<svg xmlns="http://www.w3.org/2000/svg" width="124" height="76" viewBox="0 0 124 76">
    <g fill="none" fill-rule="evenodd">
        <path fill="#FEC502" d="M95.102 64.162l-15.464 2.1 7.74-13.552-6.776-14.058 15.28 3.173 11.276-10.788 1.703 15.513 13.745 7.39-14.227 6.414-2.781 15.356z"/>
        <path fill="#D32992" d="M28.139 64.162l15.464 2.1-7.74-13.552 6.776-14.058-15.28 3.173-11.276-10.788-1.704 15.513L.635 53.94l14.226 6.414 2.782 15.356z"/>
        <path fill="#9C3" d="M61.5 60.75L38.87 72.647l4.322-25.198-18.308-17.846 25.301-3.677L61.5 3l11.315 22.926 25.3 3.677-18.307 17.846 4.322 25.198z"/>
        <path stroke="#B47800" d="M95.981 61.162l-15.463 2.1 7.74-13.552-6.776-14.058 15.28 3.173 11.275-10.788 1.704 15.513 13.745 7.39-14.227 6.414-2.782 15.356z"/>
        <path stroke="#9B0060" d="M29.019 61.162l15.463 2.1-7.74-13.552 6.776-14.058-15.28 3.173-11.275-10.788-1.704 15.513-13.745 7.39 14.227 6.414 2.782 15.356z"/>
        <path stroke="#417505" d="M62.38 57.75L39.75 69.647l4.322-25.198-18.308-17.846 25.3-3.677L62.38 0l11.315 22.926 25.3 3.677-18.307 17.846 4.321 25.198z"/>
    </g>
</svg>
