<?xml version="1.0" encoding="UTF-8"?>
<svg width="20px" height="17px" viewBox="0 0 20 17" version="1.1" xmlns="http://www.w3.org/2000/svg" xmlns:xlink="http://www.w3.org/1999/xlink">
    <!-- Generator: sketchtool 50.2 (55047) - http://www.bohemiancoding.com/sketch -->
    <title>188EED22-770B-4E48-B44C-CEEC8F3639F9</title>
    <desc>Created with sketchtool.</desc>
    <defs></defs>
    <g id="Symbols" stroke="none" stroke-width="1" fill="none" fill-rule="evenodd">
        <g id="Footer" transform="translate(-1022.000000, -192.000000)">
            <g id="Telegram" transform="translate(1022.000000, 192.000000)">
                <g id="Group-76" transform="translate(0.000000, 0.233766)">
                    <g id="Group-19">
                        <path d="M7.43801653,16.7249115 C6.85785124,16.7249115 6.96198347,16.501771 6.75371901,15.9513577 L5.05785124,10.3579693 L15.5900826,3.78276269 L16.8247934,4.11003542 L15.7983471,6.90672963 L7.43801653,16.7249115 L7.43801653,16.7249115 Z" id="path2993" fill="#FFFFFF"></path>
                        <path d="M7.73553719,10.7702479 L14.9355372,16.0809917 C15.753719,16.5272727 16.3487603,16.3041322 16.5570248,15.322314 L19.4876033,1.51735537 C19.785124,0.312396694 19.0264463,-0.223140496 18.2380165,0.133884298 L1.04132231,6.76859504 C-0.133884298,7.2446281 -0.119008264,7.89917355 0.833057851,8.18181818 L5.25123967,9.56528926 L15.4710744,3.12396694 C15.9471074,2.82644628 16.3933884,2.99008264 16.0363636,3.31735537 L7.73553719,10.7702479 L7.73553719,10.7702479 Z" id="path2991" fill="#2DA4D7"></path>
                    </g>
                </g>
            </g>
        </g>
    </g>
</svg>