<svg xmlns="http://www.w3.org/2000/svg" width="20" height="16"><title>CE51A947-05DB-47D6-BBCA-5B129F41B510</title><desc>Created with sketchtool.</desc><g fill="none"><g fill="#55ACEE"><g><path d="M18.88.35c-.57.36-1.87.9-2.5.9C15.65.47 14.62 0 13.48 0c-2.2 0-4 1.8-4 4 0 .3.03.6.1.9-3-.08-6.3-1.58-8.27-4.16-1.2 2.1-.16 4.45 1.22 5.3-.47.03-1.34-.06-1.75-.45-.02 1.38.65 3.23 3.1 3.9-.48.26-1.3.18-1.67.13.12 1.18 1.77 2.72 3.58 2.72-.64.74-3.06 2.1-5.78 1.66 1.84 1.14 4 1.8 6.27 1.8 6.47 0 11.5-5.26 11.22-11.72 0 0 0 0 0-.02s0-.04 0-.05c0 0 0-.03 0-.05.57-.4 1.36-1.12 1.93-2.05-.33.18-1.3.54-2.22.63.6-.32 1.46-1.36 1.68-2.18"/></g></g></g></svg>