<?xml version="1.0" encoding="UTF-8"?>
<svg width="26px" height="19px" viewBox="0 0 26 19" version="1.1" xmlns="http://www.w3.org/2000/svg" xmlns:xlink="http://www.w3.org/1999/xlink">
    <!-- Generator: sketchtool 50.2 (55047) - http://www.bohemiancoding.com/sketch -->
    <title>50B8DE97-FE4C-493E-A4CD-DF125CFADC90</title>
    <desc>Created with sketchtool.</desc>
    <defs></defs>
    <g id="Symbols" stroke="none" stroke-width="1" fill="none" fill-rule="evenodd">
        <g id="Footer" transform="translate(-1114.000000, -192.000000)" fill="#FF0000" fill-rule="nonzero">
            <g id="YouTube_social_white_circle_(2017)" transform="translate(1114.000000, 192.000000)">
                <g id="g4167" transform="translate(0.263932, 0.681877)">
                    <path d="M12.6575275,1.77962577e-15 C12.6575275,1.77962577e-15 4.74062914,7.3885718e-06 2.7535931,0.516329302 C1.68966544,0.813600599 0.813603604,1.68967207 0.516329302,2.76924723 C1.17716229e-05,4.75628465 0,8.87127583 0,8.87127583 C0,8.87127583 1.17716229e-05,13.0018882 0.516329302,14.9576507 C0.813603604,16.0372112 1.67401907,16.8976367 2.7535931,17.1949152 C4.75627551,17.7268774 12.6575275,17.7268974 12.6575275,17.7268974 C12.6575275,17.7268974 20.5901211,17.7268911 22.577116,17.210569 C23.6566978,16.9132967 24.5170957,16.0685137 24.7987255,14.9733044 C25.3306939,13.0018932 25.3307089,8.88692958 25.3307089,8.88692958 C25.3307089,8.88692958 25.3463427,4.75628465 24.7987255,2.76924723 C24.5170957,1.68967207 23.6566978,0.829267001 22.577116,0.547636809 C20.5901211,2.50460061e-05 12.6575275,0 12.6575275,1.77962577e-15 Z M10.1384967,5.06936974 L16.7255474,8.87127583 L10.1384967,12.6575282 L10.1384967,5.06936974 Z" id="path4156"></path>
                </g>
            </g>
        </g>
    </g>
</svg>