<svg xmlns="http://www.w3.org/2000/svg" width="26" height="19"><title>50B8DE97-FE4C-493E-A4CD-DF125CFADC90</title><desc>Created with sketchtool.</desc><g fill="none"><g fill="#f00" fill-rule="nonzero"><g><g><path d="M12.92.68s-7.92 0-9.9.52C1.95 1.5 1.08 2.37.78 3.45c-.52 2-.52 6.1-.52 6.1s0 4.13.52 6.1c.3 1.07 1.16 1.93 2.24 2.23 2 .53 9.9.53 9.9.53s7.93 0 9.92-.5c1.08-.3 1.94-1.15 2.22-2.24.53-1.98.53-6.1.53-6.1s0-4.12-.54-6.1c-.28-1.1-1.14-1.95-2.22-2.23-2-.55-9.92-.55-9.92-.55zM10.4 5.75l6.6 3.8-6.6 3.8v-7.6z"/></g></g></g></g></svg>